{
.appVersion = "1286";
DisplayStrings = (
"/n-hira"
);
copyright = MIT;
customParameters = (
{
name = localizedFamilyName;
value = "Japanese;Kugane";
}
);
date = "2020-04-30 22:17:57 +0000";
designer = "Gelehrte Crest";
designerURL = "http://www.gelehrte.com";
familyName = "@Kugane";
featurePrefixes = (
{
code = "";
name = Languagesystems;
}
);
features = (
{
code = "";
name = aalt;
},
{
code = "";
name = vert;
},
{
code = "";
name = vkna;
},
{
code = "";
name = vrt2;
}
);
fontMaster = (
{
ascender = 800;
capHeight = 700;
descender = -200;
id = "1305C52C-0BD1-483E-A343-C05F3AFF2931";
xHeight = 500;
}
);
glyphs = (
{
glyphname = "a-hira";
lastChange = "2020-04-30 22:24:48 +0000";
layers = (
{
layerId = "1305C52C-0BD1-483E-A343-C05F3AFF2931";
paths = (
{
closed = 1;
nodes = (
"10 310 OFFCURVE",
"59 426 OFFCURVE",
"83 452 CURVE",
"95 466 OFFCURVE",
"133 472 OFFCURVE",
"144 465 CURVE",
"154 459 OFFCURVE",
"139 440 OFFCURVE",
"148 431 CURVE",
"158 421 OFFCURVE",
"186 413 OFFCURVE",
"204 412 CURVE",
"259 410 OFFCURVE",
"486 405 OFFCURVE",
"486 405 CURVE",
"486 405 OFFCURVE",
"437 472 OFFCURVE",
"410 487 CURVE",
"386 500 OFFCURVE",
"322 494 OFFCURVE",
"322 494 CURVE",
"322 494 OFFCURVE",
"370 576 OFFCURVE",
"393 593 CURVE",
"412 606 OFFCURVE",
"452 599 OFFCURVE",
"464 590 CURVE",
"476 582 OFFCURVE",
"473 565 OFFCURVE",
"476 545 CURVE",
"480 512 OFFCURVE",
"537 407 OFFCURVE",
"537 407 CURVE",
"537 407 OFFCURVE",
"753 405 OFFCURVE",
"807 406 CURVE",
"831 406 OFFCURVE",
"860 415 OFFCURVE",
"868 409 CURVE",
"876 402 OFFCURVE",
"867 378 OFFCURVE",
"854 367 CURVE",
"842 357 OFFCURVE",
"798 348 OFFCURVE",
"788 352 CURVE",
"779 355 OFFCURVE",
"776 362 OFFCURVE",
"767 363 CURVE",
"727 366 OFFCURVE",
"551 369 OFFCURVE",
"551 369 CURVE",
"551 369 OFFCURVE",
"585 286 OFFCURVE",
"599 243 CURVE",
"613 198 OFFCURVE",
"636 99 OFFCURVE",
"636 99 CURVE",
"636 99 OFFCURVE",
"589 210 OFFCURVE",
"568 255 CURVE",
"549 294 OFFCURVE",
"504 369 OFFCURVE",
"504 369 CURVE",
"504 369 OFFCURVE",
"226 367 OFFCURVE",
"150 365 CURVE",
"111 365 OFFCURVE",
"71 317 OFFCURVE",
"49 306 CURVE",
"42 303 OFFCURVE",
"10 310 OFFCURVE",
"10 310 CURVE"
);
}
);
width = 881;
}
);
unicode = 3042;
},
{
glyphname = "asmall-hira";
lastChange = "2020-04-30 22:25:13 +0000";
layers = (
{
layerId = "1305C52C-0BD1-483E-A343-C05F3AFF2931";
paths = (
{
closed = 1;
nodes = (
"11 418 LINE",
"8 421 OFFCURVE",
"11 434 OFFCURVE",
"15 440 CURVE",
"25 455 OFFCURVE",
"61 510 OFFCURVE",
"79 508 CURVE",
"94 507 OFFCURVE",
"91 464 OFFCURVE",
"106 464 CURVE",
"145 464 OFFCURVE",
"280 463 OFFCURVE",
"310 462 CURVE",
"321 462 OFFCURVE",
"291 437 OFFCURVE",
"291 437 CURVE",
"291 437 OFFCURVE",
"101 438 OFFCURVE",
"56 439 CURVE",
"46 439 OFFCURVE",
"44 426 OFFCURVE",
"36 422 CURVE",
"29 419 OFFCURVE",
"14 414 OFFCURVE",
"11 418 CURVE"
);
},
{
closed = 1;
nodes = (
"254 447 LINE",
"295 449 LINE",
"295 449 OFFCURVE",
"289 407 OFFCURVE",
"280 393 CURVE",
"271 379 OFFCURVE",
"256 362 OFFCURVE",
"240 363 CURVE",
"214 364 OFFCURVE",
"180 399 OFFCURVE",
"165 428 CURVE",
"149 459 OFFCURVE",
"144 530 OFFCURVE",
"169 545 CURVE",
"219 576 OFFCURVE",
"276 540 OFFCURVE",
"330 497 CURVE",
"429 418 OFFCURVE",
"435 311 OFFCURVE",
"435 311 CURVE",
"435 311 OFFCURVE",
"385 412 OFFCURVE",
"338 456 CURVE",
"300 490 OFFCURVE",
"229 529 OFFCURVE",
"201 527 CURVE",
"180 526 OFFCURVE",
"161 505 OFFCURVE",
"164 471 CURVE",
"166 449 OFFCURVE",
"192 399 OFFCURVE",
"229 398 CURVE",
"240 397 OFFCURVE",
"251 409 OFFCURVE",
"254 418 CURVE",
"257 427 OFFCURVE",
"254 447 OFFCURVE",
"254 447 CURVE"
);
}
);
width = 445;
}
);
unicode = 3041;
},
{
glyphname = "i-hira";
lastChange = "2020-04-30 22:25:21 +0000";
layers = (
{
layerId = "1305C52C-0BD1-483E-A343-C05F3AFF2931";
paths = (
{
closed = 1;
nodes = (
"183 334 OFFCURVE",
"214 437 OFFCURVE",
"242 459 CURVE",
"259 472 OFFCURVE",
"287 473 OFFCURVE",
"306 456 CURVE",
"315 449 OFFCURVE",
"310 423 OFFCURVE",
"306 407 CURVE",
"304 397 OFFCURVE",
"300 393 OFFCURVE",
"299 380 CURVE",
"297 366 OFFCURVE",
"315 334 OFFCURVE",
"347 318 CURVE",
"381 300 OFFCURVE",
"462 290 OFFCURVE",
"511 303 CURVE",
"561 316 OFFCURVE",
"618 351 OFFCURVE",
"652 395 CURVE",
"715 475 OFFCURVE",
"713 597 OFFCURVE",
"731 601 CURVE",
"763 607 OFFCURVE",
"737 448 OFFCURVE",
"666 362 CURVE",
"623 311 OFFCURVE",
"550 269 OFFCURVE",
"500 255 CURVE",
"458 243 OFFCURVE",
"407 248 OFFCURVE",
"365 256 CURVE",
"319 265 OFFCURVE",
"220 336 OFFCURVE",
"220 336 CURVE",
"183 334 LINE"
);
},
{
closed = 1;
nodes = (
"10 99 OFFCURVE",
"8 164 OFFCURVE",
"28 207 CURVE",
"38 228 OFFCURVE",
"67 270 OFFCURVE",
"81 279 CURVE",
"91 286 OFFCURVE",
"109 279 OFFCURVE",
"116 273 CURVE",
"124 266 OFFCURVE",
"119 246 OFFCURVE",
"124 239 CURVE",
"129 231 OFFCURVE",
"143 224 OFFCURVE",
"152 223 CURVE",
"260 218 OFFCURVE",
"632 215 OFFCURVE",
"743 214 CURVE",
"765 213 OFFCURVE",
"789 244 OFFCURVE",
"806 243 CURVE",
"831 242 OFFCURVE",
"849 236 OFFCURVE",
"847 217 CURVE",
"844 191 OFFCURVE",
"816 162 OFFCURVE",
"783 164 CURVE",
"758 165 OFFCURVE",
"758 181 OFFCURVE",
"738 181 CURVE",
"638 183 OFFCURVE",
"258 184 OFFCURVE",
"152 185 CURVE",
"133 186 OFFCURVE",
"114 178 OFFCURVE",
"98 169 CURVE",
"74 155 OFFCURVE",
"10 99 OFFCURVE",
"10 99 CURVE"
);
}
);
width = 857;
}
);
unicode = 3044;
},
{
glyphname = "ismall-hira";
lastChange = "2020-04-30 22:25:48 +0000";
layers = (
{
layerId = "1305C52C-0BD1-483E-A343-C05F3AFF2931";
paths = (
{
closed = 1;
nodes = (
"12 308 LINE",
"5 310 OFFCURVE",
"15 352 OFFCURVE",
"24 368 CURVE",
"33 384 OFFCURVE",
"54 402 OFFCURVE",
"66 402 CURVE",
"78 402 OFFCURVE",
"83 370 OFFCURVE",
"96 370 CURVE",
"118 369 OFFCURVE",
"171 368 OFFCURVE",
"197 368 CURVE",
"213 368 OFFCURVE",
"239 394 OFFCURVE",
"239 394 CURVE",
"276 374 LINE",
"276 374 OFFCURVE",
"250 339 OFFCURVE",
"235 338 CURVE",
"198 338 OFFCURVE",
"103 344 OFFCURVE",
"66 343 CURVE",
"44 342 OFFCURVE",
"22 304 OFFCURVE",
"12 308 CURVE"
);
},
{
closed = 1;
nodes = (
"141 441 LINE",
"136 449 OFFCURVE",
"143 474 OFFCURVE",
"151 484 CURVE",
"158 494 OFFCURVE",
"175 501 OFFCURVE",
"185 501 CURVE",
"195 501 OFFCURVE",
"207 490 OFFCURVE",
"207 483 CURVE",
"208 475 OFFCURVE",
"201 465 OFFCURVE",
"201 455 CURVE",
"202 432 OFFCURVE",
"258 390 OFFCURVE",
"305 382 CURVE",
"360 373 OFFCURVE",
"395 400 OFFCURVE",
"400 439 CURVE",
"402 465 OFFCURVE",
"394 522 OFFCURVE",
"394 522 CURVE",
"394 522 OFFCURVE",
"428 476 OFFCURVE",
"426 448 CURVE",
"421 380 OFFCURVE",
"355 354 OFFCURVE",
"312 355 CURVE",
"217 358 OFFCURVE",
"189 413 OFFCURVE",
"165 432 CURVE",
"159 437 OFFCURVE",
"145 435 OFFCURVE",
"141 441 CURVE"
);
}
);
width = 436;
}
);
unicode = 3043;
},
{
glyphname = "u-hira";
lastChange = "2020-04-30 22:25:57 +0000";
layers = (
{
layerId = "1305C52C-0BD1-483E-A343-C05F3AFF2931";
paths = (
{
closed = 1;
nodes = (
"11 261 OFFCURVE",
"23 290 OFFCURVE",
"33 306 CURVE",
"48 328 OFFCURVE",
"74 375 OFFCURVE",
"98 385 CURVE",
"109 390 OFFCURVE",
"132 386 OFFCURVE",
"139 381 CURVE",
"147 375 OFFCURVE",
"150 360 OFFCURVE",
"151 351 CURVE",
"151 342 OFFCURVE",
"145 332 OFFCURVE",
"145 326 CURVE",
"146 320 OFFCURVE",
"158 310 OFFCURVE",
"166 310 CURVE",
"218 310 OFFCURVE",
"450 305 OFFCURVE",
"450 305 CURVE",
"450 305 OFFCURVE",
"366 586 OFFCURVE",
"374 588 CURVE",
"389 590 OFFCURVE",
"484 305 OFFCURVE",
"484 305 CURVE",
"484 305 OFFCURVE",
"661 307 OFFCURVE",
"716 306 CURVE",
"734 306 OFFCURVE",
"766 333 OFFCURVE",
"784 333 CURVE",
"802 334 OFFCURVE",
"814 331 OFFCURVE",
"826 329 CURVE",
"839 327 OFFCURVE",
"848 305 OFFCURVE",
"848 292 CURVE",
"848 280 OFFCURVE",
"810 261 OFFCURVE",
"791 261 CURVE",
"733 261 OFFCURVE",
"497 270 OFFCURVE",
"497 270 CURVE",
"497 270 OFFCURVE",
"507 241 OFFCURVE",
"518 231 CURVE",
"528 220 OFFCURVE",
"548 219 OFFCURVE",
"556 207 CURVE",
"563 196 OFFCURVE",
"566 166 OFFCURVE",
"558 153 CURVE",
"548 137 OFFCURVE",
"517 115 OFFCURVE",
"495 112 CURVE",
"472 109 OFFCURVE",
"433 120 OFFCURVE",
"427 133 CURVE",
"421 148 OFFCURVE",
"420 164 OFFCURVE",
"427 171 CURVE",
"434 179 OFFCURVE",
"448 176 OFFCURVE",
"455 184 CURVE",
"466 196 OFFCURVE",
"456 270 OFFCURVE",
"456 270 CURVE",
"456 270 OFFCURVE",
"236 271 OFFCURVE",
"174 270 CURVE",
"146 270 OFFCURVE",
"114 266 OFFCURVE",
"90 260 CURVE",
"68 255 OFFCURVE",
"41 236 OFFCURVE",
"28 234 CURVE",
"20 233 OFFCURVE",
"10 243 OFFCURVE",
"10 250 CURVE"
);
}
);
width = 858;
}
);
unicode = 3046;
},
{
glyphname = "usmall-hira";
lastChange = "2020-04-30 22:27:35 +0000";
layers = (
{
layerId = "1305C52C-0BD1-483E-A343-C05F3AFF2931";
paths = (
{
closed = 1;
nodes = (
"347 303 LINE",
"342 308 OFFCURVE",
"349 324 OFFCURVE",
"353 332 CURVE",
"356 340 OFFCURVE",
"369 351 OFFCURVE",
"366 359 CURVE",
"359 380 OFFCURVE",
"340 426 OFFCURVE",
"326 459 CURVE",
"309 496 OFFCURVE",
"266 582 OFFCURVE",
"266 582 CURVE",
"266 582 OFFCURVE",
"294 551 OFFCURVE",
"344 476 CURVE",
"364 446 OFFCURVE",
"385 402 OFFCURVE",
"399 383 CURVE",
"407 372 OFFCURVE",
"424 374 OFFCURVE",
"428 366 CURVE",
"433 357 OFFCURVE",
"410 335 OFFCURVE",
"396 325 CURVE",
"383 314 OFFCURVE",
"351 297 OFFCURVE",
"347 303 CURVE"
);
},
{
closed = 1;
nodes = (
"10 402 LINE",
"14 416 OFFCURVE",
"49 470 OFFCURVE",
"66 481 CURVE",
"83 492 OFFCURVE",
"98 459 OFFCURVE",
"114 459 CURVE",
"143 458 OFFCURVE",
"210 457 OFFCURVE",
"237 458 CURVE",
"251 458 OFFCURVE",
"265 464 OFFCURVE",
"277 464 CURVE",
"297 463 OFFCURVE",
"314 455 OFFCURVE",
"314 448 CURVE",
"314 441 OFFCURVE",
"284 433 OFFCURVE",
"271 426 CURVE",
"254 416 OFFCURVE",
"230 403 OFFCURVE",
"215 396 CURVE",
"205 392 OFFCURVE",
"183 387 OFFCURVE",
"183 387 CURVE",
"183 387 OFFCURVE",
"200 402 OFFCURVE",
"208 409 CURVE",
"214 416 OFFCURVE",
"231 434 OFFCURVE",
"231 434 CURVE",
"231 434 OFFCURVE",
"141 432 OFFCURVE",
"114 432 CURVE",
"100 433 OFFCURVE",
"80 430 OFFCURVE",
"68 424 CURVE",
"58 419 OFFCURVE",
"50 407 OFFCURVE",
"41 403 CURVE",
"31 399 OFFCURVE",
"7 392 OFFCURVE",
"10 402 CURVE"
);
}
);
width = 439;
}
);
unicode = 3045;
},
{
glyphname = "e-hira";
lastChange = "2020-04-30 22:31:04 +0000";
layers = (
{
layerId = "1305C52C-0BD1-483E-A343-C05F3AFF2931";
paths = (
{
closed = 1;
nodes = (
"669 152 OFFCURVE",
"645 174 OFFCURVE",
"605 227 CURVE SMOOTH",
"571 272 OFFCURVE",
"550 348 OFFCURVE",
"550 348 CURVE",
"255 346 LINE",
"255 346 OFFCURVE",
"213 260 OFFCURVE",
"196 241 CURVE",
"188 231 OFFCURVE",
"168 226 OFFCURVE",
"156 229 CURVE",
"113 242 OFFCURVE",
"102 292 OFFCURVE",
"78 311 CURVE SMOOTH",
"60 325 OFFCURVE",
"21 276 OFFCURVE",
"13 285 CURVE",
"5 293 OFFCURVE",
"15 347 OFFCURVE",
"24 369 CURVE SMOOTH",
"33 392 OFFCURVE",
"52 416 OFFCURVE",
"68 426 CURVE SMOOTH",
"79 433 OFFCURVE",
"107 437 OFFCURVE",
"118 431 CURVE SMOOTH",
"129 425 OFFCURVE",
"139 401 OFFCURVE",
"151 396 CURVE",
"172 389 OFFCURVE",
"248 384 OFFCURVE",
"248 384 CURVE SMOOTH",
"248 384 OFFCURVE",
"340 547 OFFCURVE",
"424 567 CURVE SMOOTH",
"453 574 OFFCURVE",
"496 573 OFFCURVE",
"523 564 CURVE SMOOTH",
"549 555 OFFCURVE",
"567 534 OFFCURVE",
"578 510 CURVE SMOOTH",
"590 483 OFFCURVE",
"582 465 OFFCURVE",
"583 438 CURVE SMOOTH",
"584 407 OFFCURVE",
"589 379 OFFCURVE",
"589 379 CURVE SMOOTH",
"589 379 OFFCURVE",
"742 378 OFFCURVE",
"786 379 CURVE",
"802 380 OFFCURVE",
"807 399 OFFCURVE",
"830 400 CURVE SMOOTH",
"847 401 OFFCURVE",
"856 401 OFFCURVE",
"858 387 CURVE",
"859 372 OFFCURVE",
"825 338 OFFCURVE",
"809 333 CURVE",
"772 324 OFFCURVE",
"756 348 OFFCURVE",
"742 348 CURVE SMOOTH",
"714 348 OFFCURVE",
"595 347 OFFCURVE",
"595 348 CURVE SMOOTH",
"595 348 OFFCURVE",
"615 277 OFFCURVE",
"632 243 CURVE SMOOTH",
"655 197 OFFCURVE",
"683 169 OFFCURVE",
"724 154 CURVE SMOOTH",
"749 145 OFFCURVE",
"794 148 OFFCURVE",
"794 139 CURVE",
"795 128 OFFCURVE",
"738 123 OFFCURVE",
"712 134 CURVE SMOOTH"
);
},
{
closed = 1;
nodes = (
"179 259 OFFCURVE",
"223 343 OFFCURVE",
"223 343 CURVE SMOOTH",
"223 343 OFFCURVE",
"126 346 OFFCURVE",
"121 327 CURVE SMOOTH",
"117 311 OFFCURVE",
"130 265 OFFCURVE",
"162 261 CURVE SMOOTH"
);
},
{
closed = 1;
nodes = (
"542 379 OFFCURVE",
"521 478 OFFCURVE",
"487 492 CURVE SMOOTH",
"458 504 OFFCURVE",
"422 507 OFFCURVE",
"392 495 CURVE SMOOTH",
"328 469 OFFCURVE",
"278 384 OFFCURVE",
"278 384 CURVE",
"542 380 LINE"
);
}
);
width = 868;
}
);
unicode = 3048;
},
{
glyphname = "esmall-hira";
lastChange = "2020-04-30 22:31:47 +0000";
layers = (
{
layerId = "1305C52C-0BD1-483E-A343-C05F3AFF2931";
paths = (
{
closed = 1;
nodes = (
"10 393 LINE",
"8 400 OFFCURVE",
"15 421 OFFCURVE",
"22 433 CURVE",
"29 446 OFFCURVE",
"44 469 OFFCURVE",
"53 469 CURVE",
"61 469 OFFCURVE",
"67 443 OFFCURVE",
"78 443 CURVE",
"101 443 OFFCURVE",
"170 442 OFFCURVE",
"195 442 CURVE",
"206 443 OFFCURVE",
"221 458 OFFCURVE",
"231 458 CURVE",
"242 458 OFFCURVE",
"252 456 OFFCURVE",
"254 450 CURVE",
"262 417 OFFCURVE",
"222 414 OFFCURVE",
"206 414 CURVE",
"196 414 OFFCURVE",
"193 420 OFFCURVE",
"186 420 CURVE",
"163 421 OFFCURVE",
"95 421 OFFCURVE",
"69 420 CURVE",
"43 419 OFFCURVE",
"43 404 OFFCURVE",
"34 398 CURVE",
"27 394 OFFCURVE",
"12 387 OFFCURVE",
"10 393 CURVE"
);
},
{
closed = 1;
nodes = (
"118 427 LINE",
"118 427 OFFCURVE",
"123 560 OFFCURVE",
"183 557 CURVE",
"233 554 OFFCURVE",
"252 477 OFFCURVE",
"272 433 CURVE",
"337 295 OFFCURVE",
"445 296 OFFCURVE",
"445 296 CURVE",
"445 296 OFFCURVE",
"346 282 OFFCURVE",
"287 368 CURVE",
"254 415 OFFCURVE",
"217 510 OFFCURVE",
"177 510 CURVE",
"136 509 OFFCURVE",
"118 427 OFFCURVE",
"118 427 CURVE"
);
}
);
width = 455;
}
);
unicode = 3047;
},
{
glyphname = "o-hira";
lastChange = "2020-04-30 22:32:49 +0000";
layers = (
{
layerId = "1305C52C-0BD1-483E-A343-C05F3AFF2931";
paths = (
{
closed = 1;
nodes = (
"5 231 OFFCURVE",
"65 300 OFFCURVE",
"84 304 CURVE",
"96 307 OFFCURVE",
"115 309 OFFCURVE",
"126 304 CURVE",
"136 298 OFFCURVE",
"132 268 OFFCURVE",
"145 268 CURVE",
"162 267 OFFCURVE",
"227 267 OFFCURVE",
"227 267 CURVE",
"227 267 OFFCURVE",
"263 359 OFFCURVE",
"343 374 CURVE",
"397 384 OFFCURVE",
"483 387 OFFCURVE",
"537 394 CURVE",
"581 400 OFFCURVE",
"624 440 OFFCURVE",
"622 486 CURVE",
"617 596 OFFCURVE",
"498 634 OFFCURVE",
"500 654 CURVE",
"501 667 OFFCURVE",
"550 653 OFFCURVE",
"574 639 CURVE",
"618 614 OFFCURVE",
"677 549 OFFCURVE",
"677 471 CURVE",
"678 396 OFFCURVE",
"629 327 OFFCURVE",
"566 323 CURVE",
"504 318 OFFCURVE",
"388 325 OFFCURVE",
"336 323 CURVE",
"301 322 OFFCURVE",
"260 267 OFFCURVE",
"260 267 CURVE",
"260 267 OFFCURVE",
"647 264 OFFCURVE",
"745 270 CURVE",
"761 271 OFFCURVE",
"782 285 OFFCURVE",
"804 283 CURVE",
"826 282 OFFCURVE",
"839 271 OFFCURVE",
"842 259 CURVE",
"844 248 OFFCURVE",
"837 228 OFFCURVE",
"822 220 CURVE",
"808 212 OFFCURVE",
"775 213 OFFCURVE",
"760 214 CURVE",
"752 215 OFFCURVE",
"736 229 OFFCURVE",
"719 229 CURVE",
"638 230 OFFCURVE",
"257 233 OFFCURVE",
"257 233 CURVE",
"257 233 OFFCURVE",
"251 198 OFFCURVE",
"290 158 CURVE",
"307 140 OFFCURVE",
"338 126 OFFCURVE",
"356 127 CURVE",
"370 128 OFFCURVE",
"379 140 OFFCURVE",
"397 134 CURVE",
"408 131 OFFCURVE",
"413 92 OFFCURVE",
"407 79 CURVE",
"400 63 OFFCURVE",
"374 42 OFFCURVE",
"350 41 CURVE",
"313 40 OFFCURVE",
"286 67 OFFCURVE",
"281 82 CURVE",
"277 97 OFFCURVE",
"283 103 OFFCURVE",
"278 112 CURVE",
"273 123 OFFCURVE",
"250 143 OFFCURVE",
"240 167 CURVE",
"226 198 OFFCURVE",
"227 234 OFFCURVE",
"227 234 CURVE",
"227 234 OFFCURVE",
"139 235 OFFCURVE",
"118 235 CURVE",
"105 234 OFFCURVE",
"92 217 OFFCURVE",
"79 213 CURVE",
"61 208 OFFCURVE",
"13 198 OFFCURVE",
"10 214 CURVE"
);
}
);
width = 852;
}
);
unicode = 304A;
},
{
glyphname = "osmall-hira";
lastChange = "2020-04-30 22:33:30 +0000";
layers = (
{
layerId = "1305C52C-0BD1-483E-A343-C05F3AFF2931";
paths = (
{
closed = 1;
nodes = (
"12 360 LINE",
"8 363 OFFCURVE",
"12 376 OFFCURVE",
"16 382 CURVE",
"25 397 OFFCURVE",
"56 447 OFFCURVE",
"74 445 CURVE",
"89 444 OFFCURVE",
"92 416 OFFCURVE",
"107 416 CURVE",
"146 416 OFFCURVE",
"304 414 OFFCURVE",
"334 414 CURVE",
"355 414 OFFCURVE",
"309 368 OFFCURVE",
"284 366 CURVE",
"274 365 OFFCURVE",
"273 386 OFFCURVE",
"253 386 CURVE",
"197 388 OFFCURVE",
"104 387 OFFCURVE",
"69 387 CURVE",
"59 387 OFFCURVE",
"45 368 OFFCURVE",
"37 364 CURVE",
"30 361 OFFCURVE",
"15 356 OFFCURVE",
"12 360 CURVE"
);
},
{
closed = 1;
nodes = (
"155 400 LINE",
"156 429 OFFCURVE",
"194 477 OFFCURVE",
"226 477 CURVE",
"257 477 OFFCURVE",
"306 477 OFFCURVE",
"335 478 CURVE",
"362 478 OFFCURVE",
"392 512 OFFCURVE",
"392 536 CURVE",
"393 561 OFFCURVE",
"362 615 OFFCURVE",
"362 615 CURVE",
"362 615 OFFCURVE",
"420 566 OFFCURVE",
"420 534 CURVE",
"421 506 OFFCURVE",
"376 455 OFFCURVE",
"340 455 CURVE",
"302 454 OFFCURVE",
"246 456 OFFCURVE",
"218 455 CURVE",
"195 455 OFFCURVE",
"174 422 OFFCURVE",
"173 401 CURVE",
"172 381 OFFCURVE",
"188 332 OFFCURVE",
"214 332 CURVE",
"239 331 OFFCURVE",
"247 360 OFFCURVE",
"247 372 CURVE",
"248 380 OFFCURVE",
"239 398 OFFCURVE",
"239 398 CURVE",
"300 371 LINE",
"300 371 OFFCURVE",
"277 361 OFFCURVE",
"277 351 CURVE",
"277 333 OFFCURVE",
"252 305 OFFCURVE",
"231 305 CURVE",
"176 306 OFFCURVE",
"154 371 OFFCURVE",
"155 400 CURVE"
);
}
);
width = 430;
}
);
unicode = 3049;
},
{
glyphname = "ka-hira";
lastChange = "2020-04-30 22:33:49 +0000";
layers = (
{
layerId = "1305C52C-0BD1-483E-A343-C05F3AFF2931";
paths = (
{
closed = 1;
nodes = (
"7 494 OFFCURVE",
"12 519 OFFCURVE",
"20 533 CURVE",
"32 555 OFFCURVE",
"68 601 OFFCURVE",
"89 606 CURVE",
"106 609 OFFCURVE",
"124 606 OFFCURVE",
"133 596 CURVE",
"140 588 OFFCURVE",
"132 551 OFFCURVE",
"143 532 CURVE",
"162 501 OFFCURVE",
"240 407 OFFCURVE",
"240 407 CURVE",
"240 407 OFFCURVE",
"277 466 OFFCURVE",
"298 493 CURVE",
"319 520 OFFCURVE",
"357 557 OFFCURVE",
"367 560 CURVE",
"380 564 OFFCURVE",
"393 561 OFFCURVE",
"401 553 CURVE",
"409 545 OFFCURVE",
"404 523 OFFCURVE",
"402 512 CURVE",
"400 502 OFFCURVE",
"390 491 OFFCURVE",
"388 479 CURVE",
"385 462 OFFCURVE",
"381 426 OFFCURVE",
"388 402 CURVE",
"395 378 OFFCURVE",
"404 342 OFFCURVE",
"438 341 CURVE",
"504 339 OFFCURVE",
"515 455 OFFCURVE",
"545 499 CURVE",
"560 521 OFFCURVE",
"589 558 OFFCURVE",
"621 558 CURVE",
"704 558 OFFCURVE",
"735 515 OFFCURVE",
"767 476 CURVE",
"792 446 OFFCURVE",
"810 405 OFFCURVE",
"816 370 CURVE",
"822 335 OFFCURVE",
"812 265 OFFCURVE",
"800 265 CURVE",
"788 265 OFFCURVE",
"798 336 OFFCURVE",
"787 361 CURVE",
"768 406 OFFCURVE",
"744 437 OFFCURVE",
"701 469 CURVE",
"683 482 OFFCURVE",
"654 486 OFFCURVE",
"630 478 CURVE",
"582 461 OFFCURVE",
"539 343 OFFCURVE",
"486 312 CURVE",
"463 299 OFFCURVE",
"426 304 OFFCURVE",
"406 312 CURVE",
"392 317 OFFCURVE",
"367 346 OFFCURVE",
"353 368 CURVE",
"339 389 OFFCURVE",
"321 450 OFFCURVE",
"321 450 CURVE",
"263 377 LINE",
"263 377 OFFCURVE",
"315 297 OFFCURVE",
"340 251 CURVE",
"365 204 OFFCURVE",
"411 95 OFFCURVE",
"396 94 CURVE",
"380 92 OFFCURVE",
"324 242 OFFCURVE",
"244 333 CURVE",
"186 399 OFFCURVE",
"124 453 OFFCURVE",
"85 479 CURVE",
"67 491 OFFCURVE",
"28 477 OFFCURVE",
"17 485 CURVE"
);
},
{
closed = 1;
nodes = (
"579 291 OFFCURVE",
"598 314 OFFCURVE",
"598 330 CURVE",
"599 346 OFFCURVE",
"576 373 OFFCURVE",
"585 380 CURVE",
"590 386 OFFCURVE",
"606 371 OFFCURVE",
"621 364 CURVE",
"634 358 OFFCURVE",
"665 372 OFFCURVE",
"672 360 CURVE",
"679 349 OFFCURVE",
"688 328 OFFCURVE",
"658 300 CURVE",
"634 278 OFFCURVE",
"596 271 OFFCURVE",
"588 280 CURVE"
);
}
);
width = 828;
}
);
unicode = 304B;
},
{
glyphname = "ga-hira";
lastChange = "2020-04-30 22:34:27 +0000";
layers = (
{
layerId = "1305C52C-0BD1-483E-A343-C05F3AFF2931";
paths = (
{
closed = 1;
nodes = (
"1 442 OFFCURVE",
"27 496 OFFCURVE",
"43 518 CURVE",
"59 539 OFFCURVE",
"79 559 OFFCURVE",
"111 560 CURVE",
"144 560 OFFCURVE",
"137 493 OFFCURVE",
"154 467 CURVE",
"181 425 OFFCURVE",
"242 341 OFFCURVE",
"281 289 CURVE",
"374 163 OFFCURVE",
"393 42 OFFCURVE",
"393 42 CURVE",
"393 42 OFFCURVE",
"309 203 OFFCURVE",
"254 270 CURVE",
"157 388 OFFCURVE",
"77 436 OFFCURVE",
"59 435 CURVE",
"44 434 OFFCURVE",
"22 416 OFFCURVE",
"13 427 CURVE"
);
},
{
closed = 1;
nodes = (
"198 481 OFFCURVE",
"239 500 OFFCURVE",
"238 520 CURVE",
"237 540 OFFCURVE",
"203 572 OFFCURVE",
"203 596 CURVE",
"204 621 OFFCURVE",
"234 658 OFFCURVE",
"265 658 CURVE",
"284 659 OFFCURVE",
"315 656 OFFCURVE",
"317 610 CURVE",
"318 597 OFFCURVE",
"314 571 OFFCURVE",
"302 571 CURVE",
"291 571 OFFCURVE",
"281 607 OFFCURVE",
"255 608 CURVE",
"247 608 OFFCURVE",
"236 598 OFFCURVE",
"236 590 CURVE",
"238 546 OFFCURVE",
"292 537 OFFCURVE",
"293 515 CURVE",
"293 490 OFFCURVE",
"211 461 OFFCURVE",
"206 469 CURVE"
);
},
{
closed = 1;
nodes = (
"226 328 OFFCURVE",
"252 383 OFFCURVE",
"303 444 CURVE",
"326 471 OFFCURVE",
"357 517 OFFCURVE",
"390 514 CURVE",
"405 512 OFFCURVE",
"413 487 OFFCURVE",
"412 472 CURVE",
"412 457 OFFCURVE",
"392 440 OFFCURVE",
"389 423 CURVE",
"385 402 OFFCURVE",
"380 365 OFFCURVE",
"389 342 CURVE",
"397 319 OFFCURVE",
"421 286 OFFCURVE",
"440 285 CURVE",
"519 284 OFFCURVE",
"528 513 OFFCURVE",
"627 508 CURVE",
"740 502 OFFCURVE",
"802 386 OFFCURVE",
"818 323 CURVE",
"836 251 OFFCURVE",
"795 203 OFFCURVE",
"795 203 CURVE",
"795 203 OFFCURVE",
"805 268 OFFCURVE",
"794 298 CURVE",
"771 360 OFFCURVE",
"715 429 OFFCURVE",
"659 431 CURVE",
"568 434 OFFCURVE",
"539 251 OFFCURVE",
"443 252 CURVE",
"363 253 OFFCURVE",
"327 399 OFFCURVE",
"327 399 CURVE",
"327 399 OFFCURVE",
"318 402 OFFCURVE",
"292 370 CURVE",
"272 344 OFFCURVE",
"244 311 OFFCURVE",
"240 315 CURVE"
);
},
{
closed = 1;
nodes = (
"576 234 OFFCURVE",
"605 263 OFFCURVE",
"604 280 CURVE",
"603 298 OFFCURVE",
"572 324 OFFCURVE",
"577 330 CURVE",
"582 337 OFFCURVE",
"608 315 OFFCURVE",
"625 313 CURVE",
"642 310 OFFCURVE",
"671 319 OFFCURVE",
"677 307 CURVE",
"683 296 OFFCURVE",
"672 258 OFFCURVE",
"656 244 CURVE",
"640 230 OFFCURVE",
"590 217 OFFCURVE",
"584 225 CURVE"
);
}
);
width = 833;
}
);
unicode = 304C;
},
{
glyphname = "ki-hira";
lastChange = "2020-04-30 22:35:39 +0000";
layers = (
{
layerId = "1305C52C-0BD1-483E-A343-C05F3AFF2931";
paths = (
{
closed = 1;
nodes = (
"7 247 OFFCURVE",
"20 289 OFFCURVE",
"25 304 CURVE",
"29 316 OFFCURVE",
"29 334 OFFCURVE",
"37 343 CURVE",
"52 361 OFFCURVE",
"87 407 OFFCURVE",
"118 412 CURVE",
"139 414 OFFCURVE",
"163 409 OFFCURVE",
"167 394 CURVE",
"172 375 OFFCURVE",
"145 340 OFFCURVE",
"140 315 CURVE",
"135 291 OFFCURVE",
"134 251 OFFCURVE",
"143 231 CURVE",
"152 211 OFFCURVE",
"178 192 OFFCURVE",
"193 193 CURVE",
"219 195 OFFCURVE",
"235 220 OFFCURVE",
"237 243 CURVE",
"242 270 OFFCURVE",
"242 320 OFFCURVE",
"252 350 CURVE",
"263 377 OFFCURVE",
"284 406 OFFCURVE",
"310 415 CURVE",
"384 440 OFFCURVE",
"452 396 OFFCURVE",
"497 370 CURVE",
"528 352 OFFCURVE",
"580 299 OFFCURVE",
"580 299 CURVE",
"580 299 OFFCURVE",
"627 358 OFFCURVE",
"669 420 CURVE",
"687 447 OFFCURVE",
"728 493 OFFCURVE",
"744 601 CURVE",
"752 657 OFFCURVE",
"747 724 OFFCURVE",
"750 724 CURVE",
"764 725 OFFCURVE",
"800 577 OFFCURVE",
"803 527 CURVE",
"806 488 OFFCURVE",
"798 451 OFFCURVE",
"778 420 CURVE",
"732 352 OFFCURVE",
"606 260 OFFCURVE",
"606 260 CURVE",
"606 260 OFFCURVE",
"664 167 OFFCURVE",
"676 118 CURVE",
"687 68 OFFCURVE",
"696 -27 OFFCURVE",
"682 -24 CURVE",
"668 -20 OFFCURVE",
"694 61 OFFCURVE",
"571 208 CURVE",
"551 231 OFFCURVE",
"478 302 OFFCURVE",
"435 326 CURVE",
"409 339 OFFCURVE",
"378 344 OFFCURVE",
"354 335 CURVE",
"302 319 OFFCURVE",
"281 216 OFFCURVE",
"256 185 CURVE",
"229 150 OFFCURVE",
"186 159 OFFCURVE",
"160 165 CURVE",
"108 176 OFFCURVE",
"60 278 OFFCURVE",
"57 278 CURVE",
"47 279 OFFCURVE",
"17 239 OFFCURVE",
"11 243 CURVE"
);
},
{
closed = 1;
nodes = (
"364 124 OFFCURVE",
"369 146 OFFCURVE",
"375 158 CURVE",
"383 170 OFFCURVE",
"404 175 OFFCURVE",
"406 190 CURVE",
"410 211 OFFCURVE",
"350 282 OFFCURVE",
"362 292 CURVE",
"373 301 OFFCURVE",
"479 210 OFFCURVE",
"490 172 CURVE",
"495 151 OFFCURVE",
"467 135 OFFCURVE",
"448 124 CURVE",
"426 112 OFFCURVE",
"374 112 OFFCURVE",
"372 114 CURVE"
);
}
);
width = 814;
}
);
unicode = 304D;
},
{
glyphname = "gi-hira";
lastChange = "2020-04-30 22:36:18 +0000";
layers = (
{
layerId = "1305C52C-0BD1-483E-A343-C05F3AFF2931";
paths = (
{
closed = 1;
nodes = (
"341 156 OFFCURVE",
"392 182 OFFCURVE",
"391 210 CURVE",
"391 236 OFFCURVE",
"339 305 OFFCURVE",
"339 305 CURVE",
"339 305 OFFCURVE",
"377 284 OFFCURVE",
"407 254 CURVE",
"436 224 OFFCURVE",
"466 200 OFFCURVE",
"468 192 CURVE",
"476 155 OFFCURVE",
"364 122 OFFCURVE",
"354 137 CURVE"
);
},
{
closed = 1;
nodes = (
"531 266 OFFCURVE",
"638 399 OFFCURVE",
"671 469 CURVE",
"729 590 OFFCURVE",
"716 702 OFFCURVE",
"716 702 CURVE",
"716 702 OFFCURVE",
"736 658 OFFCURVE",
"742 637 CURVE",
"747 618 OFFCURVE",
"750 596 OFFCURVE",
"754 576 CURVE",
"758 552 OFFCURVE",
"765 515 OFFCURVE",
"763 489 CURVE",
"753 350 OFFCURVE",
"531 266 OFFCURVE",
"531 266 CURVE"
);
},
{
closed = 1;
nodes = (
"11 252 OFFCURVE",
"29 295 OFFCURVE",
"39 316 CURVE",
"48 335 OFFCURVE",
"34 330 OFFCURVE",
"66 373 CURVE",
"77 387 OFFCURVE",
"118 414 OFFCURVE",
"139 413 CURVE",
"152 412 OFFCURVE",
"160 399 OFFCURVE",
"160 386 CURVE",
"160 365 OFFCURVE",
"126 335 OFFCURVE",
"131 287 CURVE",
"133 256 OFFCURVE",
"161 208 OFFCURVE",
"189 209 CURVE",
"280 213 OFFCURVE",
"209 342 OFFCURVE",
"266 388 CURVE",
"315 427 OFFCURVE",
"400 419 OFFCURVE",
"466 376 CURVE",
"678 238 OFFCURVE",
"656 -1 OFFCURVE",
"656 -1 CURVE",
"656 -1 OFFCURVE",
"607 143 OFFCURVE",
"564 205 CURVE",
"520 266 OFFCURVE",
"427 348 OFFCURVE",
"367 350 CURVE",
"254 354 OFFCURVE",
"296 173 OFFCURVE",
"188 178 CURVE",
"112 182 OFFCURVE",
"64 296 OFFCURVE",
"64 296 CURVE",
"11 252 LINE"
);
},
{
closed = 1;
nodes = (
"183 442 OFFCURVE",
"219 464 OFFCURVE",
"219 484 CURVE",
"219 506 OFFCURVE",
"185 538 OFFCURVE",
"185 563 CURVE",
"186 590 OFFCURVE",
"219 623 OFFCURVE",
"255 623 CURVE",
"278 624 OFFCURVE",
"300 601 OFFCURVE",
"301 578 CURVE",
"302 563 OFFCURVE",
"296 534 OFFCURVE",
"287 534 CURVE",
"275 534 OFFCURVE",
"256 577 OFFCURVE",
"245 577 CURVE",
"230 577 OFFCURVE",
"220 563 OFFCURVE",
"220 551 CURVE",
"220 522 OFFCURVE",
"277 492 OFFCURVE",
"276 477 CURVE",
"275 448 OFFCURVE",
"192 426 OFFCURVE",
"188 432 CURVE"
);
}
);
width = 773;
}
);
unicode = 304E;
},
{
glyphname = "ku-hira";
lastChange = "2020-04-30 22:37:45 +0000";
layers = (
{
layerId = "1305C52C-0BD1-483E-A343-C05F3AFF2931";
paths = (
{
closed = 1;
nodes = (
"1 325 OFFCURVE",
"46 411 OFFCURVE",
"68 439 CURVE",
"107 490 OFFCURVE",
"186 475 OFFCURVE",
"189 464 CURVE",
"193 437 OFFCURVE",
"145 372 OFFCURVE",
"146 328 CURVE",
"147 286 OFFCURVE",
"161 234 OFFCURVE",
"196 233 CURVE",
"221 232 OFFCURVE",
"236 302 OFFCURVE",
"236 355 CURVE",
"236 401 OFFCURVE",
"278 470 OFFCURVE",
"319 480 CURVE",
"345 487 OFFCURVE",
"397 498 OFFCURVE",
"458 437 CURVE",
"488 409 OFFCURVE",
"649 211 OFFCURVE",
"649 211 CURVE",
"649 211 OFFCURVE",
"642 508 OFFCURVE",
"641 572 CURVE",
"641 590 OFFCURVE",
"611 615 OFFCURVE",
"612 635 CURVE",
"613 662 OFFCURVE",
"649 712 OFFCURVE",
"668 731 CURVE",
"682 744 OFFCURVE",
"716 742 OFFCURVE",
"729 729 CURVE",
"743 718 OFFCURVE",
"744 674 OFFCURVE",
"737 651 CURVE",
"729 627 OFFCURVE",
"700 609 OFFCURVE",
"688 577 CURVE",
"676 551 OFFCURVE",
"683 298 OFFCURVE",
"690 204 CURVE",
"696 120 OFFCURVE",
"788 55 OFFCURVE",
"790 24 CURVE",
"792 -4 OFFCURVE",
"757 -36 OFFCURVE",
"736 -40 CURVE",
"719 -43 OFFCURVE",
"692 -19 OFFCURVE",
"689 -3 CURVE",
"684 16 OFFCURVE",
"700 41 OFFCURVE",
"689 60 CURVE",
"661 106 OFFCURVE",
"600 203 OFFCURVE",
"551 259 CURVE",
"504 313 OFFCURVE",
"432 378 OFFCURVE",
"393 397 CURVE",
"347 419 OFFCURVE",
"288 362 OFFCURVE",
"281 326 CURVE",
"275 301 OFFCURVE",
"277 281 OFFCURVE",
"269 259 CURVE",
"261 237 OFFCURVE",
"246 194 OFFCURVE",
"192 194 CURVE",
"111 193 OFFCURVE",
"83 327 OFFCURVE",
"75 334 CURVE",
"66 342 OFFCURVE",
"53 312 OFFCURVE",
"42 308 CURVE",
"34 303 OFFCURVE",
"16 298 OFFCURVE",
"11 309 CURVE"
);
},
{
closed = 1;
nodes = (
"352 104 OFFCURVE",
"351 124 OFFCURVE",
"355 132 CURVE",
"362 146 OFFCURVE",
"403 160 OFFCURVE",
"399 189 CURVE",
"395 218 OFFCURVE",
"326 306 OFFCURVE",
"331 313 CURVE",
"337 320 OFFCURVE",
"399 244 OFFCURVE",
"421 232 CURVE",
"442 221 OFFCURVE",
"478 232 OFFCURVE",
"493 227 CURVE",
"504 224 OFFCURVE",
"514 212 OFFCURVE",
"514 201 CURVE",
"515 164 OFFCURVE",
"453 106 OFFCURVE",
"438 105 CURVE",
"412 104 OFFCURVE",
"352 104 OFFCURVE",
"352 104 CURVE"
);
}
);
width = 800;
}
);
unicode = 304F;
},
{
glyphname = "gu-hira";
lastChange = "2020-04-30 22:37:59 +0000";
layers = (
{
layerId = "1305C52C-0BD1-483E-A343-C05F3AFF2931";
paths = (
{
closed = 1;
nodes = (
"173 496 OFFCURVE",
"209 516 OFFCURVE",
"209 537 CURVE",
"209 573 OFFCURVE",
"173 592 OFFCURVE",
"173 611 CURVE",
"174 636 OFFCURVE",
"208 674 OFFCURVE",
"247 676 CURVE",
"262 676 OFFCURVE",
"277 666 OFFCURVE",
"280 653 CURVE",
"287 629 OFFCURVE",
"284 588 OFFCURVE",
"274 588 CURVE",
"264 588 OFFCURVE",
"255 627 OFFCURVE",
"227 628 CURVE",
"217 628 OFFCURVE",
"208 614 OFFCURVE",
"207 603 CURVE",
"207 573 OFFCURVE",
"258 551 OFFCURVE",
"258 529 CURVE",
"258 494 OFFCURVE",
"184 481 OFFCURVE",
"179 488 CURVE"
);
},
{
closed = 1;
nodes = (
"10 311 OFFCURVE",
"34 393 OFFCURVE",
"64 430 CURVE",
"78 447 OFFCURVE",
"105 458 OFFCURVE",
"121 458 CURVE",
"140 458 OFFCURVE",
"164 454 OFFCURVE",
"164 438 CURVE",
"164 417 OFFCURVE",
"122 392 OFFCURVE",
"120 334 CURVE",
"119 302 OFFCURVE",
"136 241 OFFCURVE",
"170 244 CURVE",
"230 248 OFFCURVE",
"170 470 OFFCURVE",
"316 464 CURVE",
"397 462 OFFCURVE",
"568 217 OFFCURVE",
"568 217 CURVE",
"568 217 OFFCURVE",
"555 336 OFFCURVE",
"555 392 CURVE",
"554 446 OFFCURVE",
"566 501 OFFCURVE",
"564 537 CURVE",
"562 554 OFFCURVE",
"536 576 OFFCURVE",
"537 599 CURVE",
"539 629 OFFCURVE",
"582 689 OFFCURVE",
"607 688 CURVE",
"626 688 OFFCURVE",
"644 662 OFFCURVE",
"643 642 CURVE",
"642 619 OFFCURVE",
"608 583 OFFCURVE",
"601 551 CURVE",
"591 508 OFFCURVE",
"583 445 OFFCURVE",
"583 390 CURVE",
"584 254 OFFCURVE",
"605 200 OFFCURVE",
"628 150 CURVE",
"643 119 OFFCURVE",
"682 90 OFFCURVE",
"682 66 CURVE",
"682 46 OFFCURVE",
"655 14 OFFCURVE",
"640 13 CURVE",
"624 13 OFFCURVE",
"595 33 OFFCURVE",
"594 46 CURVE",
"593 62 OFFCURVE",
"607 76 OFFCURVE",
"603 89 CURVE",
"592 124 OFFCURVE",
"525 209 OFFCURVE",
"480 264 CURVE",
"436 319 OFFCURVE",
"369 396 OFFCURVE",
"321 396 CURVE",
"193 398 OFFCURVE",
"264 217 OFFCURVE",
"171 216 CURVE",
"90 214 OFFCURVE",
"68 343 OFFCURVE",
"68 343 CURVE",
"68 343 OFFCURVE",
"52 326 OFFCURVE",
"42 321 CURVE",
"33 315 OFFCURVE",
"10 311 OFFCURVE",
"10 311 CURVE"
);
},
{
closed = 1;
nodes = (
"288 157 OFFCURVE",
"361 183 OFFCURVE",
"349 208 CURVE",
"334 237 OFFCURVE",
"288 314 OFFCURVE",
"288 314 CURVE",
"288 314 OFFCURVE",
"335 270 OFFCURVE",
"355 251 CURVE",
"374 233 OFFCURVE",
"426 248 OFFCURVE",
"436 233 CURVE",
"447 216 OFFCURVE",
"421 169 OFFCURVE",
"400 153 CURVE",
"378 137 OFFCURVE",
"314 125 OFFCURVE",
"305 136 CURVE"
);
}
);
width = 692;
}
);
unicode = 3050;
},
{
glyphname = "ke-hira";
lastChange = "2020-04-30 22:40:00 +0000";
layers = (
{
layerId = "1305C52C-0BD1-483E-A343-C05F3AFF2931";
paths = (
{
closed = 1;
nodes = (
"310 406 OFFCURVE",
"334 572 OFFCURVE",
"359 613 CURVE",
"380 648 OFFCURVE",
"400 657 OFFCURVE",
"435 656 CURVE",
"475 655 OFFCURVE",
"496 630 OFFCURVE",
"509 598 CURVE",
"527 556 OFFCURVE",
"518 513 OFFCURVE",
"580 426 CURVE",
"609 384 OFFCURVE",
"657 347 OFFCURVE",
"700 330 CURVE",
"775 301 OFFCURVE",
"865 345 OFFCURVE",
"868 335 CURVE",
"873 322 OFFCURVE",
"764 299 OFFCURVE",
"687 307 CURVE",
"622 313 OFFCURVE",
"582 344 OFFCURVE",
"525 403 CURVE",
"470 459 OFFCURVE",
"443 554 OFFCURVE",
"422 552 CURVE",
"367 548 OFFCURVE",
"359 436 OFFCURVE",
"296 383 CURVE",
"279 370 OFFCURVE",
"253 363 OFFCURVE",
"231 363 CURVE",
"191 362 OFFCURVE",
"103 365 OFFCURVE",
"73 366 CURVE",
"53 367 OFFCURVE",
"36 350 OFFCURVE",
"36 331 CURVE",
"36 300 OFFCURVE",
"82 266 OFFCURVE",
"105 262 CURVE",
"123 259 OFFCURVE",
"145 257 OFFCURVE",
"157 258 CURVE",
"167 259 OFFCURVE",
"173 266 OFFCURVE",
"188 265 CURVE",
"201 265 OFFCURVE",
"215 254 OFFCURVE",
"215 242 CURVE",
"215 226 OFFCURVE",
"186 183 OFFCURVE",
"166 177 CURVE",
"147 172 OFFCURVE",
"118 170 OFFCURVE",
"114 177 CURVE",
"109 186 OFFCURVE",
"127 194 OFFCURVE",
"126 202 CURVE",
"125 214 OFFCURVE",
"13 252 OFFCURVE",
"10 323 CURVE",
"8 371 OFFCURVE",
"52 394 OFFCURVE",
"74 395 CURVE",
"107 396 OFFCURVE",
"191 389 OFFCURVE",
"229 394 CURVE"
);
},
{
closed = 1;
nodes = (
"218 195 OFFCURVE",
"254 270 OFFCURVE",
"289 287 CURVE",
"302 293 OFFCURVE",
"325 289 OFFCURVE",
"334 283 CURVE",
"343 276 OFFCURVE",
"341 255 OFFCURVE",
"339 243 CURVE",
"336 227 OFFCURVE",
"317 213 OFFCURVE",
"317 186 CURVE",
"317 167 OFFCURVE",
"333 131 OFFCURVE",
"376 135 CURVE",
"434 139 OFFCURVE",
"402 206 OFFCURVE",
"437 233 CURVE",
"459 251 OFFCURVE",
"498 248 OFFCURVE",
"521 245 CURVE",
"592 236 OFFCURVE",
"688 113 OFFCURVE",
"667 96 CURVE",
"658 90 OFFCURVE",
"600 187 OFFCURVE",
"513 183 CURVE",
"427 179 OFFCURVE",
"433 107 OFFCURVE",
"367 101 CURVE",
"339 98 OFFCURVE",
"302 112 OFFCURVE",
"289 131 CURVE",
"276 149 OFFCURVE",
"272 180 OFFCURVE",
"261 188 CURVE",
"251 196 OFFCURVE",
"240 169 OFFCURVE",
"232 179 CURVE"
);
},
{
closed = 1;
nodes = (
"437 57 OFFCURVE",
"458 68 OFFCURVE",
"461 81 CURVE",
"467 103 OFFCURVE",
"439 123 OFFCURVE",
"445 127 CURVE",
"453 132 OFFCURVE",
"466 120 OFFCURVE",
"476 119 CURVE",
"491 117 OFFCURVE",
"512 121 OFFCURVE",
"522 106 CURVE",
"529 97 OFFCURVE",
"517 70 OFFCURVE",
"505 59 CURVE",
"492 49 OFFCURVE",
"452 39 OFFCURVE",
"446 46 CURVE"
);
}
);
width = 878;
}
);
unicode = 3051;
},
{
glyphname = "ge-hira";
lastChange = "2020-04-30 22:40:41 +0000";
layers = (
{
layerId = "1305C52C-0BD1-483E-A343-C05F3AFF2931";
paths = (
{
closed = 1;
nodes = (
"433 56 OFFCURVE",
"466 71 OFFCURVE",
"466 84 CURVE",
"466 97 OFFCURVE",
"445 123 OFFCURVE",
"445 123 CURVE",
"445 123 OFFCURVE",
"466 113 OFFCURVE",
"476 113 CURVE",
"490 112 OFFCURVE",
"513 114 OFFCURVE",
"520 105 CURVE",
"526 96 OFFCURVE",
"518 70 OFFCURVE",
"504 60 CURVE",
"490 50 OFFCURVE",
"441 40 OFFCURVE",
"437 48 CURVE"
);
},
{
closed = 1;
nodes = (
"229 173 OFFCURVE",
"238 232 OFFCURVE",
"262 260 CURVE",
"280 281 OFFCURVE",
"325 292 OFFCURVE",
"335 279 CURVE",
"349 260 OFFCURVE",
"317 211 OFFCURVE",
"317 186 CURVE",
"318 160 OFFCURVE",
"344 130 OFFCURVE",
"371 130 CURVE",
"440 131 OFFCURVE",
"398 252 OFFCURVE",
"484 250 CURVE",
"607 246 OFFCURVE",
"671 94 OFFCURVE",
"671 94 CURVE",
"671 94 OFFCURVE",
"573 181 OFFCURVE",
"523 180 CURVE",
"440 180 OFFCURVE",
"416 96 OFFCURVE",
"368 95 CURVE",
"269 92 OFFCURVE",
"261 198 OFFCURVE",
"261 198 CURVE",
"229 173 LINE"
);
},
{
closed = 1;
nodes = (
"103 184 OFFCURVE",
"130 194 OFFCURVE",
"124 203 CURVE",
"117 215 OFFCURVE",
"81 228 OFFCURVE",
"63 243 CURVE",
"31 269 OFFCURVE",
"9 302 OFFCURVE",
"10 330 CURVE",
"11 359 OFFCURVE",
"46 395 OFFCURVE",
"123 393 CURVE",
"301 388 OFFCURVE",
"288 421 OFFCURVE",
"323 519 CURVE",
"349 589 OFFCURVE",
"372 655 OFFCURVE",
"431 655 CURVE",
"501 655 OFFCURVE",
"522 568 OFFCURVE",
"546 479 CURVE",
"558 436 OFFCURVE",
"632 333 OFFCURVE",
"717 327 CURVE",
"766 324 OFFCURVE",
"868 336 OFFCURVE",
"868 336 CURVE",
"868 336 OFFCURVE",
"762 298 OFFCURVE",
"709 300 CURVE",
"524 306 OFFCURVE",
"464 552 OFFCURVE",
"422 552 CURVE",
"343 552 OFFCURVE",
"404 348 OFFCURVE",
"138 364 CURVE",
"104 366 OFFCURVE",
"40 376 OFFCURVE",
"40 331 CURVE",
"40 289 OFFCURVE",
"97 255 OFFCURVE",
"128 256 CURVE",
"155 257 OFFCURVE",
"204 269 OFFCURVE",
"210 251 CURVE",
"227 197 OFFCURVE",
"119 159 OFFCURVE",
"109 175 CURVE"
);
},
{
closed = 1;
nodes = (
"158 451 OFFCURVE",
"198 476 OFFCURVE",
"198 498 CURVE",
"197 522 OFFCURVE",
"166 548 OFFCURVE",
"166 576 CURVE",
"166 602 OFFCURVE",
"203 634 OFFCURVE",
"228 636 CURVE",
"248 638 OFFCURVE",
"277 614 OFFCURVE",
"278 595 CURVE",
"278 577 OFFCURVE",
"269 550 OFFCURVE",
"260 549 CURVE",
"251 548 OFFCURVE",
"236 590 OFFCURVE",
"222 591 CURVE",
"212 591 OFFCURVE",
"196 580 OFFCURVE",
"196 565 CURVE",
"197 546 OFFCURVE",
"249 509 OFFCURVE",
"249 487 CURVE",
"249 466 OFFCURVE",
"171 434 OFFCURVE",
"164 442 CURVE"
);
}
);
width = 878;
}
);
unicode = 3052;
},
{
glyphname = "ko-hira";
lastChange = "2020-04-30 22:41:02 +0000";
layers = (
{
layerId = "1305C52C-0BD1-483E-A343-C05F3AFF2931";
paths = (
{
closed = 1;
nodes = (
"3 194 OFFCURVE",
"37 259 OFFCURVE",
"44 278 CURVE",
"47 286 OFFCURVE",
"49 306 OFFCURVE",
"56 317 CURVE",
"65 333 OFFCURVE",
"82 360 OFFCURVE",
"95 369 CURVE",
"105 376 OFFCURVE",
"128 376 OFFCURVE",
"141 365 CURVE",
"151 355 OFFCURVE",
"159 321 OFFCURVE",
"159 321 CURVE",
"159 321 OFFCURVE",
"161 288 OFFCURVE",
"167 271 CURVE",
"177 247 OFFCURVE",
"198 184 OFFCURVE",
"230 184 CURVE",
"255 184 OFFCURVE",
"251 219 OFFCURVE",
"247 237 CURVE",
"242 258 OFFCURVE",
"222 295 OFFCURVE",
"223 317 CURVE",
"224 352 OFFCURVE",
"251 393 OFFCURVE",
"274 398 CURVE",
"294 401 OFFCURVE",
"312 401 OFFCURVE",
"329 394 CURVE",
"377 371 OFFCURVE",
"396 279 OFFCURVE",
"433 234 CURVE",
"469 192 OFFCURVE",
"545 119 OFFCURVE",
"555 124 CURVE",
"562 129 OFFCURVE",
"499 193 OFFCURVE",
"501 233 CURVE",
"505 328 OFFCURVE",
"648 394 OFFCURVE",
"680 452 CURVE",
"701 489 OFFCURVE",
"694 545 OFFCURVE",
"687 584 CURVE",
"678 635 OFFCURVE",
"615 667 OFFCURVE",
"626 683 CURVE",
"638 698 OFFCURVE",
"783 582 OFFCURVE",
"780 470 CURVE",
"780 301 OFFCURVE",
"555 328 OFFCURVE",
"544 223 CURVE",
"540 188 OFFCURVE",
"570 152 OFFCURVE",
"599 131 CURVE",
"635 104 OFFCURVE",
"749 86 OFFCURVE",
"765 61 CURVE",
"777 41 OFFCURVE",
"723 14 OFFCURVE",
"705 16 CURVE",
"642 25 OFFCURVE",
"542 94 OFFCURVE",
"462 164 CURVE",
"376 241 OFFCURVE",
"335 317 OFFCURVE",
"304 318 CURVE",
"283 319 OFFCURVE",
"273 301 OFFCURVE",
"271 286 CURVE",
"269 262 OFFCURVE",
"275 202 OFFCURVE",
"268 180 CURVE",
"262 163 OFFCURVE",
"236 149 OFFCURVE",
"219 150 CURVE",
"182 153 OFFCURVE",
"112 257 OFFCURVE",
"98 258 CURVE",
"72 259 OFFCURVE",
"20 187 OFFCURVE",
"12 190 CURVE"
);
},
{
closed = 1;
nodes = (
"302 57 OFFCURVE",
"337 72 OFFCURVE",
"341 86 CURVE",
"344 97 OFFCURVE",
"343 118 OFFCURVE",
"338 131 CURVE",
"331 148 OFFCURVE",
"299 193 OFFCURVE",
"308 201 CURVE",
"319 211 OFFCURVE",
"354 152 OFFCURVE",
"378 143 CURVE",
"402 134 OFFCURVE",
"432 140 OFFCURVE",
"445 133 CURVE",
"456 128 OFFCURVE",
"457 104 OFFCURVE",
"451 94 CURVE",
"441 77 OFFCURVE",
"410 48 OFFCURVE",
"390 42 CURVE",
"373 37 OFFCURVE",
"357 30 OFFCURVE",
"348 37 CURVE",
"345 40 OFFCURVE",
"338 45 OFFCURVE",
"334 47 CURVE",
"328 49 OFFCURVE",
"306 46 OFFCURVE",
"304 51 CURVE"
);
}
);
width = 790;
}
);
unicode = 3053;
},
{
glyphname = "go-hira";
lastChange = "2020-04-30 22:41:50 +0000";
layers = (
{
layerId = "1305C52C-0BD1-483E-A343-C05F3AFF2931";
paths = (
{
closed = 1;
nodes = (
"10 197 OFFCURVE",
"47 304 OFFCURVE",
"64 333 CURVE",
"74 349 OFFCURVE",
"91 368 OFFCURVE",
"111 368 CURVE",
"156 367 OFFCURVE",
"148 198 OFFCURVE",
"215 200 CURVE",
"231 200 OFFCURVE",
"232 213 OFFCURVE",
"232 225 CURVE",
"230 247 OFFCURVE",
"204 292 OFFCURVE",
"206 321 CURVE",
"208 348 OFFCURVE",
"238 394 OFFCURVE",
"270 395 CURVE",
"325 397 OFFCURVE",
"361 293 OFFCURVE",
"394 247 CURVE",
"436 189 OFFCURVE",
"502 148 OFFCURVE",
"502 148 CURVE",
"502 148 OFFCURVE",
"466 207 OFFCURVE",
"465 239 CURVE",
"464 354 OFFCURVE",
"640 362 OFFCURVE",
"642 498 CURVE",
"642 611 OFFCURVE",
"579 654 OFFCURVE",
"579 654 CURVE",
"579 654 OFFCURVE",
"726 552 OFFCURVE",
"723 447 CURVE",
"720 333 OFFCURVE",
"503 310 OFFCURVE",
"504 232 CURVE",
"505 120 OFFCURVE",
"674 115 OFFCURVE",
"706 81 CURVE",
"723 64 OFFCURVE",
"665 48 OFFCURVE",
"643 47 CURVE",
"581 43 OFFCURVE",
"405 185 OFFCURVE",
"331 274 CURVE",
"305 305 OFFCURVE",
"288 320 OFFCURVE",
"274 319 CURVE",
"234 317 OFFCURVE",
"252 268 OFFCURVE",
"252 240 CURVE",
"252 212 OFFCURVE",
"235 169 OFFCURVE",
"202 170 CURVE",
"158 171 OFFCURVE",
"115 261 OFFCURVE",
"88 262 CURVE",
"55 262 OFFCURVE",
"10 197 OFFCURVE",
"10 197 CURVE"
);
},
{
closed = 1;
nodes = (
"289 89 OFFCURVE",
"325 96 OFFCURVE",
"323 112 CURVE",
"322 134 OFFCURVE",
"284 209 OFFCURVE",
"284 209 CURVE",
"284 209 OFFCURVE",
"334 165 OFFCURVE",
"357 155 CURVE",
"376 147 OFFCURVE",
"416 157 OFFCURVE",
"421 145 CURVE",
"427 133 OFFCURVE",
"407 90 OFFCURVE",
"387 79 CURVE",
"366 67 OFFCURVE",
"299 57 OFFCURVE",
"293 76 CURVE"
);
},
{
closed = 1;
nodes = (
"389 383 OFFCURVE",
"420 401 OFFCURVE",
"421 418 CURVE",
"421 447 OFFCURVE",
"390 470 OFFCURVE",
"390 493 CURVE",
"391 517 OFFCURVE",
"422 549 OFFCURVE",
"446 548 CURVE",
"468 547 OFFCURVE",
"495 521 OFFCURVE",
"495 507 CURVE",
"496 490 OFFCURVE",
"490 468 OFFCURVE",
"479 468 CURVE",
"468 468 OFFCURVE",
"463 502 OFFCURVE",
"443 502 CURVE",
"430 503 OFFCURVE",
"420 498 OFFCURVE",
"420 484 CURVE",
"420 456 OFFCURVE",
"469 430 OFFCURVE",
"470 414 CURVE",
"470 390 OFFCURVE",
"395 367 OFFCURVE",
"392 375 CURVE"
);
}
);
width = 733;
}
);
unicode = 3054;
},
{
glyphname = "sa-hira";
lastChange = "2020-04-30 22:45:40 +0000";
layers = (
{
layerId = "1305C52C-0BD1-483E-A343-C05F3AFF2931";
paths = (
{
closed = 1;
nodes = (
"6 477 OFFCURVE",
"10 524 OFFCURVE",
"22 541 CURVE",
"36 564 OFFCURVE",
"83 592 OFFCURVE",
"104 594 CURVE",
"124 597 OFFCURVE",
"149 570 OFFCURVE",
"153 555 CURVE",
"157 540 OFFCURVE",
"125 520 OFFCURVE",
"128 499 CURVE",
"133 464 OFFCURVE",
"177 388 OFFCURVE",
"220 329 CURVE",
"256 279 OFFCURVE",
"337 117 OFFCURVE",
"323 107 CURVE",
"308 97 OFFCURVE",
"294 170 OFFCURVE",
"246 240 CURVE",
"216 283 OFFCURVE",
"170 331 OFFCURVE",
"139 372 CURVE",
"111 409 OFFCURVE",
"83 464 OFFCURVE",
"60 477 CURVE",
"41 486 OFFCURVE",
"23 463 OFFCURVE",
"14 470 CURVE"
);
},
{
closed = 1;
nodes = (
"240 352 OFFCURVE",
"315 312 OFFCURVE",
"319 318 CURVE",
"323 326 OFFCURVE",
"294 366 OFFCURVE",
"280 388 CURVE",
"272 400 OFFCURVE",
"241 429 OFFCURVE",
"237 446 CURVE",
"234 461 OFFCURVE",
"245 478 OFFCURVE",
"252 484 CURVE",
"258 490 OFFCURVE",
"279 483 OFFCURVE",
"285 480 CURVE",
"294 474 OFFCURVE",
"347 379 OFFCURVE",
"405 384 CURVE",
"452 388 OFFCURVE",
"452 504 OFFCURVE",
"510 530 CURVE",
"526 537 OFFCURVE",
"552 536 OFFCURVE",
"567 527 CURVE",
"634 488 OFFCURVE",
"587 428 OFFCURVE",
"641 322 CURVE",
"653 297 OFFCURVE",
"680 260 OFFCURVE",
"738 228 CURVE",
"763 215 OFFCURVE",
"813 223 OFFCURVE",
"823 224 CURVE",
"841 226 OFFCURVE",
"874 233 OFFCURVE",
"876 225 CURVE",
"882 208 OFFCURVE",
"779 190 OFFCURVE",
"724 198 CURVE",
"650 210 OFFCURVE",
"600 285 OFFCURVE",
"575 325 CURVE",
"553 362 OFFCURVE",
"539 435 OFFCURVE",
"514 437 CURVE",
"470 440 OFFCURVE",
"460 351 OFFCURVE",
"424 350 CURVE",
"367 349 OFFCURVE",
"294 412 OFFCURVE",
"294 412 CURVE",
"294 412 OFFCURVE",
"335 355 OFFCURVE",
"358 334 CURVE",
"378 315 OFFCURVE",
"421 316 OFFCURVE",
"427 291 CURVE",
"431 272 OFFCURVE",
"412 255 OFFCURVE",
"387 242 CURVE",
"372 235 OFFCURVE",
"343 231 OFFCURVE",
"336 237 CURVE",
"327 244 OFFCURVE",
"335 255 OFFCURVE",
"330 265 CURVE",
"324 278 OFFCURVE",
"305 292 OFFCURVE",
"290 303 CURVE",
"273 315 OFFCURVE",
"230 330 OFFCURVE",
"235 341 CURVE"
);
}
);
width = 886;
}
);
unicode = 3055;
},
{
glyphname = "za-hira";
lastChange = "2020-04-30 22:45:52 +0000";
layers = (
{
layerId = "1305C52C-0BD1-483E-A343-C05F3AFF2931";
paths = (
{
closed = 1;
nodes = (
"6 437 OFFCURVE",
"13 479 OFFCURVE",
"26 499 CURVE",
"42 521 OFFCURVE",
"89 556 OFFCURVE",
"110 556 CURVE",
"131 556 OFFCURVE",
"149 529 OFFCURVE",
"150 514 CURVE",
"151 499 OFFCURVE",
"123 474 OFFCURVE",
"128 458 CURVE",
"144 404 OFFCURVE",
"174 346 OFFCURVE",
"211 299 CURVE",
"283 205 OFFCURVE",
"325 62 OFFCURVE",
"325 62 CURVE",
"325 62 OFFCURVE",
"278 140 OFFCURVE",
"256 178 CURVE",
"226 229 OFFCURVE",
"166 297 OFFCURVE",
"130 339 CURVE",
"93 382 OFFCURVE",
"73 444 OFFCURVE",
"57 445 CURVE",
"42 445 OFFCURVE",
"22 418 OFFCURVE",
"13 429 CURVE"
);
},
{
closed = 1;
nodes = (
"324 460 OFFCURVE",
"366 494 OFFCURVE",
"365 511 CURVE",
"364 532 OFFCURVE",
"328 561 OFFCURVE",
"329 584 CURVE",
"329 608 OFFCURVE",
"362 640 OFFCURVE",
"394 638 CURVE",
"415 638 OFFCURVE",
"440 608 OFFCURVE",
"440 593 CURVE",
"439 580 OFFCURVE",
"435 558 OFFCURVE",
"426 559 CURVE",
"417 560 OFFCURVE",
"403 597 OFFCURVE",
"385 597 CURVE",
"374 596 OFFCURVE",
"359 586 OFFCURVE",
"359 573 CURVE",
"359 536 OFFCURVE",
"415 517 OFFCURVE",
"416 497 CURVE",
"416 477 OFFCURVE",
"343 443 OFFCURVE",
"330 454 CURVE"
);
},
{
closed = 1;
nodes = (
"166 339 OFFCURVE",
"193 342 OFFCURVE",
"206 335 CURVE",
"222 327 OFFCURVE",
"234 307 OFFCURVE",
"260 291 CURVE",
"302 265 OFFCURVE",
"329 258 OFFCURVE",
"329 258 CURVE",
"329 258 OFFCURVE",
"309 306 OFFCURVE",
"293 331 CURVE",
"278 357 OFFCURVE",
"238 392 OFFCURVE",
"236 412 CURVE",
"234 430 OFFCURVE",
"249 447 OFFCURVE",
"265 447 CURVE",
"290 447 OFFCURVE",
"338 346 OFFCURVE",
"403 343 CURVE",
"455 341 OFFCURVE",
"456 493 OFFCURVE",
"544 494 CURVE",
"586 494 OFFCURVE",
"607 416 OFFCURVE",
"610 373 CURVE",
"615 315 OFFCURVE",
"680 196 OFFCURVE",
"779 184 CURVE",
"815 179 OFFCURVE",
"877 180 OFFCURVE",
"877 180 CURVE",
"877 180 OFFCURVE",
"749 138 OFFCURVE",
"689 166 CURVE",
"580 217 OFFCURVE",
"546 398 OFFCURVE",
"515 398 CURVE",
"464 399 OFFCURVE",
"445 312 OFFCURVE",
"412 312 CURVE",
"376 312 OFFCURVE",
"290 375 OFFCURVE",
"290 375 CURVE",
"290 375 OFFCURVE",
"331 308 OFFCURVE",
"354 286 CURVE",
"374 268 OFFCURVE",
"426 265 OFFCURVE",
"427 247 CURVE",
"429 209 OFFCURVE",
"351 185 OFFCURVE",
"337 193 CURVE",
"330 197 OFFCURVE",
"343 212 OFFCURVE",
"337 218 CURVE",
"319 239 OFFCURVE",
"206 297 OFFCURVE",
"206 297 CURVE",
"166 339 LINE"
);
}
);
width = 887;
}
);
unicode = 3056;
},
{
glyphname = "si-hira";
lastChange = "2020-04-30 22:46:29 +0000";
layers = (
{
layerId = "1305C52C-0BD1-483E-A343-C05F3AFF2931";
paths = (
{
closed = 1;
nodes = (
"217 141 OFFCURVE",
"235 166 OFFCURVE",
"240 181 CURVE",
"244 196 OFFCURVE",
"244 219 OFFCURVE",
"251 232 CURVE",
"257 244 OFFCURVE",
"271 258 OFFCURVE",
"282 258 CURVE",
"299 258 OFFCURVE",
"302 221 OFFCURVE",
"313 205 CURVE",
"327 185 OFFCURVE",
"388 134 OFFCURVE",
"382 127 CURVE",
"375 119 OFFCURVE",
"302 170 OFFCURVE",
"290 169 CURVE",
"277 168 OFFCURVE",
"241 130 OFFCURVE",
"224 138 CURVE"
);
},
{
closed = 1;
nodes = (
"398 109 OFFCURVE",
"417 111 OFFCURVE",
"417 123 CURVE",
"418 140 OFFCURVE",
"390 197 OFFCURVE",
"391 215 CURVE",
"392 230 OFFCURVE",
"398 241 OFFCURVE",
"409 240 CURVE",
"428 239 OFFCURVE",
"473 187 OFFCURVE",
"501 188 CURVE",
"528 188 OFFCURVE",
"543 241 OFFCURVE",
"580 241 CURVE",
"597 241 OFFCURVE",
"612 229 OFFCURVE",
"613 205 CURVE",
"615 188 OFFCURVE",
"594 171 OFFCURVE",
"596 144 CURVE",
"602 46 OFFCURVE",
"724 43 OFFCURVE",
"725 30 CURVE",
"725 17 OFFCURVE",
"654 25 OFFCURVE",
"600 66 CURVE",
"555 101 OFFCURVE",
"557 163 OFFCURVE",
"550 171 CURVE",
"546 177 OFFCURVE",
"527 151 OFFCURVE",
"512 150 CURVE",
"494 149 OFFCURVE",
"449 183 OFFCURVE",
"440 172 CURVE",
"429 159 OFFCURVE",
"488 130 OFFCURVE",
"488 113 CURVE",
"489 96 OFFCURVE",
"450 72 OFFCURVE",
"440 72 CURVE",
"425 72 OFFCURVE",
"399 81 OFFCURVE",
"398 95 CURVE"
);
},
{
closed = 1;
nodes = (
"0 234 OFFCURVE",
"21 296 OFFCURVE",
"31 324 CURVE",
"40 349 OFFCURVE",
"61 379 OFFCURVE",
"75 388 CURVE",
"86 396 OFFCURVE",
"106 391 OFFCURVE",
"114 384 CURVE",
"123 377 OFFCURVE",
"120 359 OFFCURVE",
"128 349 CURVE",
"134 341 OFFCURVE",
"146 336 OFFCURVE",
"156 336 CURVE",
"262 333 OFFCURVE",
"645 326 OFFCURVE",
"758 327 CURVE",
"774 328 OFFCURVE",
"797 358 OFFCURVE",
"828 358 CURVE",
"846 358 OFFCURVE",
"855 336 OFFCURVE",
"851 322 CURVE",
"841 278 OFFCURVE",
"801 275 OFFCURVE",
"780 276 CURVE",
"761 276 OFFCURVE",
"741 292 OFFCURVE",
"732 293 CURVE",
"697 293 OFFCURVE",
"263 296 OFFCURVE",
"159 294 CURVE",
"138 294 OFFCURVE",
"107 282 OFFCURVE",
"85 271 CURVE",
"60 259 OFFCURVE",
"26 217 OFFCURVE",
"15 224 CURVE"
);
},
{
closed = 1;
nodes = (
"223 497 OFFCURVE",
"248 530 OFFCURVE",
"268 542 CURVE",
"306 566 OFFCURVE",
"348 578 OFFCURVE",
"369 559 CURVE",
"387 541 OFFCURVE",
"342 518 OFFCURVE",
"350 493 CURVE",
"361 460 OFFCURVE",
"417 427 OFFCURVE",
"462 429 CURVE",
"571 434 OFFCURVE",
"628 559 OFFCURVE",
"639 612 CURVE",
"643 636 OFFCURVE",
"637 676 OFFCURVE",
"649 676 CURVE",
"659 676 OFFCURVE",
"664 584 OFFCURVE",
"655 558 CURVE",
"623 466 OFFCURVE",
"589 411 OFFCURVE",
"454 380 CURVE",
"359 359 OFFCURVE",
"264 473 OFFCURVE",
"249 479 CURVE",
"241 482 OFFCURVE",
"235 477 OFFCURVE",
"231 484 CURVE"
);
}
);
width = 862;
}
);
unicode = 3057;
},
{
glyphname = "zi-hira";
lastChange = "2020-04-30 22:46:41 +0000";
layers = (
{
layerId = "1305C52C-0BD1-483E-A343-C05F3AFF2931";
paths = (
{
closed = 1;
nodes = (
"11 220 OFFCURVE",
"19 292 OFFCURVE",
"30 322 CURVE",
"42 352 OFFCURVE",
"71 390 OFFCURVE",
"97 388 CURVE",
"114 387 OFFCURVE",
"118 331 OFFCURVE",
"136 331 CURVE",
"241 328 OFFCURVE",
"627 325 OFFCURVE",
"741 324 CURVE",
"765 324 OFFCURVE",
"771 351 OFFCURVE",
"813 352 CURVE",
"834 353 OFFCURVE",
"846 340 OFFCURVE",
"846 326 CURVE",
"847 301 OFFCURVE",
"803 271 OFFCURVE",
"778 271 CURVE",
"766 271 OFFCURVE",
"748 294 OFFCURVE",
"729 294 CURVE",
"622 294 OFFCURVE",
"244 295 OFFCURVE",
"132 293 CURVE",
"108 292 OFFCURVE",
"86 275 OFFCURVE",
"66 262 CURVE",
"46 251 OFFCURVE",
"11 220 OFFCURVE",
"11 220 CURVE"
);
},
{
closed = 1;
nodes = (
"214 140 OFFCURVE",
"231 156 OFFCURVE",
"235 167 CURVE",
"241 181 OFFCURVE",
"242 201 OFFCURVE",
"250 216 CURVE",
"256 229 OFFCURVE",
"267 246 OFFCURVE",
"280 246 CURVE",
"293 247 OFFCURVE",
"310 216 OFFCURVE",
"319 204 CURVE",
"325 196 OFFCURVE",
"325 184 OFFCURVE",
"330 176 CURVE",
"337 164 OFFCURVE",
"369 131 OFFCURVE",
"369 131 CURVE",
"369 131 OFFCURVE",
"349 134 OFFCURVE",
"339 138 CURVE",
"326 142 OFFCURVE",
"304 162 OFFCURVE",
"289 161 CURVE",
"274 160 OFFCURVE",
"264 139 OFFCURVE",
"252 134 CURVE",
"241 131 OFFCURVE",
"219 129 OFFCURVE",
"216 134 CURVE"
);
},
{
closed = 1;
nodes = (
"401 99 OFFCURVE",
"424 108 OFFCURVE",
"424 120 CURVE",
"424 138 OFFCURVE",
"392 189 OFFCURVE",
"392 207 CURVE",
"392 219 OFFCURVE",
"399 239 OFFCURVE",
"410 236 CURVE",
"428 231 OFFCURVE",
"471 179 OFFCURVE",
"499 179 CURVE",
"526 180 OFFCURVE",
"541 237 OFFCURVE",
"576 237 CURVE",
"593 237 OFFCURVE",
"608 218 OFFCURVE",
"608 204 CURVE",
"608 191 OFFCURVE",
"586 174 OFFCURVE",
"586 158 CURVE",
"584 42 OFFCURVE",
"727 23 OFFCURVE",
"727 23 CURVE",
"727 23 OFFCURVE",
"675 4 OFFCURVE",
"598 70 CURVE",
"548 113 OFFCURVE",
"564 172 OFFCURVE",
"548 174 CURVE",
"533 175 OFFCURVE",
"518 154 OFFCURVE",
"503 154 CURVE",
"484 155 OFFCURVE",
"430 185 OFFCURVE",
"430 185 CURVE",
"430 185 OFFCURVE",
"427 166 OFFCURVE",
"439 154 CURVE",
"449 143 OFFCURVE",
"481 126 OFFCURVE",
"481 112 CURVE",
"480 98 OFFCURVE",
"451 80 OFFCURVE",
"438 77 CURVE",
"425 73 OFFCURVE",
"400 83 OFFCURVE",
"401 91 CURVE"
);
},
{
closed = 1;
nodes = (
"120 451 OFFCURVE",
"151 478 OFFCURVE",
"150 498 CURVE",
"149 520 OFFCURVE",
"118 551 OFFCURVE",
"119 577 CURVE",
"120 603 OFFCURVE",
"160 635 OFFCURVE",
"184 635 CURVE",
"218 634 OFFCURVE",
"232 608 OFFCURVE",
"233 587 CURVE",
"234 574 OFFCURVE",
"227 549 OFFCURVE",
"217 549 CURVE",
"204 549 OFFCURVE",
"190 593 OFFCURVE",
"175 593 CURVE",
"163 593 OFFCURVE",
"148 580 OFFCURVE",
"148 564 CURVE",
"148 546 OFFCURVE",
"208 513 OFFCURVE",
"208 492 CURVE",
"207 467 OFFCURVE",
"132 435 OFFCURVE",
"126 443 CURVE"
);
},
{
closed = 1;
nodes = (
"228 500 OFFCURVE",
"257 537 OFFCURVE",
"279 549 CURVE",
"301 562 OFFCURVE",
"356 575 OFFCURVE",
"364 564 CURVE",
"379 543 OFFCURVE",
"345 519 OFFCURVE",
"345 500 CURVE",
"346 467 OFFCURVE",
"396 427 OFFCURVE",
"456 426 CURVE",
"547 424 OFFCURVE",
"605 511 OFFCURVE",
"630 584 CURVE",
"646 635 OFFCURVE",
"642 681 OFFCURVE",
"642 681 CURVE",
"642 681 OFFCURVE",
"671 643 OFFCURVE",
"653 565 CURVE",
"636 490 OFFCURVE",
"554 390 OFFCURVE",
"450 380 CURVE",
"380 373 OFFCURVE",
"288 446 OFFCURVE",
"264 474 CURVE",
"255 484 OFFCURVE",
"236 483 OFFCURVE",
"232 491 CURVE"
);
}
);
width = 856;
}
);
unicode = 3058;
},
{
glyphname = "su-hira";
lastChange = "2020-04-30 22:47:03 +0000";
layers = (
{
layerId = "1305C52C-0BD1-483E-A343-C05F3AFF2931";
paths = (
{
closed = 1;
nodes = (
"8 250 OFFCURVE",
"9 297 OFFCURVE",
"20 318 CURVE",
"33 342 OFFCURVE",
"73 387 OFFCURVE",
"94 393 CURVE",
"109 398 OFFCURVE",
"127 384 OFFCURVE",
"131 373 CURVE",
"137 360 OFFCURVE",
"128 350 OFFCURVE",
"131 336 CURVE",
"134 319 OFFCURVE",
"153 294 OFFCURVE",
"157 279 CURVE",
"159 270 OFFCURVE",
"160 252 OFFCURVE",
"149 249 CURVE",
"135 245 OFFCURVE",
"88 287 OFFCURVE",
"65 288 CURVE",
"34 289 OFFCURVE",
"38 241 OFFCURVE",
"17 247 CURVE"
);
},
{
closed = 1;
nodes = (
"162 419 OFFCURVE",
"179 464 OFFCURVE",
"203 462 CURVE",
"239 459 OFFCURVE",
"265 326 OFFCURVE",
"319 328 CURVE",
"366 329 OFFCURVE",
"347 459 OFFCURVE",
"436 457 CURVE",
"513 455 OFFCURVE",
"578 285 OFFCURVE",
"578 285 CURVE",
"578 285 OFFCURVE",
"640 310 OFFCURVE",
"634 344 CURVE",
"630 370 OFFCURVE",
"594 435 OFFCURVE",
"556 494 CURVE",
"510 568 OFFCURVE",
"460 636 OFFCURVE",
"464 639 CURVE",
"476 647 OFFCURVE",
"532 595 OFFCURVE",
"581 527 CURVE",
"620 473 OFFCURVE",
"626 430 OFFCURVE",
"683 386 CURVE",
"699 374 OFFCURVE",
"729 379 OFFCURVE",
"735 344 CURVE",
"738 326 OFFCURVE",
"685 286 OFFCURVE",
"662 280 CURVE",
"650 276 OFFCURVE",
"587 265 OFFCURVE",
"587 265 CURVE",
"587 265 OFFCURVE",
"625 193 OFFCURVE",
"653 163 CURVE",
"680 133 OFFCURVE",
"707 95 OFFCURVE",
"754 89 CURVE",
"817 81 OFFCURVE",
"858 97 OFFCURVE",
"862 88 CURVE",
"867 79 OFFCURVE",
"807 61 OFFCURVE",
"781 61 CURVE",
"713 58 OFFCURVE",
"665 94 OFFCURVE",
"621 132 CURVE",
"562 183 OFFCURVE",
"484 368 OFFCURVE",
"424 369 CURVE",
"381 369 OFFCURVE",
"357 294 OFFCURVE",
"324 291 CURVE",
"290 288 OFFCURVE",
"219 356 OFFCURVE",
"219 356 CURVE",
"219 356 OFFCURVE",
"235 318 OFFCURVE",
"273 256 CURVE",
"280 246 OFFCURVE",
"307 245 OFFCURVE",
"310 226 CURVE",
"312 212 OFFCURVE",
"288 180 OFFCURVE",
"273 169 CURVE",
"260 160 OFFCURVE",
"230 160 OFFCURVE",
"224 170 CURVE",
"218 180 OFFCURVE",
"245 181 OFFCURVE",
"236 229 CURVE",
"230 263 OFFCURVE",
"197 341 OFFCURVE",
"181 364 CURVE",
"177 371 OFFCURVE",
"166 372 OFFCURVE",
"162 378 CURVE",
"158 383 OFFCURVE",
"154 394 OFFCURVE",
"157 403 CURVE"
);
}
);
width = 872;
}
);
unicode = 3059;
},
{
glyphname = "zu-hira";
lastChange = "2020-04-30 22:47:27 +0000";
layers = (
{
layerId = "1305C52C-0BD1-483E-A343-C05F3AFF2931";
paths = (
{
closed = 1;
nodes = (
"555 250 OFFCURVE",
"630 307 OFFCURVE",
"629 333 CURVE",
"627 374 OFFCURVE",
"464 625 OFFCURVE",
"464 625 CURVE",
"464 625 OFFCURVE",
"507 615 OFFCURVE",
"583 497 CURVE",
"606 462 OFFCURVE",
"652 395 OFFCURVE",
"674 374 CURVE",
"688 360 OFFCURVE",
"726 356 OFFCURVE",
"727 340 CURVE",
"728 322 OFFCURVE",
"699 292 OFFCURVE",
"666 273 CURVE",
"647 262 OFFCURVE",
"555 250 OFFCURVE",
"555 250 CURVE"
);
},
{
closed = 1;
nodes = (
"4 247 OFFCURVE",
"26 305 OFFCURVE",
"47 333 CURVE",
"60 350 OFFCURVE",
"94 377 OFFCURVE",
"106 376 CURVE",
"126 375 OFFCURVE",
"117 337 OFFCURVE",
"121 322 CURVE",
"128 299 OFFCURVE",
"156 252 OFFCURVE",
"145 243 CURVE",
"137 236 OFFCURVE",
"91 283 OFFCURVE",
"67 282 CURVE",
"37 281 OFFCURVE",
"17 232 OFFCURVE",
"11 239 CURVE"
);
},
{
closed = 1;
nodes = (
"217 159 OFFCURVE",
"239 184 OFFCURVE",
"238 201 CURVE",
"233 262 OFFCURVE",
"161 361 OFFCURVE",
"162 403 CURVE",
"163 429 OFFCURVE",
"192 448 OFFCURVE",
"202 448 CURVE",
"212 447 OFFCURVE",
"215 406 OFFCURVE",
"225 393 CURVE",
"243 369 OFFCURVE",
"281 308 OFFCURVE",
"311 309 CURVE",
"366 310 OFFCURVE",
"351 447 OFFCURVE",
"427 442 CURVE",
"519 435 OFFCURVE",
"544 306 OFFCURVE",
"590 228 CURVE",
"634 154 OFFCURVE",
"704 75 OFFCURVE",
"780 69 CURVE",
"811 67 OFFCURVE",
"874 86 OFFCURVE",
"874 86 CURVE",
"874 86 OFFCURVE",
"830 46 OFFCURVE",
"761 45 CURVE",
"707 44 OFFCURVE",
"621 112 OFFCURVE",
"577 173 CURVE",
"531 237 OFFCURVE",
"455 365 OFFCURVE",
"420 367 CURVE",
"374 368 OFFCURVE",
"357 279 OFFCURVE",
"309 281 CURVE",
"276 283 OFFCURVE",
"215 352 OFFCURVE",
"215 352 CURVE",
"215 352 OFFCURVE",
"236 284 OFFCURVE",
"266 244 CURVE",
"275 232 OFFCURVE",
"303 230 OFFCURVE",
"304 215 CURVE",
"304 200 OFFCURVE",
"286 171 OFFCURVE",
"272 161 CURVE",
"259 151 OFFCURVE",
"227 144 OFFCURVE",
"222 152 CURVE"
);
},
{
closed = 1;
nodes = (
"252 474 OFFCURVE",
"286 499 OFFCURVE",
"285 518 CURVE",
"283 560 OFFCURVE",
"258 572 OFFCURVE",
"258 596 CURVE",
"259 627 OFFCURVE",
"291 657 OFFCURVE",
"322 656 CURVE",
"341 655 OFFCURVE",
"365 629 OFFCURVE",
"365 613 CURVE",
"365 596 OFFCURVE",
"361 574 OFFCURVE",
"352 574 CURVE",
"344 573 OFFCURVE",
"334 610 OFFCURVE",
"311 610 CURVE",
"300 610 OFFCURVE",
"287 599 OFFCURVE",
"287 588 CURVE",
"288 549 OFFCURVE",
"339 530 OFFCURVE",
"339 511 CURVE",
"339 490 OFFCURVE",
"265 461 OFFCURVE",
"259 467 CURVE"
);
}
);
width = 884;
}
);
unicode = 305A;
},
{
glyphname = "se-hira";
lastChange = "2020-04-30 22:47:58 +0000";
layers = (
{
layerId = "1305C52C-0BD1-483E-A343-C05F3AFF2931";
paths = (
{
closed = 1;
nodes = (
"248 126 OFFCURVE",
"300 115 OFFCURVE",
"300 142 CURVE",
"299 164 OFFCURVE",
"262 224 OFFCURVE",
"257 248 CURVE",
"253 265 OFFCURVE",
"261 282 OFFCURVE",
"274 283 CURVE",
"295 285 OFFCURVE",
"344 209 OFFCURVE",
"393 213 CURVE",
"444 216 OFFCURVE",
"441 290 OFFCURVE",
"510 291 CURVE",
"532 292 OFFCURVE",
"554 264 OFFCURVE",
"556 249 CURVE",
"559 231 OFFCURVE",
"552 214 OFFCURVE",
"552 198 CURVE",
"552 88 OFFCURVE",
"680 75 OFFCURVE",
"682 61 CURVE",
"684 47 OFFCURVE",
"602 46 OFFCURVE",
"538 116 CURVE",
"498 161 OFFCURVE",
"520 205 OFFCURVE",
"484 219 CURVE",
"468 226 OFFCURVE",
"431 181 OFFCURVE",
"404 179 CURVE",
"378 176 OFFCURVE",
"324 206 OFFCURVE",
"324 206 CURVE",
"324 206 OFFCURVE",
"333 186 OFFCURVE",
"340 177 CURVE",
"349 166 OFFCURVE",
"383 151 OFFCURVE",
"383 138 CURVE",
"383 113 OFFCURVE",
"356 78 OFFCURVE",
"330 78 CURVE",
"308 79 OFFCURVE",
"258 98 OFFCURVE",
"253 113 CURVE"
);
},
{
closed = 1;
nodes = (
"322 319 OFFCURVE",
"366 369 OFFCURVE",
"390 383 CURVE",
"403 391 OFFCURVE",
"429 396 OFFCURVE",
"435 385 CURVE",
"451 359 OFFCURVE",
"414 276 OFFCURVE",
"404 278 CURVE",
"390 281 OFFCURVE",
"400 308 OFFCURVE",
"383 315 CURVE",
"370 320 OFFCURVE",
"334 299 OFFCURVE",
"327 310 CURVE"
);
},
{
closed = 1;
nodes = (
"98 180 OFFCURVE",
"126 193 OFFCURVE",
"120 201 CURVE",
"111 213 OFFCURVE",
"15 243 OFFCURVE",
"10 325 CURVE",
"8 358 OFFCURVE",
"54 392 OFFCURVE",
"67 391 CURVE",
"108 391 OFFCURVE",
"174 391 OFFCURVE",
"223 390 CURVE",
"290 390 OFFCURVE",
"322 498 OFFCURVE",
"341 564 CURVE",
"360 632 OFFCURVE",
"387 649 OFFCURVE",
"432 648 CURVE",
"471 647 OFFCURVE",
"510 622 OFFCURVE",
"519 561 CURVE",
"527 501 OFFCURVE",
"569 434 OFFCURVE",
"609 392 CURVE",
"663 334 OFFCURVE",
"711 322 OFFCURVE",
"766 321 CURVE",
"796 320 OFFCURVE",
"856 334 OFFCURVE",
"859 327 CURVE",
"862 321 OFFCURVE",
"772 296 OFFCURVE",
"728 297 CURVE",
"652 299 OFFCURVE",
"592 323 OFFCURVE",
"534 383 CURVE",
"469 449 OFFCURVE",
"444 547 OFFCURVE",
"415 546 CURVE",
"379 544 OFFCURVE",
"360 448 OFFCURVE",
"319 405 CURVE",
"302 388 OFFCURVE",
"246 360 OFFCURVE",
"214 360 CURVE",
"172 360 OFFCURVE",
"96 364 OFFCURVE",
"65 364 CURVE",
"51 364 OFFCURVE",
"30 347 OFFCURVE",
"32 322 CURVE",
"34 294 OFFCURVE",
"80 259 OFFCURVE",
"130 258 CURVE",
"156 257 OFFCURVE",
"189 259 OFFCURVE",
"202 251 CURVE",
"212 245 OFFCURVE",
"208 229 OFFCURVE",
"203 216 CURVE",
"198 205 OFFCURVE",
"185 187 OFFCURVE",
"168 177 CURVE",
"152 169 OFFCURVE",
"117 165 OFFCURVE",
"106 174 CURVE"
);
}
);
width = 869;
}
);
unicode = 305B;
},
{
glyphname = "ze-hira";
lastChange = "2020-04-30 22:48:28 +0000";
layers = (
{
layerId = "1305C52C-0BD1-483E-A343-C05F3AFF2931";
paths = (
{
closed = 1;
nodes = (
"265 111 OFFCURVE",
"307 110 OFFCURVE",
"306 136 CURVE",
"306 159 OFFCURVE",
"257 224 OFFCURVE",
"257 248 CURVE",
"257 260 OFFCURVE",
"265 276 OFFCURVE",
"276 276 CURVE",
"293 277 OFFCURVE",
"341 195 OFFCURVE",
"389 197 CURVE",
"438 199 OFFCURVE",
"459 284 OFFCURVE",
"502 283 CURVE",
"526 283 OFFCURVE",
"549 250 OFFCURVE",
"550 233 CURVE",
"552 217 OFFCURVE",
"542 203 OFFCURVE",
"546 185 CURVE",
"575 37 OFFCURVE",
"700 60 OFFCURVE",
"700 60 CURVE",
"700 60 OFFCURVE",
"631 19 OFFCURVE",
"540 108 CURVE",
"512 136 OFFCURVE",
"513 212 OFFCURVE",
"482 212 CURVE",
"457 211 OFFCURVE",
"427 177 OFFCURVE",
"399 176 CURVE",
"371 175 OFFCURVE",
"314 208 OFFCURVE",
"314 208 CURVE",
"314 208 OFFCURVE",
"326 171 OFFCURVE",
"353 151 CURVE",
"362 144 OFFCURVE",
"380 139 OFFCURVE",
"380 128 CURVE",
"381 114 OFFCURVE",
"347 75 OFFCURVE",
"327 75 CURVE",
"304 75 OFFCURVE",
"265 91 OFFCURVE",
"265 102 CURVE"
);
},
{
closed = 1;
nodes = (
"325 314 OFFCURVE",
"342 325 OFFCURVE",
"357 345 CURVE",
"372 364 OFFCURVE",
"379 389 OFFCURVE",
"411 389 CURVE",
"425 389 OFFCURVE",
"438 372 OFFCURVE",
"439 358 CURVE",
"440 340 OFFCURVE",
"420 280 OFFCURVE",
"407 279 CURVE",
"395 279 OFFCURVE",
"395 305 OFFCURVE",
"381 310 CURVE",
"357 318 OFFCURVE",
"336 293 OFFCURVE",
"329 306 CURVE"
);
},
{
closed = 1;
nodes = (
"103 175 OFFCURVE",
"121 182 OFFCURVE",
"121 191 CURVE",
"120 203 OFFCURVE",
"75 215 OFFCURVE",
"57 232 CURVE",
"36 251 OFFCURVE",
"10 291 OFFCURVE",
"10 319 CURVE",
"9 348 OFFCURVE",
"17 383 OFFCURVE",
"118 381 CURVE",
"271 379 OFFCURVE",
"252 390 OFFCURVE",
"277 413 CURVE",
"328 459 OFFCURVE",
"323 655 OFFCURVE",
"427 650 CURVE",
"511 647 OFFCURVE",
"508 549 OFFCURVE",
"545 462 CURVE",
"574 397 OFFCURVE",
"638 317 OFFCURVE",
"746 313 CURVE",
"785 312 OFFCURVE",
"861 329 OFFCURVE",
"861 329 CURVE",
"861 329 OFFCURVE",
"760 289 OFFCURVE",
"707 291 CURVE",
"527 295 OFFCURVE",
"441 548 OFFCURVE",
"414 548 CURVE",
"384 548 OFFCURVE",
"373 510 OFFCURVE",
"356 469 CURVE",
"332 414 OFFCURVE",
"296 350 OFFCURVE",
"185 354 CURVE",
"111 356 OFFCURVE",
"29 363 OFFCURVE",
"29 329 CURVE",
"29 309 OFFCURVE",
"50 246 OFFCURVE",
"131 247 CURVE",
"155 247 OFFCURVE",
"194 260 OFFCURVE",
"201 241 CURVE",
"211 218 OFFCURVE",
"182 187 OFFCURVE",
"167 175 CURVE",
"153 164 OFFCURVE",
"110 162 OFFCURVE",
"106 168 CURVE"
);
},
{
closed = 1;
nodes = (
"151 469 OFFCURVE",
"187 494 OFFCURVE",
"187 514 CURVE",
"186 544 OFFCURVE",
"157 571 OFFCURVE",
"156 595 CURVE",
"156 622 OFFCURVE",
"198 651 OFFCURVE",
"221 650 CURVE",
"240 650 OFFCURVE",
"268 632 OFFCURVE",
"268 600 CURVE",
"269 583 OFFCURVE",
"264 562 OFFCURVE",
"255 563 CURVE",
"246 564 OFFCURVE",
"227 607 OFFCURVE",
"215 607 CURVE",
"203 606 OFFCURVE",
"187 595 OFFCURVE",
"187 580 CURVE",
"186 550 OFFCURVE",
"242 524 OFFCURVE",
"241 505 CURVE",
"240 484 OFFCURVE",
"164 452 OFFCURVE",
"158 460 CURVE"
);
}
);
width = 871;
}
);
unicode = 305C;
},
{
glyphname = "so-hira";
lastChange = "2020-04-30 22:48:46 +0000";
layers = (
{
layerId = "1305C52C-0BD1-483E-A343-C05F3AFF2931";
paths = (
{
closed = 1;
nodes = (
"7 306 OFFCURVE",
"9 334 OFFCURVE",
"14 350 CURVE",
"20 368 OFFCURVE",
"36 401 OFFCURVE",
"50 403 CURVE",
"93 410 OFFCURVE",
"102 375 OFFCURVE",
"111 367 CURVE",
"141 343 OFFCURVE",
"207 247 OFFCURVE",
"231 247 CURVE",
"253 247 OFFCURVE",
"226 312 OFFCURVE",
"280 347 CURVE",
"311 368 OFFCURVE",
"359 387 OFFCURVE",
"401 388 CURVE",
"449 389 OFFCURVE",
"511 372 OFFCURVE",
"559 372 CURVE",
"660 371 OFFCURVE",
"786 431 OFFCURVE",
"788 536 CURVE",
"789 628 OFFCURVE",
"727 689 OFFCURVE",
"737 695 CURVE",
"746 700 OFFCURVE",
"846 598 OFFCURVE",
"850 557 CURVE",
"867 384 OFFCURVE",
"749 317 OFFCURVE",
"613 308 CURVE",
"543 303 OFFCURVE",
"460 335 OFFCURVE",
"404 336 CURVE",
"335 337 OFFCURVE",
"277 317 OFFCURVE",
"276 247 CURVE",
"275 190 OFFCURVE",
"361 201 OFFCURVE",
"352 148 CURVE",
"346 117 OFFCURVE",
"300 141 OFFCURVE",
"277 156 CURVE",
"260 168 OFFCURVE",
"257 194 OFFCURVE",
"191 246 CURVE",
"159 272 OFFCURVE",
"111 310 OFFCURVE",
"84 312 CURVE",
"57 314 OFFCURVE",
"45 285 OFFCURVE",
"19 299 CURVE"
);
},
{
closed = 1;
nodes = (
"348 78 OFFCURVE",
"399 67 OFFCURVE",
"398 97 CURVE",
"397 119 OFFCURVE",
"356 178 OFFCURVE",
"355 201 CURVE",
"354 222 OFFCURVE",
"365 237 OFFCURVE",
"380 237 CURVE",
"388 237 OFFCURVE",
"440 155 OFFCURVE",
"484 158 CURVE",
"512 160 OFFCURVE",
"527 243 OFFCURVE",
"586 243 CURVE",
"609 243 OFFCURVE",
"628 206 OFFCURVE",
"628 189 CURVE",
"628 117 OFFCURVE",
"630 95 OFFCURVE",
"689 53 CURVE",
"748 11 OFFCURVE",
"776 26 OFFCURVE",
"778 13 CURVE",
"780 -1 OFFCURVE",
"712 2 OFFCURVE",
"633 61 CURVE",
"600 85 OFFCURVE",
"585 163 OFFCURVE",
"567 165 CURVE",
"526 168 OFFCURVE",
"520 129 OFFCURVE",
"496 127 CURVE",
"473 126 OFFCURVE",
"428 159 OFFCURVE",
"424 152 CURVE",
"412 132 OFFCURVE",
"472 105 OFFCURVE",
"472 83 CURVE",
"472 62 OFFCURVE",
"439 32 OFFCURVE",
"418 32 CURVE",
"395 32 OFFCURVE",
"348 50 OFFCURVE",
"348 64 CURVE"
);
}
);
width = 862;
}
);
unicode = 305D;
},
{
glyphname = "zo-hira";
lastChange = "2020-04-30 22:49:04 +0000";
layers = (
{
layerId = "1305C52C-0BD1-483E-A343-C05F3AFF2931";
paths = (
{
closed = 1;
nodes = (
"358 56 LINE",
"359 66 OFFCURVE",
"403 67 OFFCURVE",
"401 92 CURVE",
"399 115 OFFCURVE",
"356 178 OFFCURVE",
"356 200 CURVE",
"356 214 OFFCURVE",
"361 224 OFFCURVE",
"373 224 CURVE",
"393 225 OFFCURVE",
"422 147 OFFCURVE",
"485 148 CURVE",
"523 149 OFFCURVE",
"528 240 OFFCURVE",
"587 239 CURVE",
"616 239 OFFCURVE",
"625 197 OFFCURVE",
"626 176 CURVE",
"630 28 OFFCURVE",
"767 5 OFFCURVE",
"767 5 CURVE",
"767 5 OFFCURVE",
"678 2 OFFCURVE",
"625 63 CURVE",
"598 94 OFFCURVE",
"581 163 OFFCURVE",
"562 163 CURVE",
"535 163 OFFCURVE",
"518 123 OFFCURVE",
"494 122 CURVE",
"469 121 OFFCURVE",
"413 155 OFFCURVE",
"413 155 CURVE",
"413 155 OFFCURVE",
"426 123 OFFCURVE",
"441 108 CURVE",
"449 99 OFFCURVE",
"470 94 OFFCURVE",
"470 84 CURVE",
"470 62 OFFCURVE",
"442 23 OFFCURVE",
"422 22 CURVE",
"403 22 OFFCURVE",
"356 44 OFFCURVE",
"358 56 CURVE"
);
},
{
closed = 1;
nodes = (
"11 296 LINE",
"6 310 OFFCURVE",
"22 350 OFFCURVE",
"32 368 CURVE",
"41 385 OFFCURVE",
"52 406 OFFCURVE",
"71 404 CURVE",
"98 400 OFFCURVE",
"96 361 OFFCURVE",
"165 299 CURVE",
"191 277 OFFCURVE",
"246 238 OFFCURVE",
"246 238 CURVE",
"246 238 OFFCURVE",
"238 307 OFFCURVE",
"276 341 CURVE",
"305 366 OFFCURVE",
"347 394 OFFCURVE",
"466 378 CURVE",
"733 342 OFFCURVE",
"779 482 OFFCURVE",
"783 504 CURVE",
"801 607 OFFCURVE",
"735 696 OFFCURVE",
"735 696 CURVE",
"735 696 OFFCURVE",
"851 599 OFFCURVE",
"849 511 CURVE",
"846 394 OFFCURVE",
"739 301 OFFCURVE",
"632 305 CURVE",
"554 307 OFFCURVE",
"455 332 OFFCURVE",
"398 334 CURVE",
"307 337 OFFCURVE",
"281 289 OFFCURVE",
"276 259 CURVE",
"267 198 OFFCURVE",
"343 173 OFFCURVE",
"344 151 CURVE",
"344 143 OFFCURVE",
"331 136 OFFCURVE",
"323 136 CURVE",
"282 134 OFFCURVE",
"256 186 OFFCURVE",
"256 186 CURVE",
"256 186 OFFCURVE",
"207 232 OFFCURVE",
"180 253 CURVE",
"152 275 OFFCURVE",
"108 315 OFFCURVE",
"87 316 CURVE",
"61 316 OFFCURVE",
"63 300 OFFCURVE",
"50 297 CURVE",
"38 294 OFFCURVE",
"15 285 OFFCURVE",
"11 296 CURVE"
);
},
{
closed = 1;
nodes = (
"181 358 LINE",
"177 366 OFFCURVE",
"210 386 OFFCURVE",
"210 408 CURVE",
"211 429 OFFCURVE",
"179 463 OFFCURVE",
"179 487 CURVE",
"180 513 OFFCURVE",
"218 551 OFFCURVE",
"249 552 CURVE",
"271 552 OFFCURVE",
"293 514 OFFCURVE",
"294 498 CURVE",
"294 483 OFFCURVE",
"285 460 OFFCURVE",
"275 460 CURVE",
"262 460 OFFCURVE",
"250 500 OFFCURVE",
"236 500 CURVE",
"226 500 OFFCURVE",
"212 492 OFFCURVE",
"213 477 CURVE",
"213 441 OFFCURVE",
"267 420 OFFCURVE",
"267 399 CURVE",
"267 371 OFFCURVE",
"185 349 OFFCURVE",
"181 358 CURVE"
);
}
);
width = 859;
}
);
unicode = 305E;
},
{
glyphname = "ta-hira";
lastChange = "2020-04-30 22:50:57 +0000";
layers = (
{
layerId = "1305C52C-0BD1-483E-A343-C05F3AFF2931";
paths = (
{
closed = 1;
nodes = (
"-1 283 OFFCURVE",
"65 390 OFFCURVE",
"87 414 CURVE",
"99 428 OFFCURVE",
"120 431 OFFCURVE",
"131 427 CURVE",
"151 420 OFFCURVE",
"142 394 OFFCURVE",
"154 387 CURVE",
"171 376 OFFCURVE",
"225 368 OFFCURVE",
"253 367 CURVE",
"308 365 OFFCURVE",
"498 361 OFFCURVE",
"498 361 CURVE",
"498 361 OFFCURVE",
"444 437 OFFCURVE",
"416 468 CURVE",
"374 516 OFFCURVE",
"348 526 OFFCURVE",
"321 536 CURVE",
"293 547 OFFCURVE",
"267 518 OFFCURVE",
"256 528 CURVE",
"242 540 OFFCURVE",
"262 591 OFFCURVE",
"276 613 CURVE",
"289 632 OFFCURVE",
"320 650 OFFCURVE",
"338 649 CURVE",
"388 645 OFFCURVE",
"376 605 OFFCURVE",
"385 584 CURVE",
"399 554 OFFCURVE",
"425 523 OFFCURVE",
"453 492 CURVE",
"501 438 OFFCURVE",
"533 362 OFFCURVE",
"533 362 CURVE",
"533 362 OFFCURVE",
"744 363 OFFCURVE",
"794 362 CURVE",
"801 362 OFFCURVE",
"811 373 OFFCURVE",
"825 372 CURVE",
"829 372 OFFCURVE",
"867 374 OFFCURVE",
"868 364 CURVE",
"870 353 OFFCURVE",
"851 324 OFFCURVE",
"838 315 CURVE",
"826 306 OFFCURVE",
"801 308 OFFCURVE",
"789 309 CURVE",
"779 310 OFFCURVE",
"772 324 OFFCURVE",
"763 324 CURVE",
"721 325 OFFCURVE",
"544 330 OFFCURVE",
"544 330 CURVE",
"544 330 OFFCURVE",
"562 290 OFFCURVE",
"569 271 CURVE",
"576 251 OFFCURVE",
"595 206 OFFCURVE",
"586 206 CURVE",
"579 205 OFFCURVE",
"566 238 OFFCURVE",
"549 270 CURVE",
"534 299 OFFCURVE",
"513 330 OFFCURVE",
"513 330 CURVE",
"459 330 LINE",
"459 330 OFFCURVE",
"462 315 OFFCURVE",
"465 312 CURVE",
"470 307 OFFCURVE",
"471 301 OFFCURVE",
"472 288 CURVE",
"476 256 OFFCURVE",
"469 220 OFFCURVE",
"483 215 CURVE",
"510 204 OFFCURVE",
"529 204 OFFCURVE",
"589 162 CURVE",
"623 138 OFFCURVE",
"689 85 OFFCURVE",
"688 81 CURVE",
"686 76 OFFCURVE",
"613 125 OFFCURVE",
"582 141 CURVE",
"555 155 OFFCURVE",
"489 180 OFFCURVE",
"489 180 CURVE",
"489 180 OFFCURVE",
"507 135 OFFCURVE",
"515 119 CURVE",
"523 100 OFFCURVE",
"546 80 OFFCURVE",
"548 68 CURVE",
"550 58 OFFCURVE",
"532 51 OFFCURVE",
"522 52 CURVE",
"490 53 OFFCURVE",
"486 70 OFFCURVE",
"475 76 CURVE",
"447 90 OFFCURVE",
"358 131 OFFCURVE",
"358 138 CURVE",
"359 145 OFFCURVE",
"403 135 OFFCURVE",
"422 132 CURVE",
"437 129 OFFCURVE",
"465 117 OFFCURVE",
"465 117 CURVE",
"422 188 LINE",
"422 188 OFFCURVE",
"373 188 OFFCURVE",
"344 183 CURVE",
"316 179 OFFCURVE",
"279 140 OFFCURVE",
"261 135 CURVE",
"243 131 OFFCURVE",
"219 137 OFFCURVE",
"219 153 CURVE",
"219 172 OFFCURVE",
"247 232 OFFCURVE",
"264 250 CURVE",
"276 263 OFFCURVE",
"304 258 OFFCURVE",
"315 255 CURVE",
"320 254 OFFCURVE",
"325 238 OFFCURVE",
"331 238 CURVE",
"345 237 OFFCURVE",
"402 238 OFFCURVE",
"402 238 CURVE",
"402 238 OFFCURVE",
"390 263 OFFCURVE",
"393 282 CURVE",
"395 299 OFFCURVE",
"432 330 OFFCURVE",
"432 330 CURVE",
"432 330 OFFCURVE",
"226 329 OFFCURVE",
"157 326 CURVE",
"118 325 OFFCURVE",
"115 312 OFFCURVE",
"91 297 CURVE",
"74 285 OFFCURVE",
"50 284 OFFCURVE",
"40 265 CURVE",
"36 257 OFFCURVE",
"17 257 OFFCURVE",
"12 265 CURVE"
);
}
);
width = 878;
}
);
unicode = 305F;
},
{
glyphname = "da-hira";
lastChange = "2020-04-30 22:51:15 +0000";
layers = (
{
layerId = "1305C52C-0BD1-483E-A343-C05F3AFF2931";
paths = (
{
closed = 1;
nodes = (
"364 139 LINE",
"364 139 OFFCURVE",
"408 128 OFFCURVE",
"426 123 CURVE",
"443 119 OFFCURVE",
"476 111 OFFCURVE",
"476 111 CURVE",
"476 111 OFFCURVE",
"461 147 OFFCURVE",
"448 167 CURVE",
"434 192 OFFCURVE",
"391 232 OFFCURVE",
"390 259 CURVE",
"390 286 OFFCURVE",
"415 329 OFFCURVE",
"441 329 CURVE",
"456 329 OFFCURVE",
"471 299 OFFCURVE",
"472 288 CURVE",
"472 276 OFFCURVE",
"466 258 OFFCURVE",
"466 247 CURVE",
"467 221 OFFCURVE",
"507 126 OFFCURVE",
"524 101 CURVE",
"531 92 OFFCURVE",
"544 82 OFFCURVE",
"544 74 CURVE",
"545 65 OFFCURVE",
"534 50 OFFCURVE",
"524 50 CURVE",
"496 49 OFFCURVE",
"493 71 OFFCURVE",
"477 79 CURVE",
"459 89 OFFCURVE",
"364 139 OFFCURVE",
"364 139 CURVE"
);
},
{
closed = 1;
nodes = (
"234 143 LINE",
"219 165 OFFCURVE",
"243 203 OFFCURVE",
"252 222 CURVE",
"260 238 OFFCURVE",
"277 258 OFFCURVE",
"292 258 CURVE",
"305 258 OFFCURVE",
"316 241 OFFCURVE",
"331 239 CURVE",
"366 234 OFFCURVE",
"463 221 OFFCURVE",
"516 199 CURVE",
"573 174 OFFCURVE",
"675 90 OFFCURVE",
"675 90 CURVE",
"675 90 OFFCURVE",
"544 166 OFFCURVE",
"488 180 CURVE",
"443 192 OFFCURVE",
"382 192 OFFCURVE",
"346 190 CURVE",
"322 189 OFFCURVE",
"290 150 OFFCURVE",
"272 142 CURVE",
"262 137 OFFCURVE",
"240 134 OFFCURVE",
"234 143 CURVE"
);
},
{
closed = 1;
nodes = (
"10 271 LINE",
"7 276 OFFCURVE",
"22 290 OFFCURVE",
"27 300 CURVE",
"36 319 OFFCURVE",
"55 362 OFFCURVE",
"70 383 CURVE",
"82 400 OFFCURVE",
"106 425 OFFCURVE",
"120 424 CURVE",
"133 424 OFFCURVE",
"141 399 OFFCURVE",
"154 390 CURVE",
"176 373 OFFCURVE",
"215 364 OFFCURVE",
"259 363 CURVE",
"365 362 OFFCURVE",
"693 361 OFFCURVE",
"788 363 CURVE",
"801 364 OFFCURVE",
"813 374 OFFCURVE",
"827 375 CURVE",
"841 376 OFFCURVE",
"872 376 OFFCURVE",
"871 364 CURVE",
"871 353 OFFCURVE",
"838 315 OFFCURVE",
"808 314 CURVE",
"791 313 OFFCURVE",
"767 327 OFFCURVE",
"749 328 CURVE",
"647 331 OFFCURVE",
"297 334 OFFCURVE",
"191 333 CURVE",
"99 332 OFFCURVE",
"74 283 OFFCURVE",
"45 271 CURVE",
"36 267 OFFCURVE",
"12 266 OFFCURVE",
"10 271 CURVE"
);
},
{
closed = 1;
nodes = (
"249 529 LINE",
"243 541 OFFCURVE",
"269 592 OFFCURVE",
"289 618 CURVE",
"304 637 OFFCURVE",
"327 652 OFFCURVE",
"345 650 CURVE",
"372 648 OFFCURVE",
"375 601 OFFCURVE",
"389 576 CURVE",
"419 525 OFFCURVE",
"461 484 OFFCURVE",
"491 432 CURVE",
"570 297 OFFCURVE",
"577 217 OFFCURVE",
"577 217 CURVE",
"577 217 OFFCURVE",
"513 343 OFFCURVE",
"468 401 CURVE",
"425 458 OFFCURVE",
"348 541 OFFCURVE",
"303 542 CURVE",
"284 543 OFFCURVE",
"256 519 OFFCURVE",
"249 529 CURVE"
);
},
{
closed = 1;
nodes = (
"131 464 LINE",
"125 473 OFFCURVE",
"160 493 OFFCURVE",
"159 511 CURVE",
"158 532 OFFCURVE",
"126 569 OFFCURVE",
"126 594 CURVE",
"126 621 OFFCURVE",
"173 652 OFFCURVE",
"198 651 CURVE",
"217 651 OFFCURVE",
"240 626 OFFCURVE",
"240 611 CURVE",
"240 594 OFFCURVE",
"234 566 OFFCURVE",
"225 566 CURVE",
"214 567 OFFCURVE",
"195 605 OFFCURVE",
"182 605 CURVE",
"171 605 OFFCURVE",
"159 593 OFFCURVE",
"159 580 CURVE",
"160 554 OFFCURVE",
"212 517 OFFCURVE",
"212 505 CURVE",
"212 477 OFFCURVE",
"135 456 OFFCURVE",
"131 464 CURVE"
);
}
);
width = 881;
}
);
unicode = 3060;
},
{
glyphname = "ti-hira";
lastChange = "2020-04-30 22:51:50 +0000";
layers = (
{
layerId = "1305C52C-0BD1-483E-A343-C05F3AFF2931";
paths = (
{
closed = 1;
nodes = (
"705 4 OFFCURVE",
"665 72 OFFCURVE",
"636 99 CURVE SMOOTH",
"556 176 OFFCURVE",
"469 178 OFFCURVE",
"469 178 CURVE SMOOTH",
"469 178 OFFCURVE",
"483 143 OFFCURVE",
"491 128 CURVE",
"498 117 OFFCURVE",
"513 111 OFFCURVE",
"518 99 CURVE SMOOTH",
"524 84 OFFCURVE",
"532 54 OFFCURVE",
"521 46 CURVE",
"482 15 OFFCURVE",
"402 73 OFFCURVE",
"363 93 CURVE SMOOTH",
"332 110 OFFCURVE",
"269 159 OFFCURVE",
"269 159 CURVE SMOOTH",
"269 159 OFFCURVE",
"211 149 OFFCURVE",
"205 164 CURVE",
"194 200 OFFCURVE",
"221 206 OFFCURVE",
"230 230 CURVE",
"239 250 OFFCURVE",
"261 282 OFFCURVE",
"277 281 CURVE",
"301 278 OFFCURVE",
"311 246 OFFCURVE",
"331 244 CURVE SMOOTH",
"351 242 OFFCURVE",
"390 240 OFFCURVE",
"390 240 CURVE",
"353 309 LINE",
"353 309 OFFCURVE",
"262 309 OFFCURVE",
"217 316 CURVE SMOOTH",
"174 324 OFFCURVE",
"129 338 OFFCURVE",
"96 345 CURVE SMOOTH",
"61 352 OFFCURVE",
"32 320 OFFCURVE",
"17 330 CURVE SMOOTH",
"-16 351 OFFCURVE",
"72 447 OFFCURVE",
"99 466 CURVE SMOOTH",
"114 477 OFFCURVE",
"145 475 OFFCURVE",
"154 467 CURVE SMOOTH",
"163 459 OFFCURVE",
"148 411 OFFCURVE",
"158 395 CURVE",
"171 377 OFFCURVE",
"204 363 OFFCURVE",
"231 356 CURVE SMOOTH",
"260 349 OFFCURVE",
"330 350 OFFCURVE",
"330 350 CURVE SMOOTH",
"330 350 OFFCURVE",
"297 410 OFFCURVE",
"278 421 CURVE SMOOTH",
"261 431 OFFCURVE",
"226 392 OFFCURVE",
"211 415 CURVE",
"201 429 OFFCURVE",
"257 502 OFFCURVE",
"276 522 CURVE SMOOTH",
"288 535 OFFCURVE",
"325 537 OFFCURVE",
"345 528 CURVE SMOOTH",
"364 519 OFFCURVE",
"367 490 OFFCURVE",
"362 480 CURVE SMOOTH",
"355 466 OFFCURVE",
"340 456 OFFCURVE",
"347 439 CURVE",
"354 420 OFFCURVE",
"382 359 OFFCURVE",
"382 359 CURVE SMOOTH",
"382 359 OFFCURVE",
"481 345 OFFCURVE",
"576 435 CURVE SMOOTH",
"610 468 OFFCURVE",
"668 562 OFFCURVE",
"678 608 CURVE SMOOTH",
"685 639 OFFCURVE",
"684 696 OFFCURVE",
"684 696 CURVE SMOOTH",
"684 696 OFFCURVE",
"716 660 OFFCURVE",
"722 642 CURVE SMOOTH",
"729 619 OFFCURVE",
"732 583 OFFCURVE",
"726 550 CURVE SMOOTH",
"716 498 OFFCURVE",
"648 427 OFFCURVE",
"597 386 CURVE SMOOTH",
"522 326 OFFCURVE",
"406 316 OFFCURVE",
"406 316 CURVE",
"444 229 LINE",
"444 229 OFFCURVE",
"533 223 OFFCURVE",
"606 178 CURVE SMOOTH",
"653 149 OFFCURVE",
"704 98 OFFCURVE",
"712 50 CURVE SMOOTH",
"714 35 OFFCURVE",
"705 4 OFFCURVE",
"705 4 CURVE SMOOTH"
);
},
{
closed = 1;
nodes = (
"455 111 OFFCURVE",
"411 192 OFFCURVE",
"411 192 CURVE SMOOTH",
"411 192 OFFCURVE",
"347 195 OFFCURVE",
"319 192 CURVE SMOOTH",
"306 191 OFFCURVE",
"287 188 OFFCURVE",
"286 176 CURVE",
"284 162 OFFCURVE",
"431 81 OFFCURVE",
"444 96 CURVE"
);
}
);
width = 739;
}
);
unicode = 3061;
},
{
glyphname = "di-hira";
lastChange = "2020-04-30 22:52:01 +0000";
layers = (
{
layerId = "1305C52C-0BD1-483E-A343-C05F3AFF2931";
paths = (
{
closed = 1;
nodes = (
"244 182 LINE",
"244 182 OFFCURVE",
"345 136 OFFCURVE",
"373 120 CURVE",
"393 109 OFFCURVE",
"441 84 OFFCURVE",
"441 107 CURVE",
"442 132 OFFCURVE",
"404 220 OFFCURVE",
"376 273 CURVE",
"347 327 OFFCURVE",
"298 406 OFFCURVE",
"273 425 CURVE",
"260 435 OFFCURVE",
"236 406 OFFCURVE",
"225 406 CURVE",
"216 406 OFFCURVE",
"206 413 OFFCURVE",
"209 421 CURVE",
"220 445 OFFCURVE",
"266 514 OFFCURVE",
"291 530 CURVE",
"307 540 OFFCURVE",
"350 533 OFFCURVE",
"359 520 CURVE",
"367 506 OFFCURVE",
"336 455 OFFCURVE",
"342 435 CURVE",
"352 396 OFFCURVE",
"462 184 OFFCURVE",
"492 126 CURVE",
"499 114 OFFCURVE",
"516 103 OFFCURVE",
"521 90 CURVE",
"525 76 OFFCURVE",
"522 54 OFFCURVE",
"515 45 CURVE",
"482 -1 OFFCURVE",
"244 182 OFFCURVE",
"244 182 CURVE"
);
},
{
closed = 1;
nodes = (
"210 169 LINE",
"204 188 OFFCURVE",
"246 263 OFFCURVE",
"269 278 CURVE",
"285 287 OFFCURVE",
"302 251 OFFCURVE",
"327 247 CURVE",
"372 240 OFFCURVE",
"491 235 OFFCURVE",
"554 203 CURVE",
"619 170 OFFCURVE",
"710 105 OFFCURVE",
"718 47 CURVE",
"721 22 OFFCURVE",
"704 6 OFFCURVE",
"704 6 CURVE",
"704 6 OFFCURVE",
"668 83 OFFCURVE",
"607 128 CURVE",
"520 192 OFFCURVE",
"396 196 OFFCURVE",
"337 201 CURVE",
"308 204 OFFCURVE",
"274 165 OFFCURVE",
"253 160 CURVE",
"239 156 OFFCURVE",
"215 152 OFFCURVE",
"210 169 CURVE"
);
},
{
closed = 1;
nodes = (
"11 336 LINE",
"8 345 OFFCURVE",
"15 370 OFFCURVE",
"24 383 CURVE",
"39 406 OFFCURVE",
"80 464 OFFCURVE",
"103 476 CURVE",
"112 482 OFFCURVE",
"140 473 OFFCURVE",
"151 459 CURVE",
"163 443 OFFCURVE",
"146 405 OFFCURVE",
"161 392 CURVE",
"219 343 OFFCURVE",
"293 356 OFFCURVE",
"360 354 CURVE",
"586 347 OFFCURVE",
"668 573 OFFCURVE",
"679 617 CURVE",
"686 641 OFFCURVE",
"683 694 OFFCURVE",
"683 694 CURVE",
"683 694 OFFCURVE",
"742 675 OFFCURVE",
"725 570 CURVE",
"695 393 OFFCURVE",
"492 326 OFFCURVE",
"384 318 CURVE",
"195 304 OFFCURVE",
"154 336 OFFCURVE",
"106 349 CURVE",
"69 359 OFFCURVE",
"62 336 OFFCURVE",
"47 334 CURVE",
"35 332 OFFCURVE",
"15 328 OFFCURVE",
"11 336 CURVE"
);
},
{
closed = 1;
nodes = (
"151 486 LINE",
"151 500 OFFCURVE",
"180 514 OFFCURVE",
"180 533 CURVE",
"179 553 OFFCURVE",
"151 590 OFFCURVE",
"147 614 CURVE",
"143 644 OFFCURVE",
"180 672 OFFCURVE",
"215 670 CURVE",
"233 669 OFFCURVE",
"259 644 OFFCURVE",
"260 630 CURVE",
"262 615 OFFCURVE",
"256 587 OFFCURVE",
"247 588 CURVE",
"228 590 OFFCURVE",
"213 625 OFFCURVE",
"202 625 CURVE",
"189 625 OFFCURVE",
"178 610 OFFCURVE",
"178 601 CURVE",
"179 583 OFFCURVE",
"234 539 OFFCURVE",
"232 520 CURVE",
"229 494 OFFCURVE",
"152 476 OFFCURVE",
"151 486 CURVE"
);
}
);
width = 738;
}
);
unicode = 3062;
},
{
glyphname = "tu-hira";
lastChange = "2020-04-30 22:52:52 +0000";
layers = (
{
layerId = "1305C52C-0BD1-483E-A343-C05F3AFF2931";
paths = (
{
closed = 1;
nodes = (
"462 91 OFFCURVE",
"423 120 OFFCURVE",
"394 144 CURVE SMOOTH",
"342 188 OFFCURVE",
"232 303 OFFCURVE",
"185 350 CURVE SMOOTH",
"159 377 OFFCURVE",
"108 407 OFFCURVE",
"82 406 CURVE SMOOTH",
"58 405 OFFCURVE",
"21 379 OFFCURVE",
"11 391 CURVE",
"4 402 OFFCURVE",
"39 459 OFFCURVE",
"61 474 CURVE SMOOTH",
"83 489 OFFCURVE",
"129 489 OFFCURVE",
"150 477 CURVE SMOOTH",
"203 448 OFFCURVE",
"239 362 OFFCURVE",
"262 355 CURVE SMOOTH",
"272 352 OFFCURVE",
"279 389 OFFCURVE",
"308 391 CURVE SMOOTH",
"338 393 OFFCURVE",
"332 370 OFFCURVE",
"355 370 CURVE SMOOTH",
"375 370 OFFCURVE",
"417 370 OFFCURVE",
"417 369 CURVE SMOOTH",
"417 369 OFFCURVE",
"395 423 OFFCURVE",
"401 484 CURVE SMOOTH",
"411 577 OFFCURVE",
"474 610 OFFCURVE",
"498 610 CURVE SMOOTH",
"558 611 OFFCURVE",
"588 539 OFFCURVE",
"588 502 CURVE SMOOTH",
"589 455 OFFCURVE",
"578 416 OFFCURVE",
"568 417 CURVE SMOOTH",
"553 418 OFFCURVE",
"560 514 OFFCURVE",
"504 515 CURVE SMOOTH",
"457 515 OFFCURVE",
"438 474 OFFCURVE",
"440 428 CURVE SMOOTH",
"441 407 OFFCURVE",
"454 370 OFFCURVE",
"454 370 CURVE SMOOTH",
"454 370 OFFCURVE",
"682 373 OFFCURVE",
"746 374 CURVE SMOOTH",
"774 374 OFFCURVE",
"803 396 OFFCURVE",
"828 396 CURVE SMOOTH",
"848 396 OFFCURVE",
"873 373 OFFCURVE",
"874 359 CURVE",
"874 330 OFFCURVE",
"826 313 OFFCURVE",
"803 313 CURVE SMOOTH",
"789 313 OFFCURVE",
"770 326 OFFCURVE",
"755 326 CURVE",
"699 328 OFFCURVE",
"468 329 OFFCURVE",
"468 329 CURVE SMOOTH",
"468 329 OFFCURVE",
"492 293 OFFCURVE",
"506 279 CURVE",
"531 256 OFFCURVE",
"599 215 OFFCURVE",
"599 162 CURVE SMOOTH",
"598 117 OFFCURVE",
"572 90 OFFCURVE",
"496 91 CURVE SMOOTH"
);
},
{
closed = 1;
nodes = (
"484 130 OFFCURVE",
"533 142 OFFCURVE",
"535 175 CURVE SMOOTH",
"537 199 OFFCURVE",
"492 230 OFFCURVE",
"471 253 CURVE SMOOTH",
"448 279 OFFCURVE",
"425 329 OFFCURVE",
"425 330 CURVE SMOOTH",
"425 330 OFFCURVE",
"300 329 OFFCURVE",
"294 314 CURVE",
"285 294 OFFCURVE",
"383 189 OFFCURVE",
"441 155 CURVE SMOOTH"
);
}
);
width = 884;
}
);
unicode = 3064;
},
{
glyphname = "tusmall-hira";
lastChange = "2020-04-30 22:53:30 +0000";
layers = (
{
layerId = "1305C52C-0BD1-483E-A343-C05F3AFF2931";
paths = (
{
closed = 1;
nodes = (
"147 299 OFFCURVE",
"84 384 OFFCURVE",
"51 402 CURVE SMOOTH",
"40 408 OFFCURVE",
"12 395 OFFCURVE",
"10 404 CURVE SMOOTH",
"8 412 OFFCURVE",
"25 445 OFFCURVE",
"33 457 CURVE SMOOTH",
"39 466 OFFCURVE",
"55 472 OFFCURVE",
"64 472 CURVE SMOOTH",
"79 472 OFFCURVE",
"86 443 OFFCURVE",
"86 427 CURVE SMOOTH",
"86 384 OFFCURVE",
"153 330 OFFCURVE",
"183 330 CURVE SMOOTH",
"189 330 OFFCURVE",
"200 335 OFFCURVE",
"200 339 CURVE SMOOTH",
"200 343 OFFCURVE",
"188 350 OFFCURVE",
"183 356 CURVE SMOOTH",
"167 375 OFFCURVE",
"127 419 OFFCURVE",
"127 453 CURVE SMOOTH",
"127 495 OFFCURVE",
"151 554 OFFCURVE",
"217 554 CURVE SMOOTH",
"275 554 OFFCURVE",
"300 461 OFFCURVE",
"300 461 CURVE",
"300 461 OFFCURVE",
"391 463 OFFCURVE",
"417 463 CURVE SMOOTH",
"427 463 OFFCURVE",
"440 470 OFFCURVE",
"451 470 CURVE SMOOTH",
"463 470 OFFCURVE",
"494 462 OFFCURVE",
"494 454 CURVE SMOOTH",
"494 446 OFFCURVE",
"459 426 OFFCURVE",
"443 426 CURVE SMOOTH",
"429 426 OFFCURVE",
"411 437 OFFCURVE",
"398 437 CURVE SMOOTH",
"374 437 OFFCURVE",
"304 438 OFFCURVE",
"304 438 CURVE",
"304 438 OFFCURVE",
"312 379 OFFCURVE",
"258 380 CURVE SMOOTH",
"210 381 OFFCURVE",
"198 417 OFFCURVE",
"198 431 CURVE SMOOTH",
"198 463 OFFCURVE",
"262 462 OFFCURVE",
"262 462 CURVE",
"262 462 OFFCURVE",
"243 517 OFFCURVE",
"211 515 CURVE SMOOTH",
"192 514 OFFCURVE",
"147 493 OFFCURVE",
"148 437 CURVE SMOOTH",
"149 393 OFFCURVE",
"196 377 OFFCURVE",
"219 371 CURVE SMOOTH",
"237 366 OFFCURVE",
"261 341 OFFCURVE",
"261 329 CURVE SMOOTH",
"261 318 OFFCURVE",
"228 304 OFFCURVE",
"211 303 CURVE SMOOTH"
);
},
{
closed = 1;
nodes = (
"278 417 OFFCURVE",
"268 438 OFFCURVE",
"268 438 CURVE",
"268 438 OFFCURVE",
"246 438 OFFCURVE",
"239 437 CURVE SMOOTH",
"234 436 OFFCURVE",
"229 433 OFFCURVE",
"229 427 CURVE SMOOTH",
"229 419 OFFCURVE",
"241 417 OFFCURVE",
"247 417 CURVE SMOOTH"
);
}
);
width = 504;
}
);
unicode = 3063;
},
{
glyphname = "du-hira";
lastChange = "2020-04-30 22:53:49 +0000";
layers = (
{
layerId = "1305C52C-0BD1-483E-A343-C05F3AFF2931";
paths = (
{
closed = 1;
nodes = (
"274 283 LINE",
"263 289 OFFCURVE",
"287 322 OFFCURVE",
"297 334 CURVE",
"306 345 OFFCURVE",
"318 355 OFFCURVE",
"328 356 CURVE",
"338 356 OFFCURVE",
"353 335 OFFCURVE",
"363 334 CURVE",
"441 332 OFFCURVE",
"714 337 OFFCURVE",
"794 342 CURVE",
"811 343 OFFCURVE",
"824 362 OFFCURVE",
"849 362 CURVE",
"864 362 OFFCURVE",
"885 346 OFFCURVE",
"885 333 CURVE",
"884 320 OFFCURVE",
"862 288 OFFCURVE",
"830 288 CURVE",
"809 288 OFFCURVE",
"821 295 OFFCURVE",
"776 296 CURVE",
"630 299 OFFCURVE",
"441 299 OFFCURVE",
"357 297 CURVE",
"329 296 OFFCURVE",
"284 277 OFFCURVE",
"274 283 CURVE"
);
},
{
closed = 1;
nodes = (
"294 451 LINE",
"290 455 OFFCURVE",
"326 485 OFFCURVE",
"327 507 CURVE",
"328 529 OFFCURVE",
"295 556 OFFCURVE",
"296 588 CURVE",
"297 620 OFFCURVE",
"333 638 OFFCURVE",
"362 639 CURVE",
"385 639 OFFCURVE",
"408 612 OFFCURVE",
"409 594 CURVE",
"410 579 OFFCURVE",
"403 553 OFFCURVE",
"394 553 CURVE",
"385 553 OFFCURVE",
"360 594 OFFCURVE",
"350 594 CURVE",
"337 594 OFFCURVE",
"329 579 OFFCURVE",
"329 569 CURVE",
"329 543 OFFCURVE",
"384 515 OFFCURVE",
"384 494 CURVE",
"384 471 OFFCURVE",
"301 444 OFFCURVE",
"294 451 CURVE"
);
},
{
closed = 1;
nodes = (
"10 355 LINE",
"10 355 OFFCURVE",
"25 417 OFFCURVE",
"42 437 CURVE",
"59 456 OFFCURVE",
"87 475 OFFCURVE",
"113 471 CURVE",
"181 462 OFFCURVE",
"244 353 OFFCURVE",
"290 289 CURVE",
"342 216 OFFCURVE",
"447 107 OFFCURVE",
"515 112 CURVE",
"532 113 OFFCURVE",
"554 123 OFFCURVE",
"553 140 CURVE",
"552 171 OFFCURVE",
"474 234 OFFCURVE",
"449 288 CURVE",
"370 458 OFFCURVE",
"457 576 OFFCURVE",
"509 576 CURVE",
"551 577 OFFCURVE",
"600 523 OFFCURVE",
"603 485 CURVE",
"607 453 OFFCURVE",
"583 392 OFFCURVE",
"583 392 CURVE",
"583 392 OFFCURVE",
"560 482 OFFCURVE",
"531 484 CURVE",
"505 485 OFFCURVE",
"459 474 OFFCURVE",
"456 393 CURVE",
"454 328 OFFCURVE",
"505 242 OFFCURVE",
"559 219 CURVE",
"590 206 OFFCURVE",
"621 164 OFFCURVE",
"619 130 CURVE",
"616 99 OFFCURVE",
"573 60 OFFCURVE",
"539 62 CURVE",
"426 69 OFFCURVE",
"366 155 OFFCURVE",
"296 228 CURVE",
"237 289 OFFCURVE",
"137 369 OFFCURVE",
"84 374 CURVE",
"59 376 OFFCURVE",
"10 355 OFFCURVE",
"10 355 CURVE"
);
}
);
width = 895;
}
);
unicode = 3065;
},
{
glyphname = "te-hira";
lastChange = "2020-04-30 22:54:40 +0000";
layers = (
{
layerId = "1305C52C-0BD1-483E-A343-C05F3AFF2931";
paths = (
{
closed = 1;
nodes = (
"101 190 OFFCURVE",
"125 200 OFFCURVE",
"118 209 CURVE",
"105 226 OFFCURVE",
"70 233 OFFCURVE",
"46 258 CURVE",
"28 277 OFFCURVE",
"9 308 OFFCURVE",
"10 332 CURVE",
"10 376 OFFCURVE",
"58 400 OFFCURVE",
"71 400 CURVE",
"109 400 OFFCURVE",
"179 397 OFFCURVE",
"220 399 CURVE",
"244 399 OFFCURVE",
"287 429 OFFCURVE",
"308 477 CURVE",
"325 517 OFFCURVE",
"332 562 OFFCURVE",
"352 606 CURVE",
"365 633 OFFCURVE",
"396 666 OFFCURVE",
"437 664 CURVE",
"487 662 OFFCURVE",
"502 620 OFFCURVE",
"512 585 CURVE",
"529 532 OFFCURVE",
"556 470 OFFCURVE",
"599 412 CURVE",
"694 282 OFFCURVE",
"860 353 OFFCURVE",
"865 343 CURVE",
"870 332 OFFCURVE",
"732 261 OFFCURVE",
"583 353 CURVE",
"482 416 OFFCURVE",
"444 555 OFFCURVE",
"420 553 CURVE",
"381 551 OFFCURVE",
"351 451 OFFCURVE",
"323 415 CURVE",
"300 387 OFFCURVE",
"258 367 OFFCURVE",
"220 367 CURVE",
"174 367 OFFCURVE",
"101 371 OFFCURVE",
"70 372 CURVE",
"58 372 OFFCURVE",
"39 356 OFFCURVE",
"40 327 CURVE",
"41 290 OFFCURVE",
"101 265 OFFCURVE",
"130 264 CURVE",
"149 264 OFFCURVE",
"165 271 OFFCURVE",
"180 270 CURVE",
"197 270 OFFCURVE",
"214 255 OFFCURVE",
"214 243 CURVE",
"215 228 OFFCURVE",
"172 182 OFFCURVE",
"161 180 CURVE",
"143 178 OFFCURVE",
"111 176 OFFCURVE",
"107 182 CURVE"
);
},
{
closed = 1;
nodes = (
"203 152 OFFCURVE",
"236 245 OFFCURVE",
"283 247 CURVE",
"298 248 OFFCURVE",
"306 226 OFFCURVE",
"321 226 CURVE",
"338 226 OFFCURVE",
"383 229 OFFCURVE",
"383 229 CURVE",
"383 229 OFFCURVE",
"372 289 OFFCURVE",
"411 316 CURVE",
"444 339 OFFCURVE",
"464 295 OFFCURVE",
"463 276 CURVE",
"462 255 OFFCURVE",
"463 225 OFFCURVE",
"473 213 CURVE",
"487 195 OFFCURVE",
"532 186 OFFCURVE",
"584 150 CURVE",
"618 126 OFFCURVE",
"683 69 OFFCURVE",
"679 62 CURVE",
"674 54 OFFCURVE",
"613 103 OFFCURVE",
"580 120 CURVE",
"550 136 OFFCURVE",
"490 168 OFFCURVE",
"484 164 CURVE",
"478 160 OFFCURVE",
"495 120 OFFCURVE",
"505 101 CURVE",
"515 84 OFFCURVE",
"543 65 OFFCURVE",
"543 55 CURVE",
"543 44 OFFCURVE",
"523 37 OFFCURVE",
"512 37 CURVE",
"481 37 OFFCURVE",
"479 57 OFFCURVE",
"459 66 CURVE",
"428 80 OFFCURVE",
"340 121 OFFCURVE",
"343 129 CURVE",
"349 145 OFFCURVE",
"460 97 OFFCURVE",
"465 105 CURVE",
"468 110 OFFCURVE",
"453 123 OFFCURVE",
"441 138 CURVE",
"430 155 OFFCURVE",
"410 175 OFFCURVE",
"410 175 CURVE",
"410 175 OFFCURVE",
"358 173 OFFCURVE",
"331 172 CURVE",
"314 171 OFFCURVE",
"286 137 OFFCURVE",
"266 127 CURVE",
"250 120 OFFCURVE",
"220 118 OFFCURVE",
"214 130 CURVE"
);
}
);
width = 875;
}
);
unicode = 3066;
},
{
glyphname = "de-hira";
lastChange = "2020-04-30 22:54:57 +0000";
layers = (
{
layerId = "1305C52C-0BD1-483E-A343-C05F3AFF2931";
paths = (
{
closed = 1;
nodes = (
"336 127 LINE",
"336 127 OFFCURVE",
"396 112 OFFCURVE",
"418 106 CURVE",
"437 102 OFFCURVE",
"472 92 OFFCURVE",
"472 92 CURVE",
"472 92 OFFCURVE",
"451 129 OFFCURVE",
"435 151 CURVE",
"420 172 OFFCURVE",
"375 200 OFFCURVE",
"376 226 CURVE",
"376 251 OFFCURVE",
"399 314 OFFCURVE",
"432 312 CURVE",
"472 310 OFFCURVE",
"448 203 OFFCURVE",
"471 149 CURVE",
"489 106 OFFCURVE",
"535 70 OFFCURVE",
"535 47 CURVE",
"534 33 OFFCURVE",
"509 26 OFFCURVE",
"493 35 CURVE",
"477 43 OFFCURVE",
"473 57 OFFCURVE",
"462 64 CURVE",
"449 73 OFFCURVE",
"429 82 OFFCURVE",
"414 90 CURVE",
"393 101 OFFCURVE",
"336 127 OFFCURVE",
"336 127 CURVE"
);
},
{
closed = 1;
nodes = (
"213 133 LINE",
"213 151 OFFCURVE",
"236 205 OFFCURVE",
"248 223 CURVE",
"256 234 OFFCURVE",
"272 242 OFFCURVE",
"285 242 CURVE",
"297 242 OFFCURVE",
"311 225 OFFCURVE",
"325 222 CURVE",
"361 215 OFFCURVE",
"452 204 OFFCURVE",
"504 182 CURVE",
"571 154 OFFCURVE",
"675 58 OFFCURVE",
"675 58 CURVE",
"675 58 OFFCURVE",
"554 142 OFFCURVE",
"495 160 CURVE",
"441 176 OFFCURVE",
"381 173 OFFCURVE",
"337 169 CURVE",
"303 166 OFFCURVE",
"269 119 OFFCURVE",
"238 118 CURVE",
"229 118 OFFCURVE",
"214 120 OFFCURVE",
"213 133 CURVE"
);
},
{
closed = 1;
nodes = (
"106 180 LINE",
"98 183 OFFCURVE",
"129 194 OFFCURVE",
"124 202 CURVE",
"108 227 OFFCURVE",
"12 255 OFFCURVE",
"10 332 CURVE",
"10 362 OFFCURVE",
"39 395 OFFCURVE",
"76 396 CURVE",
"111 396 OFFCURVE",
"170 394 OFFCURVE",
"216 394 CURVE",
"342 397 OFFCURVE",
"318 661 OFFCURVE",
"430 661 CURVE",
"516 661 OFFCURVE",
"506 559 OFFCURVE",
"551 468 CURVE",
"585 398 OFFCURVE",
"654 330 OFFCURVE",
"738 326 CURVE",
"778 325 OFFCURVE",
"859 340 OFFCURVE",
"859 340 CURVE",
"859 340 OFFCURVE",
"767 305 OFFCURVE",
"720 305 CURVE",
"515 303 OFFCURVE",
"451 553 OFFCURVE",
"421 552 CURVE",
"361 549 OFFCURVE",
"356 365 OFFCURVE",
"221 364 CURVE",
"166 364 OFFCURVE",
"106 368 OFFCURVE",
"73 368 CURVE",
"56 368 OFFCURVE",
"31 349 OFFCURVE",
"32 333 CURVE",
"37 296 OFFCURVE",
"82 259 OFFCURVE",
"128 258 CURVE",
"142 258 OFFCURVE",
"162 268 OFFCURVE",
"174 267 CURVE",
"188 267 OFFCURVE",
"211 252 OFFCURVE",
"211 237 CURVE",
"209 194 OFFCURVE",
"132 169 OFFCURVE",
"106 180 CURVE"
);
},
{
closed = 1;
nodes = (
"170 474 LINE",
"165 483 OFFCURVE",
"204 507 OFFCURVE",
"203 529 CURVE",
"203 551 OFFCURVE",
"170 582 OFFCURVE",
"172 607 CURVE",
"174 636 OFFCURVE",
"218 670 OFFCURVE",
"238 670 CURVE",
"261 669 OFFCURVE",
"286 644 OFFCURVE",
"287 617 CURVE",
"287 599 OFFCURVE",
"280 575 OFFCURVE",
"271 575 CURVE",
"262 575 OFFCURVE",
"241 616 OFFCURVE",
"230 616 CURVE",
"219 616 OFFCURVE",
"204 602 OFFCURVE",
"205 591 CURVE",
"206 565 OFFCURVE",
"261 535 OFFCURVE",
"261 517 CURVE",
"260 494 OFFCURVE",
"174 465 OFFCURVE",
"170 474 CURVE"
);
}
);
width = 869;
}
);
unicode = 3067;
},
{
glyphname = "to-hira";
lastChange = "2020-04-30 22:55:16 +0000";
layers = (
{
layerId = "1305C52C-0BD1-483E-A343-C05F3AFF2931";
paths = (
{
closed = 1;
nodes = (
"-3 331 OFFCURVE",
"40 422 OFFCURVE",
"66 420 CURVE",
"84 419 OFFCURVE",
"126 363 OFFCURVE",
"171 315 CURVE",
"202 283 OFFCURVE",
"218 257 OFFCURVE",
"232 258 CURVE",
"244 258 OFFCURVE",
"221 311 OFFCURVE",
"264 346 CURVE",
"312 384 OFFCURVE",
"345 402 OFFCURVE",
"429 401 CURVE",
"471 400 OFFCURVE",
"538 388 OFFCURVE",
"583 390 CURVE",
"643 394 OFFCURVE",
"725 436 OFFCURVE",
"760 476 CURVE",
"836 564 OFFCURVE",
"722 705 OFFCURVE",
"727 712 CURVE",
"741 729 OFFCURVE",
"843 606 OFFCURVE",
"849 570 CURVE",
"872 426 OFFCURVE",
"768 334 OFFCURVE",
"662 317 CURVE",
"579 304 OFFCURVE",
"433 348 OFFCURVE",
"391 347 CURVE",
"344 347 OFFCURVE",
"274 322 OFFCURVE",
"277 262 CURVE",
"279 198 OFFCURVE",
"347 230 OFFCURVE",
"349 166 CURVE",
"350 141 OFFCURVE",
"318 144 OFFCURVE",
"290 158 CURVE",
"270 169 OFFCURVE",
"249 206 OFFCURVE",
"225 226 CURVE",
"190 254 OFFCURVE",
"106 330 OFFCURVE",
"83 329 CURVE",
"71 328 OFFCURVE",
"67 314 OFFCURVE",
"55 310 CURVE",
"44 307 OFFCURVE",
"22 302 OFFCURVE",
"13 314 CURVE"
);
},
{
closed = 1;
nodes = (
"347 97 OFFCURVE",
"406 196 OFFCURVE",
"420 198 CURVE",
"460 201 OFFCURVE",
"459 177 OFFCURVE",
"484 177 CURVE",
"502 177 OFFCURVE",
"543 176 OFFCURVE",
"543 176 CURVE",
"543 176 OFFCURVE",
"521 220 OFFCURVE",
"547 254 CURVE",
"559 269 OFFCURVE",
"588 272 OFFCURVE",
"598 265 CURVE",
"627 246 OFFCURVE",
"603 190 OFFCURVE",
"615 169 CURVE",
"631 141 OFFCURVE",
"676 136 OFFCURVE",
"729 98 CURVE",
"783 60 OFFCURVE",
"831 20 OFFCURVE",
"829 14 CURVE",
"826 8 OFFCURVE",
"762 52 OFFCURVE",
"729 71 CURVE",
"698 88 OFFCURVE",
"637 122 OFFCURVE",
"632 114 CURVE",
"629 109 OFFCURVE",
"638 81 OFFCURVE",
"652 59 CURVE",
"667 36 OFFCURVE",
"689 20 OFFCURVE",
"690 9 CURVE",
"690 -3 OFFCURVE",
"673 -14 OFFCURVE",
"662 -13 CURVE",
"630 -9 OFFCURVE",
"623 11 OFFCURVE",
"606 19 CURVE",
"579 33 OFFCURVE",
"496 65 OFFCURVE",
"496 72 CURVE",
"496 82 OFFCURVE",
"540 77 OFFCURVE",
"558 71 CURVE",
"575 65 OFFCURVE",
"606 47 OFFCURVE",
"610 54 CURVE",
"616 66 OFFCURVE",
"562 124 OFFCURVE",
"562 124 CURVE",
"562 124 OFFCURVE",
"510 122 OFFCURVE",
"483 120 CURVE",
"459 119 OFFCURVE",
"440 92 OFFCURVE",
"423 80 CURVE",
"409 70 OFFCURVE",
"380 66 OFFCURVE",
"368 77 CURVE"
);
}
);
width = 862;
}
);
unicode = 3068;
},
{
glyphname = "do-hira";
lastChange = "2020-04-30 22:55:36 +0000";
layers = (
{
layerId = "1305C52C-0BD1-483E-A343-C05F3AFF2931";
paths = (
{
closed = 1;
nodes = (
"495 81 LINE",
"495 81 OFFCURVE",
"545 68 OFFCURVE",
"565 63 CURVE",
"583 58 OFFCURVE",
"617 50 OFFCURVE",
"617 50 CURVE",
"617 50 OFFCURVE",
"606 85 OFFCURVE",
"585 115 CURVE",
"569 138 OFFCURVE",
"533 174 OFFCURVE",
"532 199 CURVE",
"531 225 OFFCURVE",
"560 267 OFFCURVE",
"579 267 CURVE",
"597 267 OFFCURVE",
"612 240 OFFCURVE",
"612 223 CURVE",
"610 190 OFFCURVE",
"621 144 OFFCURVE",
"631 108 CURVE",
"649 41 OFFCURVE",
"685 26 OFFCURVE",
"686 6 CURVE",
"686 -4 OFFCURVE",
"671 -16 OFFCURVE",
"660 -14 CURVE",
"633 -10 OFFCURVE",
"630 9 OFFCURVE",
"612 18 CURVE",
"595 27 OFFCURVE",
"575 39 OFFCURVE",
"559 48 CURVE",
"539 59 OFFCURVE",
"495 81 OFFCURVE",
"495 81 CURVE"
);
},
{
closed = 1;
nodes = (
"367 80 LINE",
"363 94 OFFCURVE",
"378 139 OFFCURVE",
"389 158 CURVE",
"398 175 OFFCURVE",
"417 198 OFFCURVE",
"432 198 CURVE",
"447 197 OFFCURVE",
"460 182 OFFCURVE",
"476 178 CURVE",
"509 170 OFFCURVE",
"603 157 OFFCURVE",
"663 133 CURVE",
"743 102 OFFCURVE",
"822 17 OFFCURVE",
"822 17 CURVE",
"822 17 OFFCURVE",
"701 96 OFFCURVE",
"645 114 CURVE",
"595 131 OFFCURVE",
"529 131 OFFCURVE",
"490 128 CURVE",
"459 125 OFFCURVE",
"433 86 OFFCURVE",
"413 78 CURVE",
"399 73 OFFCURVE",
"371 66 OFFCURVE",
"367 80 CURVE"
);
},
{
closed = 1;
nodes = (
"11 314 LINE",
"6 325 OFFCURVE",
"18 360 OFFCURVE",
"28 378 CURVE",
"37 394 OFFCURVE",
"51 412 OFFCURVE",
"69 412 CURVE",
"100 412 OFFCURVE",
"136 342 OFFCURVE",
"163 316 CURVE",
"191 290 OFFCURVE",
"237 253 OFFCURVE",
"237 253 CURVE",
"237 253 OFFCURVE",
"222 386 OFFCURVE",
"402 397 CURVE",
"453 401 OFFCURVE",
"523 391 OFFCURVE",
"580 385 CURVE",
"648 378 OFFCURVE",
"785 460 OFFCURVE",
"788 533 CURVE",
"791 617 OFFCURVE",
"729 714 OFFCURVE",
"729 714 CURVE",
"729 714 OFFCURVE",
"861 625 OFFCURVE",
"855 518 CURVE",
"849 410 OFFCURVE",
"749 305 OFFCURVE",
"580 320 CURVE",
"517 326 OFFCURVE",
"441 348 OFFCURVE",
"393 349 CURVE",
"347 350 OFFCURVE",
"279 329 OFFCURVE",
"277 267 CURVE",
"276 214 OFFCURVE",
"334 197 OFFCURVE",
"349 181 CURVE",
"360 169 OFFCURVE",
"342 148 OFFCURVE",
"323 151 CURVE",
"270 159 OFFCURVE",
"261 201 OFFCURVE",
"237 221 CURVE",
"213 241 OFFCURVE",
"193 258 OFFCURVE",
"171 276 CURVE",
"145 295 OFFCURVE",
"106 326 OFFCURVE",
"87 327 CURVE",
"73 328 OFFCURVE",
"67 318 OFFCURVE",
"57 315 CURVE",
"45 312 OFFCURVE",
"16 304 OFFCURVE",
"11 314 CURVE"
);
},
{
closed = 1;
nodes = (
"243 432 LINE",
"233 433 OFFCURVE",
"262 462 OFFCURVE",
"262 479 CURVE",
"262 516 OFFCURVE",
"235 535 OFFCURVE",
"235 560 CURVE",
"235 591 OFFCURVE",
"277 620 OFFCURVE",
"297 618 CURVE",
"321 616 OFFCURVE",
"344 600 OFFCURVE",
"345 575 CURVE",
"346 560 OFFCURVE",
"339 529 OFFCURVE",
"330 529 CURVE",
"320 528 OFFCURVE",
"310 572 OFFCURVE",
"288 572 CURVE",
"277 572 OFFCURVE",
"263 560 OFFCURVE",
"263 549 CURVE",
"264 518 OFFCURVE",
"321 495 OFFCURVE",
"322 474 CURVE",
"322 445 OFFCURVE",
"253 431 OFFCURVE",
"243 432 CURVE"
);
}
);
width = 865;
}
);
unicode = 3069;
},
{
glyphname = "na-hira";
lastChange = "2020-04-30 22:55:52 +0000";
layers = (
{
layerId = "1305C52C-0BD1-483E-A343-C05F3AFF2931";
paths = (
{
closed = 1;
nodes = (
"4 323 OFFCURVE",
"26 389 OFFCURVE",
"42 408 CURVE",
"55 425 OFFCURVE",
"90 467 OFFCURVE",
"110 463 CURVE",
"145 457 OFFCURVE",
"126 403 OFFCURVE",
"137 384 CURVE",
"164 334 OFFCURVE",
"193 309 OFFCURVE",
"227 271 CURVE",
"261 234 OFFCURVE",
"331 162 OFFCURVE",
"337 169 CURVE",
"343 177 OFFCURVE",
"268 259 OFFCURVE",
"248 324 CURVE",
"225 399 OFFCURVE",
"220 470 OFFCURVE",
"236 509 CURVE",
"261 572 OFFCURVE",
"315 619 OFFCURVE",
"395 617 CURVE",
"442 616 OFFCURVE",
"517 584 OFFCURVE",
"566 538 CURVE",
"590 515 OFFCURVE",
"656 430 OFFCURVE",
"652 300 CURVE",
"652 270 OFFCURVE",
"608 203 OFFCURVE",
"602 208 CURVE",
"593 215 OFFCURVE",
"593 325 OFFCURVE",
"586 360 CURVE",
"573 422 OFFCURVE",
"483 565 OFFCURVE",
"368 562 CURVE",
"308 561 OFFCURVE",
"258 530 OFFCURVE",
"260 437 CURVE",
"261 356 OFFCURVE",
"301 304 OFFCURVE",
"334 257 CURVE",
"364 213 OFFCURVE",
"430 157 OFFCURVE",
"464 154 CURVE",
"484 152 OFFCURVE",
"516 145 OFFCURVE",
"516 114 CURVE",
"516 97 OFFCURVE",
"486 81 OFFCURVE",
"440 85 CURVE",
"396 88 OFFCURVE",
"308 145 OFFCURVE",
"277 171 CURVE",
"180 249 OFFCURVE",
"93 348 OFFCURVE",
"68 340 CURVE",
"48 334 OFFCURVE",
"19 308 OFFCURVE",
"12 315 CURVE"
);
},
{
closed = 1;
nodes = (
"389 293 OFFCURVE",
"421 311 OFFCURVE",
"421 323 CURVE",
"421 345 OFFCURVE",
"356 391 OFFCURVE",
"360 407 CURVE",
"364 420 OFFCURVE",
"401 408 OFFCURVE",
"411 397 CURVE",
"424 384 OFFCURVE",
"445 374 OFFCURVE",
"462 368 CURVE",
"480 362 OFFCURVE",
"499 358 OFFCURVE",
"500 343 CURVE",
"502 327 OFFCURVE",
"449 291 OFFCURVE",
"431 281 CURVE",
"422 276 OFFCURVE",
"398 276 OFFCURVE",
"394 283 CURVE"
);
}
);
width = 662;
}
);
unicode = 306A;
},
{
glyphname = "ni-hira";
lastChange = "2020-04-30 23:01:13 +0000";
layers = (
{
layerId = "1305C52C-0BD1-483E-A343-C05F3AFF2931";
paths = (
{
closed = 1;
nodes = (
"451 72 OFFCURVE",
"457 98 OFFCURVE",
"458 106 CURVE",
"459 112 OFFCURVE",
"468 114 OFFCURVE",
"468 119 CURVE",
"469 128 OFFCURVE",
"430 157 OFFCURVE",
"436 164 CURVE",
"441 169 OFFCURVE",
"516 140 OFFCURVE",
"517 112 CURVE",
"517 106 OFFCURVE",
"476 60 OFFCURVE",
"460 67 CURVE"
);
},
{
closed = 1;
nodes = (
"5 226 OFFCURVE",
"10 271 OFFCURVE",
"17 290 CURVE",
"26 318 OFFCURVE",
"57 375 OFFCURVE",
"79 385 CURVE",
"94 391 OFFCURVE",
"110 388 OFFCURVE",
"119 382 CURVE",
"127 375 OFFCURVE",
"123 356 OFFCURVE",
"129 348 CURVE",
"135 340 OFFCURVE",
"147 331 OFFCURVE",
"157 331 CURVE",
"258 331 OFFCURVE",
"720 330 OFFCURVE",
"739 331 CURVE",
"772 332 OFFCURVE",
"801 358 OFFCURVE",
"820 357 CURVE",
"838 356 OFFCURVE",
"850 347 OFFCURVE",
"851 335 CURVE",
"852 319 OFFCURVE",
"818 277 OFFCURVE",
"792 277 CURVE",
"764 276 OFFCURVE",
"749 292 OFFCURVE",
"731 292 CURVE",
"628 292 OFFCURVE",
"269 297 OFFCURVE",
"157 295 CURVE",
"129 295 OFFCURVE",
"99 283 OFFCURVE",
"77 268 CURVE",
"58 254 OFFCURVE",
"26 221 OFFCURVE",
"16 223 CURVE"
);
},
{
closed = 1;
nodes = (
"224 521 OFFCURVE",
"297 571 OFFCURVE",
"339 572 CURVE",
"352 573 OFFCURVE",
"372 569 OFFCURVE",
"372 556 CURVE",
"373 541 OFFCURVE",
"348 518 OFFCURVE",
"350 498 CURVE",
"351 473 OFFCURVE",
"403 423 OFFCURVE",
"454 426 CURVE",
"557 432 OFFCURVE",
"611 528 OFFCURVE",
"628 579 CURVE",
"647 637 OFFCURVE",
"637 686 OFFCURVE",
"648 686 CURVE",
"666 687 OFFCURVE",
"666 557 OFFCURVE",
"604 462 CURVE",
"571 413 OFFCURVE",
"504 381 OFFCURVE",
"445 384 CURVE",
"364 388 OFFCURVE",
"286 437 OFFCURVE",
"260 477 CURVE",
"253 488 OFFCURVE",
"240 483 OFFCURVE",
"237 490 CURVE"
);
},
{
closed = 1;
nodes = (
"365 33 OFFCURVE",
"367 41 OFFCURVE",
"362 52 CURVE",
"351 79 OFFCURVE",
"276 103 OFFCURVE",
"277 171 CURVE",
"277 216 OFFCURVE",
"317 263 OFFCURVE",
"362 264 CURVE",
"410 264 OFFCURVE",
"498 230 OFFCURVE",
"545 189 CURVE",
"628 116 OFFCURVE",
"642 15 OFFCURVE",
"634 14 CURVE",
"628 12 OFFCURVE",
"583 105 OFFCURVE",
"526 154 CURVE",
"453 217 OFFCURVE",
"403 223 OFFCURVE",
"368 224 CURVE",
"346 224 OFFCURVE",
"313 212 OFFCURVE",
"314 180 CURVE",
"315 152 OFFCURVE",
"345 136 OFFCURVE",
"365 134 CURVE",
"385 132 OFFCURVE",
"409 132 OFFCURVE",
"420 124 CURVE",
"432 116 OFFCURVE",
"433 101 OFFCURVE",
"432 88 CURVE",
"430 70 OFFCURVE",
"414 40 OFFCURVE",
"401 33 CURVE",
"393 29 OFFCURVE",
"375 25 OFFCURVE",
"371 28 CURVE"
);
}
);
width = 861;
}
);
unicode = 306B;
},
{
glyphname = "nu-hira";
lastChange = "2020-04-30 23:01:31 +0000";
layers = (
{
layerId = "1305C52C-0BD1-483E-A343-C05F3AFF2931";
paths = (
{
closed = 1;
nodes = (
"441 80 OFFCURVE",
"443 106 OFFCURVE",
"445 116 CURVE",
"446 123 OFFCURVE",
"457 130 OFFCURVE",
"455 139 CURVE",
"454 149 OFFCURVE",
"419 176 OFFCURVE",
"427 183 CURVE",
"431 186 OFFCURVE",
"507 148 OFFCURVE",
"507 130 CURVE",
"508 121 OFFCURVE",
"470 75 OFFCURVE",
"452 78 CURVE"
);
},
{
closed = 1;
nodes = (
"6 285 OFFCURVE",
"16 294 OFFCURVE",
"22 303 CURVE",
"29 316 OFFCURVE",
"32 342 OFFCURVE",
"47 368 CURVE",
"69 405 OFFCURVE",
"95 421 OFFCURVE",
"119 420 CURVE",
"133 419 OFFCURVE",
"142 403 OFFCURVE",
"144 391 CURVE",
"147 374 OFFCURVE",
"135 348 OFFCURVE",
"161 347 CURVE",
"219 344 OFFCURVE",
"505 346 OFFCURVE",
"505 346 CURVE",
"505 346 OFFCURVE",
"460 490 OFFCURVE",
"445 542 CURVE",
"437 572 OFFCURVE",
"413 660 OFFCURVE",
"418 661 CURVE",
"426 663 OFFCURVE",
"456 580 OFFCURVE",
"468 549 CURVE",
"489 496 OFFCURVE",
"538 345 OFFCURVE",
"538 345 CURVE",
"538 345 OFFCURVE",
"664 345 OFFCURVE",
"710 345 CURVE",
"740 345 OFFCURVE",
"776 368 OFFCURVE",
"799 367 CURVE",
"818 366 OFFCURVE",
"848 360 OFFCURVE",
"848 338 CURVE",
"848 326 OFFCURVE",
"810 294 OFFCURVE",
"790 293 CURVE",
"782 293 OFFCURVE",
"739 302 OFFCURVE",
"720 302 CURVE",
"682 303 OFFCURVE",
"552 304 OFFCURVE",
"552 304 CURVE",
"552 304 OFFCURVE",
"592 185 OFFCURVE",
"605 151 CURVE",
"609 140 OFFCURVE",
"637 131 OFFCURVE",
"642 110 CURVE",
"645 96 OFFCURVE",
"611 58 OFFCURVE",
"595 58 CURVE",
"584 58 OFFCURVE",
"563 51 OFFCURVE",
"562 61 CURVE",
"561 78 OFFCURVE",
"567 113 OFFCURVE",
"557 132 CURVE",
"546 154 OFFCURVE",
"518 173 OFFCURVE",
"495 191 CURVE",
"474 207 OFFCURVE",
"431 236 OFFCURVE",
"372 238 CURVE",
"339 239 OFFCURVE",
"309 226 OFFCURVE",
"308 203 CURVE",
"307 183 OFFCURVE",
"325 157 OFFCURVE",
"347 148 CURVE",
"364 142 OFFCURVE",
"386 151 OFFCURVE",
"410 140 CURVE",
"417 136 OFFCURVE",
"424 95 OFFCURVE",
"415 79 CURVE",
"401 53 OFFCURVE",
"371 37 OFFCURVE",
"362 41 CURVE",
"355 44 OFFCURVE",
"359 61 OFFCURVE",
"355 67 CURVE",
"338 92 OFFCURVE",
"264 128 OFFCURVE",
"264 192 CURVE",
"264 231 OFFCURVE",
"295 280 OFFCURVE",
"371 278 CURVE",
"423 277 OFFCURVE",
"472 245 OFFCURVE",
"483 237 CURVE",
"503 223 OFFCURVE",
"549 175 OFFCURVE",
"543 190 CURVE",
"537 207 OFFCURVE",
"515 305 OFFCURVE",
"515 305 CURVE",
"515 305 OFFCURVE",
"253 307 OFFCURVE",
"179 306 CURVE",
"144 305 OFFCURVE",
"109 301 OFFCURVE",
"87 294 CURVE",
"68 289 OFFCURVE",
"61 280 OFFCURVE",
"51 280 CURVE",
"39 280 OFFCURVE",
"17 272 OFFCURVE",
"12 278 CURVE"
);
}
);
width = 858;
}
);
unicode = 306C;
},
{
glyphname = "ne-hira";
lastChange = "2020-04-30 23:02:09 +0000";
layers = (
{
layerId = "1305C52C-0BD1-483E-A343-C05F3AFF2931";
paths = (
{
closed = 1;
nodes = (
"-3 161 OFFCURVE",
"34 229 OFFCURVE",
"48 250 CURVE",
"58 267 OFFCURVE",
"82 281 OFFCURVE",
"97 281 CURVE",
"120 281 OFFCURVE",
"123 237 OFFCURVE",
"139 236 CURVE",
"168 234 OFFCURVE",
"261 234 OFFCURVE",
"261 234 CURVE",
"261 234 OFFCURVE",
"168 324 OFFCURVE",
"158 381 CURVE",
"144 454 OFFCURVE",
"173 505 OFFCURVE",
"209 526 CURVE",
"271 563 OFFCURVE",
"352 556 OFFCURVE",
"411 532 CURVE",
"470 509 OFFCURVE",
"524 439 OFFCURVE",
"561 386 CURVE",
"591 341 OFFCURVE",
"620 287 OFFCURVE",
"669 263 CURVE",
"808 194 OFFCURVE",
"861 244 OFFCURVE",
"866 235 CURVE",
"869 226 OFFCURVE",
"777 179 OFFCURVE",
"685 209 CURVE",
"604 237 OFFCURVE",
"550 294 OFFCURVE",
"523 328 CURVE",
"457 416 OFFCURVE",
"387 496 OFFCURVE",
"302 496 CURVE",
"229 497 OFFCURVE",
"206 447 OFFCURVE",
"207 395 CURVE",
"208 329 OFFCURVE",
"274 246 OFFCURVE",
"320 245 CURVE",
"360 245 OFFCURVE",
"410 244 OFFCURVE",
"430 244 CURVE",
"460 243 OFFCURVE",
"419 189 OFFCURVE",
"394 188 CURVE",
"375 187 OFFCURVE",
"369 189 OFFCURVE",
"357 189 CURVE",
"339 189 OFFCURVE",
"324 205 OFFCURVE",
"305 206 CURVE",
"268 207 OFFCURVE",
"175 207 OFFCURVE",
"128 206 CURVE",
"88 206 OFFCURVE",
"37 138 OFFCURVE",
"15 151 CURVE"
);
},
{
closed = 1;
nodes = (
"279 333 OFFCURVE",
"316 349 OFFCURVE",
"315 366 CURVE",
"314 389 OFFCURVE",
"268 423 OFFCURVE",
"273 431 CURVE",
"280 440 OFFCURVE",
"318 415 OFFCURVE",
"337 405 CURVE",
"353 396 OFFCURVE",
"408 404 OFFCURVE",
"417 379 CURVE",
"421 366 OFFCURVE",
"389 344 OFFCURVE",
"370 334 CURVE",
"349 324 OFFCURVE",
"298 310 OFFCURVE",
"291 318 CURVE"
);
}
);
width = 876;
}
);
unicode = 306D;
},
{
glyphname = "no-hira";
lastChange = "2020-04-30 23:02:20 +0000";
layers = (
{
layerId = "1305C52C-0BD1-483E-A343-C05F3AFF2931";
paths = (
{
closed = 1;
nodes = (
"256 60 OFFCURVE",
"290 77 OFFCURVE",
"289 97 CURVE",
"288 121 OFFCURVE",
"234 194 OFFCURVE",
"242 202 CURVE",
"250 212 OFFCURVE",
"276 178 OFFCURVE",
"296 172 CURVE",
"315 167 OFFCURVE",
"348 176 OFFCURVE",
"362 167 CURVE",
"377 158 OFFCURVE",
"382 127 OFFCURVE",
"375 111 CURVE",
"335 16 OFFCURVE",
"270 34 OFFCURVE",
"265 44 CURVE"
);
},
{
closed = 1;
nodes = (
"95 50 OFFCURVE",
"9 175 OFFCURVE",
"10 242 CURVE",
"12 328 OFFCURVE",
"69 382 OFFCURVE",
"154 383 CURVE",
"299 384 OFFCURVE",
"414 193 OFFCURVE",
"421 193 CURVE",
"429 194 OFFCURVE",
"467 281 OFFCURVE",
"493 321 CURVE",
"526 372 OFFCURVE",
"576 418 OFFCURVE",
"585 517 CURVE",
"597 636 OFFCURVE",
"546 736 OFFCURVE",
"558 741 CURVE",
"570 745 OFFCURVE",
"659 585 OFFCURVE",
"657 494 CURVE",
"655 399 OFFCURVE",
"606 350 OFFCURVE",
"559 299 CURVE",
"515 251 OFFCURVE",
"456 189 OFFCURVE",
"455 135 CURVE",
"454 71 OFFCURVE",
"539 32 OFFCURVE",
"541 8 CURVE",
"544 -31 OFFCURVE",
"475 -42 OFFCURVE",
"461 -41 CURVE",
"448 -40 OFFCURVE",
"457 -4 OFFCURVE",
"456 14 CURVE",
"455 37 OFFCURVE",
"429 65 OFFCURVE",
"424 94 CURVE",
"419 118 OFFCURVE",
"415 170 OFFCURVE",
"415 170 CURVE",
"415 170 OFFCURVE",
"319 318 OFFCURVE",
"192 322 CURVE",
"136 324 OFFCURVE",
"56 290 OFFCURVE",
"56 235 CURVE",
"55 182 OFFCURVE",
"82 148 OFFCURVE",
"118 148 CURVE",
"135 149 OFFCURVE",
"152 164 OFFCURVE",
"167 164 CURVE",
"184 164 OFFCURVE",
"199 142 OFFCURVE",
"200 128 CURVE",
"202 109 OFFCURVE",
"175 50 OFFCURVE",
"142 50 CURVE"
);
}
);
width = 667;
}
);
unicode = 306E;
},
{
glyphname = "ha-hira";
lastChange = "2020-04-30 23:02:33 +0000";
layers = (
{
layerId = "1305C52C-0BD1-483E-A343-C05F3AFF2931";
paths = (
{
closed = 1;
nodes = (
"825 86 OFFCURVE",
"799 211 OFFCURVE",
"763 271 CURVE SMOOTH",
"705 368 OFFCURVE",
"645 376 OFFCURVE",
"645 376 CURVE SMOOTH",
"645 376 OFFCURVE",
"651 340 OFFCURVE",
"629 316 CURVE SMOOTH",
"551 231 OFFCURVE",
"460 322 OFFCURVE",
"446 337 CURVE SMOOTH",
"421 364 OFFCURVE",
"396 408 OFFCURVE",
"399 433 CURVE SMOOTH",
"405 482 OFFCURVE",
"435 492 OFFCURVE",
"435 492 CURVE SMOOTH",
"435 492 OFFCURVE",
"435 506 OFFCURVE",
"427 507 CURVE SMOOTH",
"409 509 OFFCURVE",
"375 460 OFFCURVE",
"345 445 CURVE SMOOTH",
"298 422 OFFCURVE",
"242 418 OFFCURVE",
"242 418 CURVE SMOOTH",
"242 418 OFFCURVE",
"293 347 OFFCURVE",
"309 311 CURVE SMOOTH",
"327 270 OFFCURVE",
"365 177 OFFCURVE",
"348 176 CURVE SMOOTH",
"333 175 OFFCURVE",
"289 286 OFFCURVE",
"215 373 CURVE SMOOTH",
"178 417 OFFCURVE",
"129 480 OFFCURVE",
"94 499 CURVE SMOOTH",
"81 506 OFFCURVE",
"28 498 OFFCURVE",
"14 501 CURVE SMOOTH",
"9 502 OFFCURVE",
"9 514 OFFCURVE",
"13 518 CURVE SMOOTH",
"16 521 OFFCURVE",
"32 523 OFFCURVE",
"36 526 CURVE SMOOTH",
"55 540 OFFCURVE",
"97 598 OFFCURVE",
"121 610 CURVE SMOOTH",
"133 616 OFFCURVE",
"158 611 OFFCURVE",
"166 603 CURVE SMOOTH",
"184 585 OFFCURVE",
"159 552 OFFCURVE",
"165 532 CURVE SMOOTH",
"173 505 OFFCURVE",
"220 449 OFFCURVE",
"220 449 CURVE SMOOTH",
"220 449 OFFCURVE",
"270 440 OFFCURVE",
"307 466 CURVE SMOOTH",
"317 473 OFFCURVE",
"347 498 OFFCURVE",
"358 530 CURVE SMOOTH",
"364 548 OFFCURVE",
"353 582 OFFCURVE",
"360 594 CURVE SMOOTH",
"366 605 OFFCURVE",
"390 611 OFFCURVE",
"400 605 CURVE SMOOTH",
"414 597 OFFCURVE",
"419 552 OFFCURVE",
"442 537 CURVE SMOOTH",
"475 515 OFFCURVE",
"616 476 OFFCURVE",
"688 427 CURVE SMOOTH",
"726 401 OFFCURVE",
"778 322 OFFCURVE",
"799 283 CURVE SMOOTH",
"838 211 OFFCURVE",
"837 90 OFFCURVE",
"831 88 CURVE SMOOTH"
);
},
{
closed = 1;
nodes = (
"532 334 OFFCURVE",
"568 330 OFFCURVE",
"579 348 CURVE SMOOTH",
"586 359 OFFCURVE",
"582 377 OFFCURVE",
"576 388 CURVE SMOOTH",
"559 419 OFFCURVE",
"539 422 OFFCURVE",
"517 429 CURVE SMOOTH",
"499 435 OFFCURVE",
"456 444 OFFCURVE",
"445 423 CURVE SMOOTH",
"440 413 OFFCURVE",
"444 396 OFFCURVE",
"452 384 CURVE SMOOTH",
"462 369 OFFCURVE",
"485 349 OFFCURVE",
"510 341 CURVE SMOOTH"
);
}
);
width = 844;
}
);
unicode = 306F;
},
{
glyphname = "ba-hira";
lastChange = "2020-04-30 23:02:53 +0000";
layers = (
{
layerId = "1305C52C-0BD1-483E-A343-C05F3AFF2931";
paths = (
{
closed = 1;
nodes = (
"823 45 OFFCURVE",
"807 139 OFFCURVE",
"754 231 CURVE SMOOTH",
"714 300 OFFCURVE",
"638 345 OFFCURVE",
"638 345 CURVE",
"638 345 OFFCURVE",
"631 295 OFFCURVE",
"618 275 CURVE SMOOTH",
"604 254 OFFCURVE",
"556 243 OFFCURVE",
"522 249 CURVE SMOOTH",
"464 259 OFFCURVE",
"399 337 OFFCURVE",
"397 372 CURVE SMOOTH",
"392 452 OFFCURVE",
"448 448 OFFCURVE",
"448 448 CURVE",
"412 471 LINE",
"412 471 OFFCURVE",
"366 437 OFFCURVE",
"343 420 CURVE SMOOTH",
"313 398 OFFCURVE",
"207 370 OFFCURVE",
"207 370 CURVE",
"190 397 LINE",
"190 397 LINE",
"190 397 OFFCURVE",
"250 404 OFFCURVE",
"280 419 CURVE SMOOTH",
"310 434 OFFCURVE",
"361 464 OFFCURVE",
"359 507 CURVE SMOOTH",
"358 528 OFFCURVE",
"366 564 OFFCURVE",
"384 563 CURVE SMOOTH",
"413 561 OFFCURVE",
"410 507 OFFCURVE",
"429 495 CURVE SMOOTH",
"465 472 OFFCURVE",
"573 446 OFFCURVE",
"624 422 CURVE SMOOTH",
"885 299 OFFCURVE",
"823 45 OFFCURVE",
"823 45 CURVE"
);
},
{
closed = 1;
nodes = (
"342 144 OFFCURVE",
"271 269 OFFCURVE",
"215 336 CURVE SMOOTH",
"176 383 OFFCURVE",
"118 443 OFFCURVE",
"89 464 CURVE SMOOTH",
"71 477 OFFCURVE",
"4 450 OFFCURVE",
"10 466 CURVE",
"10 466 LINE",
"14 478 OFFCURVE",
"50 509 OFFCURVE",
"73 528 CURVE SMOOTH",
"95 547 OFFCURVE",
"129 576 OFFCURVE",
"146 574 CURVE SMOOTH",
"160 572 OFFCURVE",
"171 553 OFFCURVE",
"171 541 CURVE SMOOTH",
"171 529 OFFCURVE",
"152 504 OFFCURVE",
"157 491 CURVE SMOOTH",
"168 462 OFFCURVE",
"213 408 OFFCURVE",
"244 366 CURVE SMOOTH",
"323 260 OFFCURVE",
"342 144 OFFCURVE",
"342 144 CURVE"
);
},
{
closed = 1;
nodes = (
"558 292 OFFCURVE",
"580 305 OFFCURVE",
"582 322 CURVE SMOOTH",
"585 346 OFFCURVE",
"550 395 OFFCURVE",
"488 400 CURVE SMOOTH",
"453 403 OFFCURVE",
"433 386 OFFCURVE",
"432 363 CURVE SMOOTH",
"431 343 OFFCURVE",
"473 292 OFFCURVE",
"541 292 CURVE SMOOTH"
);
},
{
closed = 1;
nodes = (
"212 465 LINE",
"203 466 OFFCURVE",
"242 496 OFFCURVE",
"242 516 CURVE SMOOTH",
"242 538 OFFCURVE",
"210 573 OFFCURVE",
"211 597 CURVE SMOOTH",
"213 637 OFFCURVE",
"251 656 OFFCURVE",
"280 655 CURVE SMOOTH",
"304 654 OFFCURVE",
"319 628 OFFCURVE",
"320 612 CURVE SMOOTH",
"321 597 OFFCURVE",
"317 569 OFFCURVE",
"308 569 CURVE SMOOTH",
"298 569 OFFCURVE",
"276 613 OFFCURVE",
"264 613 CURVE SMOOTH",
"253 613 OFFCURVE",
"241 600 OFFCURVE",
"242 583 CURVE SMOOTH",
"244 553 OFFCURVE",
"298 529 OFFCURVE",
"298 507 CURVE SMOOTH",
"298 483 OFFCURVE",
"221 463 OFFCURVE",
"212 465 CURVE"
);
}
);
width = 839;
}
);
unicode = 3070;
},
{
glyphname = "pa-hira";
lastChange = "2020-04-30 23:03:05 +0000";
layers = (
{
layerId = "1305C52C-0BD1-483E-A343-C05F3AFF2931";
paths = (
{
closed = 1;
nodes = (
"824 20 OFFCURVE",
"814 113 OFFCURVE",
"777 176 CURVE SMOOTH",
"703 301 OFFCURVE",
"634 318 OFFCURVE",
"634 318 CURVE",
"634 318 OFFCURVE",
"632 274 OFFCURVE",
"619 253 CURVE SMOOTH",
"607 234 OFFCURVE",
"572 223 OFFCURVE",
"547 224 CURVE SMOOTH",
"489 226 OFFCURVE",
"402 317 OFFCURVE",
"402 368 CURVE SMOOTH",
"402 394 OFFCURVE",
"446 433 OFFCURVE",
"446 433 CURVE",
"416 449 LINE",
"416 449 OFFCURVE",
"360 400 OFFCURVE",
"329 384 CURVE SMOOTH",
"279 358 OFFCURVE",
"205 352 OFFCURVE",
"205 352 CURVE",
"191 379 LINE",
"191 379 LINE",
"191 379 OFFCURVE",
"285 390 OFFCURVE",
"312 414 CURVE SMOOTH",
"373 469 OFFCURVE",
"359 492 OFFCURVE",
"361 517 CURVE SMOOTH",
"362 529 OFFCURVE",
"376 543 OFFCURVE",
"387 543 CURVE SMOOTH",
"416 543 OFFCURVE",
"413 493 OFFCURVE",
"428 482 CURVE SMOOTH",
"474 448 OFFCURVE",
"526 441 OFFCURVE",
"583 418 CURVE SMOOTH",
"712 366 OFFCURVE",
"753 311 OFFCURVE",
"793 244 CURVE SMOOTH",
"839 168 OFFCURVE",
"824 20 OFFCURVE",
"824 20 CURVE"
);
},
{
closed = 1;
nodes = (
"341 123 OFFCURVE",
"284 231 OFFCURVE",
"227 300 CURVE SMOOTH",
"183 353 OFFCURVE",
"116 421 OFFCURVE",
"84 445 CURVE SMOOTH",
"68 457 OFFCURVE",
"14 431 OFFCURVE",
"10 440 CURVE",
"10 440 LINE",
"5 450 OFFCURVE",
"56 494 OFFCURVE",
"80 513 CURVE SMOOTH",
"101 530 OFFCURVE",
"137 565 OFFCURVE",
"153 557 CURVE SMOOTH",
"180 544 OFFCURVE",
"156 491 OFFCURVE",
"166 469 CURVE SMOOTH",
"182 433 OFFCURVE",
"237 357 OFFCURVE",
"265 315 CURVE SMOOTH",
"359 174 OFFCURVE",
"341 123 OFFCURVE",
"341 123 CURVE"
);
},
{
closed = 1;
nodes = (
"558 275 OFFCURVE",
"581 279 OFFCURVE",
"581 304 CURVE SMOOTH",
"581 351 OFFCURVE",
"519 375 OFFCURVE",
"485 377 CURVE SMOOTH",
"465 378 OFFCURVE",
"445 369 OFFCURVE",
"445 346 CURVE SMOOTH",
"445 327 OFFCURVE",
"483 280 OFFCURVE",
"542 276 CURVE SMOOTH"
);
},
{
closed = 1;
nodes = (
"272 509 LINE",
"220 507 OFFCURVE",
"192 565 OFFCURVE",
"193 601 CURVE SMOOTH",
"194 630 OFFCURVE",
"204 678 OFFCURVE",
"264 680 CURVE SMOOTH",
"299 681 OFFCURVE",
"342 644 OFFCURVE",
"342 613 CURVE SMOOTH",
"342 602 OFFCURVE",
"340 577 OFFCURVE",
"334 576 CURVE SMOOTH",
"329 575 OFFCURVE",
"313 592 OFFCURVE",
"309 603 CURVE SMOOTH",
"303 619 OFFCURVE",
"274 641 OFFCURVE",
"261 641 CURVE SMOOTH",
"234 641 OFFCURVE",
"223 622 OFFCURVE",
"223 595 CURVE SMOOTH",
"223 579 OFFCURVE",
"235 545 OFFCURVE",
"252 545 CURVE SMOOTH",
"269 545 OFFCURVE",
"274 566 OFFCURVE",
"287 571 CURVE SMOOTH",
"299 576 OFFCURVE",
"318 583 OFFCURVE",
"327 570 CURVE SMOOTH",
"333 561 OFFCURVE",
"292 510 OFFCURVE",
"272 509 CURVE"
);
}
);
width = 836;
}
);
unicode = 3071;
},
{
glyphname = "hi-hira";
lastChange = "2020-04-30 23:04:06 +0000";
layers = (
{
layerId = "1305C52C-0BD1-483E-A343-C05F3AFF2931";
paths = (
{
closed = 1;
nodes = (
"759 -51 OFFCURVE",
"754 -17 OFFCURVE",
"745 -6 CURVE SMOOTH",
"678 73 OFFCURVE",
"666 86 OFFCURVE",
"559 134 CURVE SMOOTH",
"451 181 OFFCURVE",
"363 183 OFFCURVE",
"363 183 CURVE SMOOTH",
"363 183 OFFCURVE",
"381 163 OFFCURVE",
"380 146 CURVE",
"380 132 OFFCURVE",
"340 116 OFFCURVE",
"319 117 CURVE",
"286 117 OFFCURVE",
"227 172 OFFCURVE",
"224 201 CURVE SMOOTH",
"220 243 OFFCURVE",
"294 248 OFFCURVE",
"294 248 CURVE SMOOTH",
"294 248 OFFCURVE",
"251 305 OFFCURVE",
"225 327 CURVE SMOOTH",
"195 354 OFFCURVE",
"147 391 OFFCURVE",
"125 393 CURVE",
"97 397 OFFCURVE",
"17 380 OFFCURVE",
"11 397 CURVE SMOOTH",
"5 413 OFFCURVE",
"37 452 OFFCURVE",
"58 471 CURVE SMOOTH",
"79 491 OFFCURVE",
"133 525 OFFCURVE",
"144 515 CURVE",
"155 504 OFFCURVE",
"142 474 OFFCURVE",
"147 458 CURVE SMOOTH",
"156 432 OFFCURVE",
"204 392 OFFCURVE",
"243 350 CURVE SMOOTH",
"295 294 OFFCURVE",
"330 248 OFFCURVE",
"330 248 CURVE SMOOTH",
"330 248 OFFCURVE",
"472 234 OFFCURVE",
"589 175 CURVE SMOOTH",
"686 125 OFFCURVE",
"771 25 OFFCURVE",
"775 -5 CURVE SMOOTH",
"777 -22 OFFCURVE",
"769 -50 OFFCURVE",
"764 -50 CURVE"
);
},
{
closed = 1;
nodes = (
"314 143 OFFCURVE",
"335 144 OFFCURVE",
"340 150 CURVE",
"350 161 OFFCURVE",
"329 187 OFFCURVE",
"329 187 CURVE SMOOTH",
"329 187 OFFCURVE",
"269 193 OFFCURVE",
"263 182 CURVE SMOOTH",
"259 175 OFFCURVE",
"289 153 OFFCURVE",
"302 148 CURVE SMOOTH"
);
},
{
closed = 1;
nodes = (
"346 285 OFFCURVE",
"393 320 OFFCURVE",
"393 334 CURVE",
"394 351 OFFCURVE",
"311 379 OFFCURVE",
"311 405 CURVE SMOOTH",
"311 437 OFFCURVE",
"368 489 OFFCURVE",
"411 490 CURVE SMOOTH",
"455 490 OFFCURVE",
"519 496 OFFCURVE",
"563 503 CURVE SMOOTH",
"640 516 OFFCURVE",
"732 588 OFFCURVE",
"738 644 CURVE SMOOTH",
"741 675 OFFCURVE",
"714 746 OFFCURVE",
"720 750 CURVE",
"728 754 OFFCURVE",
"777 670 OFFCURVE",
"777 631 CURVE SMOOTH",
"776 499 OFFCURVE",
"648 434 OFFCURVE",
"584 432 CURVE SMOOTH",
"516 430 OFFCURVE",
"440 430 OFFCURVE",
"401 430 CURVE SMOOTH",
"381 430 OFFCURVE",
"360 415 OFFCURVE",
"360 400 CURVE SMOOTH",
"360 363 OFFCURVE",
"483 366 OFFCURVE",
"487 325 CURVE SMOOTH",
"489 304 OFFCURVE",
"460 279 OFFCURVE",
"441 277 CURVE SMOOTH",
"413 274 OFFCURVE",
"403 275 OFFCURVE",
"389 273 CURVE",
"378 272 OFFCURVE",
"361 264 OFFCURVE",
"355 272 CURVE"
);
}
);
width = 787;
}
);
unicode = 3072;
},
{
glyphname = "bi-hira";
lastChange = "2020-04-30 23:04:27 +0000";
layers = (
{
layerId = "1305C52C-0BD1-483E-A343-C05F3AFF2931";
paths = (
{
closed = 1;
nodes = (
"701 -12 OFFCURVE",
"681 40 OFFCURVE",
"627 83 CURVE SMOOTH",
"603 102 OFFCURVE",
"547 136 OFFCURVE",
"488 156 CURVE SMOOTH",
"412 182 OFFCURVE",
"330 193 OFFCURVE",
"330 193 CURVE",
"330 193 OFFCURVE",
"346 168 OFFCURVE",
"344 154 CURVE SMOOTH",
"342 142 OFFCURVE",
"313 129 OFFCURVE",
"295 130 CURVE SMOOTH",
"277 131 OFFCURVE",
"249 144 OFFCURVE",
"234 160 CURVE SMOOTH",
"220 175 OFFCURVE",
"209 204 OFFCURVE",
"211 220 CURVE SMOOTH",
"216 257 OFFCURVE",
"268 251 OFFCURVE",
"268 251 CURVE",
"268 251 OFFCURVE",
"232 304 OFFCURVE",
"194 334 CURVE SMOOTH",
"165 357 OFFCURVE",
"118 390 OFFCURVE",
"88 390 CURVE SMOOTH",
"73 390 OFFCURVE",
"56 382 OFFCURVE",
"43 382 CURVE SMOOTH",
"30 382 OFFCURVE",
"8 380 OFFCURVE",
"10 391 CURVE SMOOTH",
"12 403 OFFCURVE",
"36 439 OFFCURVE",
"54 457 CURVE SMOOTH",
"72 475 OFFCURVE",
"109 500 OFFCURVE",
"123 498 CURVE SMOOTH",
"137 496 OFFCURVE",
"129 449 OFFCURVE",
"139 434 CURVE SMOOTH",
"160 403 OFFCURVE",
"222 346 OFFCURVE",
"250 316 CURVE SMOOTH",
"269 295 OFFCURVE",
"306 249 OFFCURVE",
"306 249 CURVE",
"306 249 OFFCURVE",
"459 231 OFFCURVE",
"542 182 CURVE SMOOTH",
"751 59 OFFCURVE",
"701 -12 OFFCURVE",
"701 -12 CURVE"
);
},
{
closed = 1;
nodes = (
"286 158 OFFCURVE",
"304 157 OFFCURVE",
"309 163 CURVE SMOOTH",
"320 176 OFFCURVE",
"297 198 OFFCURVE",
"297 198 CURVE",
"297 198 OFFCURVE",
"258 202 OFFCURVE",
"248 200 CURVE SMOOTH",
"242 199 OFFCURVE",
"247 187 OFFCURVE",
"249 182 CURVE SMOOTH",
"252 175 OFFCURVE",
"265 164 OFFCURVE",
"276 161 CURVE SMOOTH"
);
},
{
closed = 1;
nodes = (
"331 272 LINE",
"331 300 OFFCURVE",
"367 308 OFFCURVE",
"367 328 CURVE SMOOTH",
"367 351 OFFCURVE",
"290 347 OFFCURVE",
"290 402 CURVE SMOOTH",
"290 483 OFFCURVE",
"392 477 OFFCURVE",
"445 479 CURVE SMOOTH",
"503 481 OFFCURVE",
"669 516 OFFCURVE",
"674 640 CURVE SMOOTH",
"675 663 OFFCURVE",
"652 713 OFFCURVE",
"652 713 CURVE",
"652 713 OFFCURVE",
"720 680 OFFCURVE",
"719 580 CURVE SMOOTH",
"718 480 OFFCURVE",
"580 414 OFFCURVE",
"515 413 CURVE SMOOTH",
"471 412 OFFCURVE",
"408 416 OFFCURVE",
"378 416 CURVE SMOOTH",
"362 416 OFFCURVE",
"328 406 OFFCURVE",
"329 390 CURVE SMOOTH",
"330 372 OFFCURVE",
"373 356 OFFCURVE",
"398 354 CURVE SMOOTH",
"418 352 OFFCURVE",
"449 333 OFFCURVE",
"450 322 CURVE SMOOTH",
"451 309 OFFCURVE",
"428 285 OFFCURVE",
"412 282 CURVE SMOOTH",
"394 279 OFFCURVE",
"373 279 OFFCURVE",
"360 278 CURVE SMOOTH",
"350 277 OFFCURVE",
"331 263 OFFCURVE",
"331 272 CURVE"
);
},
{
closed = 1;
nodes = (
"190 419 LINE",
"180 422 OFFCURVE",
"216 450 OFFCURVE",
"216 470 CURVE SMOOTH",
"216 491 OFFCURVE",
"186 523 OFFCURVE",
"187 548 CURVE SMOOTH",
"188 575 OFFCURVE",
"228 603 OFFCURVE",
"251 604 CURVE SMOOTH",
"275 605 OFFCURVE",
"301 587 OFFCURVE",
"302 570 CURVE SMOOTH",
"303 554 OFFCURVE",
"295 521 OFFCURVE",
"285 521 CURVE SMOOTH",
"275 521 OFFCURVE",
"257 559 OFFCURVE",
"246 559 CURVE SMOOTH",
"235 559 OFFCURVE",
"220 547 OFFCURVE",
"221 536 CURVE SMOOTH",
"224 503 OFFCURVE",
"278 479 OFFCURVE",
"276 460 CURVE SMOOTH",
"273 430 OFFCURVE",
"200 417 OFFCURVE",
"190 419 CURVE"
);
}
);
width = 729;
}
);
unicode = 3073;
},
{
glyphname = "pi-hira";
lastChange = "2020-04-30 23:04:45 +0000";
layers = (
{
layerId = "1305C52C-0BD1-483E-A343-C05F3AFF2931";
paths = (
{
closed = 1;
nodes = (
"701 -13 OFFCURVE",
"682 40 OFFCURVE",
"627 83 CURVE SMOOTH",
"603 102 OFFCURVE",
"547 135 OFFCURVE",
"488 155 CURVE SMOOTH",
"413 180 OFFCURVE",
"330 193 OFFCURVE",
"330 193 CURVE",
"330 193 OFFCURVE",
"346 167 OFFCURVE",
"344 154 CURVE SMOOTH",
"342 142 OFFCURVE",
"314 128 OFFCURVE",
"295 129 CURVE SMOOTH",
"277 130 OFFCURVE",
"248 144 OFFCURVE",
"234 159 CURVE SMOOTH",
"220 174 OFFCURVE",
"209 204 OFFCURVE",
"211 220 CURVE SMOOTH",
"216 257 OFFCURVE",
"268 251 OFFCURVE",
"268 251 CURVE",
"268 251 OFFCURVE",
"232 303 OFFCURVE",
"194 333 CURVE SMOOTH",
"165 356 OFFCURVE",
"119 390 OFFCURVE",
"88 390 CURVE SMOOTH",
"73 390 OFFCURVE",
"56 382 OFFCURVE",
"43 382 CURVE SMOOTH",
"30 382 OFFCURVE",
"8 380 OFFCURVE",
"10 390 CURVE SMOOTH",
"12 402 OFFCURVE",
"36 438 OFFCURVE",
"55 456 CURVE SMOOTH",
"74 474 OFFCURVE",
"110 499 OFFCURVE",
"124 498 CURVE SMOOTH",
"138 497 OFFCURVE",
"129 449 OFFCURVE",
"139 434 CURVE SMOOTH",
"160 403 OFFCURVE",
"223 347 OFFCURVE",
"250 316 CURVE SMOOTH",
"269 294 OFFCURVE",
"306 249 OFFCURVE",
"306 249 CURVE",
"306 249 OFFCURVE",
"459 231 OFFCURVE",
"542 181 CURVE SMOOTH",
"749 56 OFFCURVE",
"701 -13 OFFCURVE",
"701 -13 CURVE"
);
},
{
closed = 1;
nodes = (
"287 156 OFFCURVE",
"304 157 OFFCURVE",
"309 162 CURVE SMOOTH",
"322 175 OFFCURVE",
"297 197 OFFCURVE",
"297 197 CURVE",
"297 197 OFFCURVE",
"258 202 OFFCURVE",
"248 199 CURVE SMOOTH",
"242 197 OFFCURVE",
"247 187 OFFCURVE",
"249 182 CURVE SMOOTH",
"252 175 OFFCURVE",
"266 164 OFFCURVE",
"276 160 CURVE SMOOTH"
);
},
{
closed = 1;
nodes = (
"331 271 LINE",
"331 300 OFFCURVE",
"367 308 OFFCURVE",
"367 328 CURVE SMOOTH",
"367 351 OFFCURVE",
"290 347 OFFCURVE",
"290 402 CURVE SMOOTH",
"290 482 OFFCURVE",
"392 477 OFFCURVE",
"445 478 CURVE SMOOTH",
"503 479 OFFCURVE",
"669 515 OFFCURVE",
"674 639 CURVE SMOOTH",
"675 663 OFFCURVE",
"652 713 OFFCURVE",
"652 713 CURVE",
"652 713 OFFCURVE",
"720 679 OFFCURVE",
"719 580 CURVE SMOOTH",
"718 479 OFFCURVE",
"580 413 OFFCURVE",
"515 412 CURVE SMOOTH",
"471 411 OFFCURVE",
"409 415 OFFCURVE",
"378 415 CURVE SMOOTH",
"362 415 OFFCURVE",
"328 405 OFFCURVE",
"329 389 CURVE SMOOTH",
"330 372 OFFCURVE",
"373 355 OFFCURVE",
"398 353 CURVE SMOOTH",
"418 351 OFFCURVE",
"449 333 OFFCURVE",
"450 321 CURVE SMOOTH",
"451 309 OFFCURVE",
"428 284 OFFCURVE",
"412 281 CURVE SMOOTH",
"394 278 OFFCURVE",
"374 278 OFFCURVE",
"360 277 CURVE SMOOTH",
"350 276 OFFCURVE",
"331 263 OFFCURVE",
"331 271 CURVE"
);
},
{
closed = 1;
nodes = (
"231 464 LINE",
"179 462 OFFCURVE",
"151 520 OFFCURVE",
"152 556 CURVE SMOOTH",
"153 585 OFFCURVE",
"163 633 OFFCURVE",
"223 635 CURVE SMOOTH",
"258 636 OFFCURVE",
"301 599 OFFCURVE",
"301 568 CURVE SMOOTH",
"301 557 OFFCURVE",
"299 532 OFFCURVE",
"293 531 CURVE SMOOTH",
"288 530 OFFCURVE",
"272 547 OFFCURVE",
"268 558 CURVE SMOOTH",
"262 574 OFFCURVE",
"233 596 OFFCURVE",
"220 596 CURVE SMOOTH",
"193 596 OFFCURVE",
"182 577 OFFCURVE",
"182 550 CURVE SMOOTH",
"182 534 OFFCURVE",
"194 500 OFFCURVE",
"211 500 CURVE SMOOTH",
"228 500 OFFCURVE",
"233 521 OFFCURVE",
"246 526 CURVE SMOOTH",
"258 531 OFFCURVE",
"277 538 OFFCURVE",
"286 525 CURVE SMOOTH",
"292 516 OFFCURVE",
"251 465 OFFCURVE",
"231 464 CURVE"
);
}
);
width = 729;
}
);
unicode = 3074;
},
{
glyphname = "hu-hira";
lastChange = "2020-04-30 23:04:57 +0000";
layers = (
{
layerId = "1305C52C-0BD1-483E-A343-C05F3AFF2931";
paths = (
{
closed = 1;
nodes = (
"614 8 OFFCURVE",
"587 72 OFFCURVE",
"549 111 CURVE SMOOTH",
"478 184 OFFCURVE",
"424 194 OFFCURVE",
"424 194 CURVE SMOOTH",
"424 194 OFFCURVE",
"435 123 OFFCURVE",
"399 119 CURVE SMOOTH",
"359 115 OFFCURVE",
"320 138 OFFCURVE",
"290 157 CURVE SMOOTH",
"262 175 OFFCURVE",
"221 207 OFFCURVE",
"219 231 CURVE SMOOTH",
"217 252 OFFCURVE",
"255 278 OFFCURVE",
"277 279 CURVE SMOOTH",
"301 280 OFFCURVE",
"353 273 OFFCURVE",
"353 273 CURVE",
"324 312 LINE",
"324 312 OFFCURVE",
"242 314 OFFCURVE",
"200 314 CURVE SMOOTH",
"161 314 OFFCURVE",
"121 306 OFFCURVE",
"90 299 CURVE SMOOTH",
"67 294 OFFCURVE",
"20 265 OFFCURVE",
"12 274 CURVE SMOOTH",
"2 286 OFFCURVE",
"44 365 OFFCURVE",
"63 390 CURVE SMOOTH",
"74 405 OFFCURVE",
"98 426 OFFCURVE",
"119 426 CURVE SMOOTH",
"147 426 OFFCURVE",
"141 373 OFFCURVE",
"154 361 CURVE SMOOTH",
"172 345 OFFCURVE",
"303 347 OFFCURVE",
"303 347 CURVE SMOOTH",
"303 347 OFFCURVE",
"275 379 OFFCURVE",
"261 393 CURVE SMOOTH",
"248 406 OFFCURVE",
"220 429 OFFCURVE",
"206 429 CURVE SMOOTH",
"186 429 OFFCURVE",
"175 407 OFFCURVE",
"167 415 CURVE SMOOTH",
"161 421 OFFCURVE",
"171 473 OFFCURVE",
"184 490 CURVE SMOOTH",
"196 505 OFFCURVE",
"216 513 OFFCURVE",
"230 512 CURVE SMOOTH",
"246 511 OFFCURVE",
"250 479 OFFCURVE",
"258 467 CURVE SMOOTH",
"266 455 OFFCURVE",
"288 431 OFFCURVE",
"305 407 CURVE SMOOTH",
"326 377 OFFCURVE",
"344 346 OFFCURVE",
"344 346 CURVE",
"565 348 LINE",
"565 348 OFFCURVE",
"537 443 OFFCURVE",
"522 489 CURVE SMOOTH",
"503 548 OFFCURVE",
"447 686 OFFCURVE",
"460 689 CURVE SMOOTH",
"469 691 OFFCURVE",
"503 601 OFFCURVE",
"541 506 CURVE SMOOTH",
"573 426 OFFCURVE",
"609 349 OFFCURVE",
"609 349 CURVE SMOOTH",
"609 349 OFFCURVE",
"717 352 OFFCURVE",
"748 352 CURVE SMOOTH",
"763 352 OFFCURVE",
"780 374 OFFCURVE",
"798 375 CURVE SMOOTH",
"815 376 OFFCURVE",
"846 365 OFFCURVE",
"846 347 CURVE SMOOTH",
"846 333 OFFCURVE",
"809 300 OFFCURVE",
"790 299 CURVE SMOOTH",
"774 298 OFFCURVE",
"760 308 OFFCURVE",
"743 308 CURVE SMOOTH",
"716 308 OFFCURVE",
"623 313 OFFCURVE",
"623 313 CURVE SMOOTH",
"623 313 OFFCURVE",
"629 304 OFFCURVE",
"632 297 CURVE SMOOTH",
"635 290 OFFCURVE",
"665 287 OFFCURVE",
"664 271 CURVE SMOOTH",
"663 247 OFFCURVE",
"633 212 OFFCURVE",
"603 209 CURVE SMOOTH",
"580 207 OFFCURVE",
"539 224 OFFCURVE",
"539 236 CURVE SMOOTH",
"539 250 OFFCURVE",
"574 253 OFFCURVE",
"580 265 CURVE SMOOTH",
"586 278 OFFCURVE",
"575 311 OFFCURVE",
"575 311 CURVE",
"361 315 LINE",
"361 315 OFFCURVE",
"382 280 OFFCURVE",
"403 262 CURVE SMOOTH",
"424 244 OFFCURVE",
"480 221 OFFCURVE",
"535 174 CURVE SMOOTH",
"623 99 OFFCURVE",
"634 16 OFFCURVE",
"622 11 CURVE SMOOTH"
);
},
{
closed = 1;
nodes = (
"410 144 OFFCURVE",
"394 204 OFFCURVE",
"380 216 CURVE SMOOTH",
"366 228 OFFCURVE",
"338 231 OFFCURVE",
"314 231 CURVE SMOOTH",
"296 231 OFFCURVE",
"264 235 OFFCURVE",
"263 215 CURVE SMOOTH",
"262 196 OFFCURVE",
"348 141 OFFCURVE",
"387 143 CURVE SMOOTH"
);
}
);
width = 856;
}
);
unicode = 3075;
},
{
glyphname = "bu-hira";
lastChange = "2020-04-30 23:05:17 +0000";
layers = (
{
layerId = "1305C52C-0BD1-483E-A343-C05F3AFF2931";
paths = (
{
closed = 1;
nodes = (
"626 13 OFFCURVE",
"568 98 OFFCURVE",
"533 127 CURVE SMOOTH",
"497 157 OFFCURVE",
"413 203 OFFCURVE",
"413 203 CURVE",
"413 203 OFFCURVE",
"436 148 OFFCURVE",
"424 135 CURVE SMOOTH",
"412 122 OFFCURVE",
"365 121 OFFCURVE",
"344 127 CURVE SMOOTH",
"309 137 OFFCURVE",
"220 201 OFFCURVE",
"219 229 CURVE SMOOTH",
"218 254 OFFCURVE",
"253 269 OFFCURVE",
"275 275 CURVE SMOOTH",
"296 281 OFFCURVE",
"355 269 OFFCURVE",
"355 269 CURVE",
"355 269 OFFCURVE",
"317 335 OFFCURVE",
"294 361 CURVE SMOOTH",
"270 388 OFFCURVE",
"221 432 OFFCURVE",
"205 432 CURVE SMOOTH",
"191 432 OFFCURVE",
"172 403 OFFCURVE",
"169 412 CURVE",
"169 412 LINE",
"165 420 OFFCURVE",
"171 466 OFFCURVE",
"182 482 CURVE SMOOTH",
"193 498 OFFCURVE",
"202 508 OFFCURVE",
"221 507 CURVE SMOOTH",
"247 506 OFFCURVE",
"245 478 OFFCURVE",
"265 456 CURVE SMOOTH",
"283 437 OFFCURVE",
"300 411 OFFCURVE",
"329 373 CURVE SMOOTH",
"351 344 OFFCURVE",
"397 263 OFFCURVE",
"397 263 CURVE",
"397 263 OFFCURVE",
"497 210 OFFCURVE",
"535 174 CURVE SMOOTH",
"633 82 OFFCURVE",
"626 13 OFFCURVE",
"626 13 CURVE"
);
},
{
closed = 1;
nodes = (
"413 169 OFFCURVE",
"378 220 OFFCURVE",
"378 220 CURVE",
"378 220 OFFCURVE",
"336 229 OFFCURVE",
"316 230 CURVE SMOOTH",
"295 231 OFFCURVE",
"260 234 OFFCURVE",
"260 213 CURVE SMOOTH",
"260 201 OFFCURVE",
"301 171 OFFCURVE",
"325 159 CURVE SMOOTH",
"347 148 OFFCURVE",
"390 138 OFFCURVE",
"398 149 CURVE SMOOTH"
);
},
{
closed = 1;
nodes = (
"596 208 OFFCURVE",
"551 221 OFFCURVE",
"547 231 CURVE",
"547 231 LINE",
"541 244 OFFCURVE",
"585 258 OFFCURVE",
"585 274 CURVE SMOOTH",
"585 309 OFFCURVE",
"556 387 OFFCURVE",
"539 444 CURVE SMOOTH",
"518 513 OFFCURVE",
"459 687 OFFCURVE",
"459 687 CURVE",
"459 687 OFFCURVE",
"516 562 OFFCURVE",
"546 498 CURVE SMOOTH",
"569 449 OFFCURVE",
"608 333 OFFCURVE",
"637 296 CURVE SMOOTH",
"645 286 OFFCURVE",
"669 284 OFFCURVE",
"672 272 CURVE SMOOTH",
"675 258 OFFCURVE",
"648 227 OFFCURVE",
"626 219 CURVE SMOOTH"
);
},
{
closed = 1;
nodes = (
"11 282 LINE",
"6 288 OFFCURVE",
"22 309 OFFCURVE",
"29 322 CURVE SMOOTH",
"38 339 OFFCURVE",
"47 367 OFFCURVE",
"62 385 CURVE SMOOTH",
"77 404 OFFCURVE",
"100 424 OFFCURVE",
"116 423 CURVE SMOOTH",
"131 422 OFFCURVE",
"146 403 OFFCURVE",
"149 390 CURVE SMOOTH",
"152 378 OFFCURVE",
"147 358 OFFCURVE",
"155 354 CURVE SMOOTH",
"171 346 OFFCURVE",
"222 348 OFFCURVE",
"256 347 CURVE SMOOTH",
"347 344 OFFCURVE",
"613 345 OFFCURVE",
"704 348 CURVE SMOOTH",
"738 349 OFFCURVE",
"776 376 OFFCURVE",
"800 376 CURVE SMOOTH",
"819 376 OFFCURVE",
"850 362 OFFCURVE",
"850 347 CURVE SMOOTH",
"850 322 OFFCURVE",
"807 304 OFFCURVE",
"786 302 CURVE SMOOTH",
"765 300 OFFCURVE",
"742 309 OFFCURVE",
"723 309 CURVE SMOOTH",
"633 309 OFFCURVE",
"345 314 OFFCURVE",
"245 313 CURVE SMOOTH",
"72 311 OFFCURVE",
"87 295 OFFCURVE",
"54 286 CURVE SMOOTH",
"39 282 OFFCURVE",
"17 276 OFFCURVE",
"11 282 CURVE"
);
},
{
closed = 1;
nodes = (
"336 429 LINE",
"326 431 OFFCURVE",
"364 465 OFFCURVE",
"363 486 CURVE SMOOTH",
"362 509 OFFCURVE",
"332 542 OFFCURVE",
"333 566 CURVE SMOOTH",
"334 588 OFFCURVE",
"373 622 OFFCURVE",
"401 621 CURVE SMOOTH",
"422 620 OFFCURVE",
"445 601 OFFCURVE",
"446 579 CURVE SMOOTH",
"447 564 OFFCURVE",
"443 538 OFFCURVE",
"433 536 CURVE SMOOTH",
"424 534 OFFCURVE",
"410 573 OFFCURVE",
"389 573 CURVE SMOOTH",
"380 573 OFFCURVE",
"369 561 OFFCURVE",
"369 550 CURVE SMOOTH",
"369 520 OFFCURVE",
"423 495 OFFCURVE",
"423 472 CURVE SMOOTH",
"423 451 OFFCURVE",
"346 427 OFFCURVE",
"336 429 CURVE"
);
}
);
width = 860;
}
);
unicode = 3076;
},
{
glyphname = "pu-hira";
lastChange = "2020-04-30 23:05:31 +0000";
layers = (
{
layerId = "1305C52C-0BD1-483E-A343-C05F3AFF2931";
paths = (
{
closed = 1;
nodes = (
"625 13 OFFCURVE",
"567 99 OFFCURVE",
"533 127 CURVE SMOOTH",
"496 157 OFFCURVE",
"413 204 OFFCURVE",
"413 204 CURVE",
"413 204 OFFCURVE",
"436 149 OFFCURVE",
"423 136 CURVE SMOOTH",
"410 123 OFFCURVE",
"364 122 OFFCURVE",
"344 128 CURVE SMOOTH",
"308 139 OFFCURVE",
"219 202 OFFCURVE",
"218 230 CURVE SMOOTH",
"217 254 OFFCURVE",
"252 270 OFFCURVE",
"274 276 CURVE SMOOTH",
"295 282 OFFCURVE",
"354 269 OFFCURVE",
"354 269 CURVE",
"354 269 OFFCURVE",
"316 336 OFFCURVE",
"293 361 CURVE SMOOTH",
"268 388 OFFCURVE",
"220 433 OFFCURVE",
"204 433 CURVE SMOOTH",
"190 433 OFFCURVE",
"171 404 OFFCURVE",
"168 412 CURVE",
"168 412 LINE",
"164 420 OFFCURVE",
"171 466 OFFCURVE",
"181 482 CURVE SMOOTH",
"191 498 OFFCURVE",
"201 509 OFFCURVE",
"220 508 CURVE SMOOTH",
"246 507 OFFCURVE",
"244 479 OFFCURVE",
"264 457 CURVE SMOOTH",
"282 437 OFFCURVE",
"300 411 OFFCURVE",
"328 374 CURVE SMOOTH",
"350 345 OFFCURVE",
"396 264 OFFCURVE",
"396 264 CURVE",
"396 264 OFFCURVE",
"496 210 OFFCURVE",
"534 174 CURVE SMOOTH",
"632 82 OFFCURVE",
"625 13 OFFCURVE",
"625 13 CURVE"
);
},
{
closed = 1;
nodes = (
"413 169 OFFCURVE",
"377 220 OFFCURVE",
"377 220 CURVE",
"377 220 OFFCURVE",
"335 230 OFFCURVE",
"315 231 CURVE SMOOTH",
"294 232 OFFCURVE",
"259 235 OFFCURVE",
"259 213 CURVE SMOOTH",
"259 201 OFFCURVE",
"301 171 OFFCURVE",
"324 159 CURVE SMOOTH",
"346 148 OFFCURVE",
"389 139 OFFCURVE",
"397 149 CURVE SMOOTH"
);
},
{
closed = 1;
nodes = (
"595 208 OFFCURVE",
"550 221 OFFCURVE",
"546 231 CURVE",
"546 231 LINE",
"540 244 OFFCURVE",
"584 258 OFFCURVE",
"584 274 CURVE SMOOTH",
"584 309 OFFCURVE",
"555 388 OFFCURVE",
"538 444 CURVE SMOOTH",
"517 513 OFFCURVE",
"458 688 OFFCURVE",
"458 688 CURVE",
"458 688 OFFCURVE",
"516 563 OFFCURVE",
"545 498 CURVE SMOOTH",
"567 449 OFFCURVE",
"609 335 OFFCURVE",
"636 297 CURVE SMOOTH",
"644 286 OFFCURVE",
"669 284 OFFCURVE",
"671 272 CURVE SMOOTH",
"673 259 OFFCURVE",
"647 227 OFFCURVE",
"625 219 CURVE SMOOTH"
);
},
{
closed = 1;
nodes = (
"11 282 LINE",
"5 288 OFFCURVE",
"22 309 OFFCURVE",
"28 322 CURVE SMOOTH",
"36 340 OFFCURVE",
"46 367 OFFCURVE",
"62 386 CURVE SMOOTH",
"77 404 OFFCURVE",
"99 424 OFFCURVE",
"115 424 CURVE SMOOTH",
"130 424 OFFCURVE",
"146 403 OFFCURVE",
"148 391 CURVE SMOOTH",
"150 379 OFFCURVE",
"146 358 OFFCURVE",
"155 355 CURVE SMOOTH",
"172 349 OFFCURVE",
"221 348 OFFCURVE",
"255 348 CURVE SMOOTH",
"346 348 OFFCURVE",
"612 345 OFFCURVE",
"704 348 CURVE SMOOTH",
"737 349 OFFCURVE",
"775 377 OFFCURVE",
"799 376 CURVE SMOOTH",
"818 375 OFFCURVE",
"849 363 OFFCURVE",
"849 347 CURVE SMOOTH",
"849 322 OFFCURVE",
"806 304 OFFCURVE",
"785 303 CURVE SMOOTH",
"765 302 OFFCURVE",
"741 309 OFFCURVE",
"722 309 CURVE SMOOTH",
"632 309 OFFCURVE",
"344 315 OFFCURVE",
"244 313 CURVE SMOOTH",
"71 310 OFFCURVE",
"87 295 OFFCURVE",
"53 286 CURVE SMOOTH",
"38 282 OFFCURVE",
"16 276 OFFCURVE",
"11 282 CURVE"
);
},
{
closed = 1;
nodes = (
"381 438 LINE",
"329 436 OFFCURVE",
"301 494 OFFCURVE",
"302 531 CURVE SMOOTH",
"303 560 OFFCURVE",
"313 607 OFFCURVE",
"373 609 CURVE SMOOTH",
"408 610 OFFCURVE",
"451 573 OFFCURVE",
"451 542 CURVE SMOOTH",
"451 531 OFFCURVE",
"449 506 OFFCURVE",
"443 506 CURVE SMOOTH",
"438 506 OFFCURVE",
"421 521 OFFCURVE",
"418 533 CURVE SMOOTH",
"414 548 OFFCURVE",
"383 570 OFFCURVE",
"370 570 CURVE SMOOTH",
"343 570 OFFCURVE",
"332 552 OFFCURVE",
"332 524 CURVE SMOOTH",
"332 508 OFFCURVE",
"344 475 OFFCURVE",
"361 474 CURVE SMOOTH",
"378 473 OFFCURVE",
"383 496 OFFCURVE",
"396 500 CURVE SMOOTH",
"408 504 OFFCURVE",
"426 512 OFFCURVE",
"436 500 CURVE SMOOTH",
"443 491 OFFCURVE",
"401 439 OFFCURVE",
"381 438 CURVE"
);
}
);
width = 859;
}
);
unicode = 3077;
},
{
glyphname = "he-hira";
lastChange = "2020-04-30 23:05:57 +0000";
layers = (
{
layerId = "1305C52C-0BD1-483E-A343-C05F3AFF2931";
paths = (
{
closed = 1;
nodes = (
"471 99 OFFCURVE",
"476 133 OFFCURVE",
"463 152 CURVE SMOOTH",
"446 176 OFFCURVE",
"431 205 OFFCURVE",
"411 227 CURVE SMOOTH",
"379 262 OFFCURVE",
"330 304 OFFCURVE",
"330 304 CURVE SMOOTH",
"330 304 OFFCURVE",
"326 221 OFFCURVE",
"273 222 CURVE SMOOTH",
"200 223 OFFCURVE",
"159 318 OFFCURVE",
"162 354 CURVE SMOOTH",
"167 411 OFFCURVE",
"229 405 OFFCURVE",
"229 405 CURVE SMOOTH",
"229 405 OFFCURVE",
"202 434 OFFCURVE",
"164 458 CURVE SMOOTH",
"142 472 OFFCURVE",
"114 489 OFFCURVE",
"96 495 CURVE SMOOTH",
"65 505 OFFCURVE",
"62 490 OFFCURVE",
"48 487 CURVE SMOOTH",
"35 484 OFFCURVE",
"17 481 OFFCURVE",
"12 488 CURVE SMOOTH",
"4 500 OFFCURVE",
"24 540 OFFCURVE",
"36 559 CURVE SMOOTH",
"48 578 OFFCURVE",
"68 602 OFFCURVE",
"84 602 CURVE SMOOTH",
"110 602 OFFCURVE",
"106 551 OFFCURVE",
"122 535 CURVE SMOOTH",
"146 511 OFFCURVE",
"208 465 OFFCURVE",
"254 422 CURVE SMOOTH",
"309 371 OFFCURVE",
"368 326 OFFCURVE",
"368 326 CURVE SMOOTH",
"368 326 OFFCURVE",
"370 455 OFFCURVE",
"392 504 CURVE SMOOTH",
"407 537 OFFCURVE",
"454 584 OFFCURVE",
"487 584 CURVE SMOOTH",
"524 584 OFFCURVE",
"566 544 OFFCURVE",
"586 508 CURVE SMOOTH",
"613 460 OFFCURVE",
"658 354 OFFCURVE",
"698 353 CURVE SMOOTH",
"772 351 OFFCURVE",
"824 459 OFFCURVE",
"829 455 CURVE SMOOTH",
"837 448 OFFCURVE",
"775 315 OFFCURVE",
"696 319 CURVE SMOOTH",
"581 325 OFFCURVE",
"550 501 OFFCURVE",
"488 502 CURVE SMOOTH",
"439 503 OFFCURVE",
"402 432 OFFCURVE",
"401 381 CURVE SMOOTH",
"399 301 OFFCURVE",
"500 195 OFFCURVE",
"521 193 CURVE SMOOTH",
"530 192 OFFCURVE",
"541 197 OFFCURVE",
"550 196 CURVE SMOOTH",
"565 194 OFFCURVE",
"593 168 OFFCURVE",
"592 153 CURVE SMOOTH",
"591 134 OFFCURVE",
"533 99 OFFCURVE",
"514 99 CURVE SMOOTH"
);
},
{
closed = 1;
nodes = (
"296 256 OFFCURVE",
"290 290 OFFCURVE",
"290 301 CURVE SMOOTH",
"290 343 OFFCURVE",
"239 346 OFFCURVE",
"229 346 CURVE SMOOTH",
"211 346 OFFCURVE",
"198 346 OFFCURVE",
"198 330 CURVE SMOOTH",
"198 306 OFFCURVE",
"220 266 OFFCURVE",
"257 261 CURVE SMOOTH"
);
}
);
width = 840;
}
);
unicode = 3078;
},
{
glyphname = "be-hira";
lastChange = "2020-04-30 23:06:11 +0000";
layers = (
{
layerId = "1305C52C-0BD1-483E-A343-C05F3AFF2931";
paths = (
{
closed = 1;
nodes = (
"476 79 OFFCURVE",
"482 118 OFFCURVE",
"468 135 CURVE SMOOTH",
"450 156 OFFCURVE",
"429 190 OFFCURVE",
"409 213 CURVE SMOOTH",
"389 236 OFFCURVE",
"341 276 OFFCURVE",
"341 276 CURVE",
"341 276 OFFCURVE",
"332 206 OFFCURVE",
"277 207 CURVE SMOOTH",
"226 208 OFFCURVE",
"199 239 OFFCURVE",
"181 268 CURVE SMOOTH",
"158 305 OFFCURVE",
"161 348 OFFCURVE",
"182 369 CURVE SMOOTH",
"195 382 OFFCURVE",
"231 381 OFFCURVE",
"231 381 CURVE",
"231 381 OFFCURVE",
"188 426 OFFCURVE",
"163 442 CURVE SMOOTH",
"138 458 OFFCURVE",
"98 475 OFFCURVE",
"79 478 CURVE SMOOTH",
"68 480 OFFCURVE",
"59 467 OFFCURVE",
"48 465 CURVE SMOOTH",
"37 463 OFFCURVE",
"12 458 OFFCURVE",
"10 468 CURVE",
"10 468 LINE",
"9 480 OFFCURVE",
"28 522 OFFCURVE",
"40 541 CURVE SMOOTH",
"51 559 OFFCURVE",
"70 581 OFFCURVE",
"85 581 CURVE SMOOTH",
"120 581 OFFCURVE",
"109 532 OFFCURVE",
"126 515 CURVE SMOOTH",
"154 487 OFFCURVE",
"210 444 OFFCURVE",
"248 406 CURVE SMOOTH",
"300 354 OFFCURVE",
"375 303 OFFCURVE",
"375 303 CURVE",
"375 303 OFFCURVE",
"366 446 OFFCURVE",
"412 508 CURVE SMOOTH",
"432 535 OFFCURVE",
"461 561 OFFCURVE",
"490 560 CURVE SMOOTH",
"562 558 OFFCURVE",
"585 477 OFFCURVE",
"612 432 CURVE SMOOTH",
"635 394 OFFCURVE",
"669 334 OFFCURVE",
"705 334 CURVE SMOOTH",
"772 334 OFFCURVE",
"832 434 OFFCURVE",
"832 434 CURVE",
"832 434 OFFCURVE",
"793 299 OFFCURVE",
"698 297 CURVE SMOOTH",
"643 296 OFFCURVE",
"597 359 OFFCURVE",
"576 395 CURVE SMOOTH",
"554 432 OFFCURVE",
"513 488 OFFCURVE",
"487 487 CURVE SMOOTH",
"458 486 OFFCURVE",
"403 440 OFFCURVE",
"403 368 CURVE SMOOTH",
"403 289 OFFCURVE",
"445 245 OFFCURVE",
"471 218 CURVE SMOOTH",
"487 201 OFFCURVE",
"508 186 OFFCURVE",
"525 182 CURVE SMOOTH",
"533 180 OFFCURVE",
"551 175 OFFCURVE",
"561 170 CURVE SMOOTH",
"573 164 OFFCURVE",
"594 145 OFFCURVE",
"594 131 CURVE SMOOTH",
"594 114 OFFCURVE",
"544 79 OFFCURVE",
"524 79 CURVE SMOOTH"
);
},
{
closed = 1;
nodes = (
"274 239 OFFCURVE",
"291 258 OFFCURVE",
"293 270 CURVE SMOOTH",
"295 283 OFFCURVE",
"286 303 OFFCURVE",
"276 313 CURVE SMOOTH",
"266 323 OFFCURVE",
"248 326 OFFCURVE",
"232 328 CURVE SMOOTH",
"219 330 OFFCURVE",
"198 332 OFFCURVE",
"198 301 CURVE SMOOTH",
"198 286 OFFCURVE",
"221 243 OFFCURVE",
"259 240 CURVE SMOOTH"
);
},
{
closed = 1;
nodes = (
"270 433 LINE",
"261 434 OFFCURVE",
"297 465 OFFCURVE",
"297 484 CURVE SMOOTH",
"297 507 OFFCURVE",
"267 534 OFFCURVE",
"268 564 CURVE SMOOTH",
"269 588 OFFCURVE",
"302 621 OFFCURVE",
"332 621 CURVE SMOOTH",
"359 621 OFFCURVE",
"381 594 OFFCURVE",
"381 578 CURVE SMOOTH",
"381 563 OFFCURVE",
"374 537 OFFCURVE",
"364 536 CURVE SMOOTH",
"355 535 OFFCURVE",
"342 574 OFFCURVE",
"323 574 CURVE SMOOTH",
"312 574 OFFCURVE",
"298 560 OFFCURVE",
"298 548 CURVE SMOOTH",
"298 524 OFFCURVE",
"356 493 OFFCURVE",
"355 475 CURVE SMOOTH",
"353 442 OFFCURVE",
"280 431 OFFCURVE",
"270 433 CURVE"
);
}
);
width = 842;
}
);
unicode = 3079;
},
{
glyphname = "pe-hira";
lastChange = "2020-04-30 23:06:33 +0000";
layers = (
{
layerId = "1305C52C-0BD1-483E-A343-C05F3AFF2931";
paths = (
{
closed = 1;
nodes = (
"476 80 OFFCURVE",
"482 118 OFFCURVE",
"468 135 CURVE SMOOTH",
"450 157 OFFCURVE",
"429 190 OFFCURVE",
"409 214 CURVE SMOOTH",
"389 237 OFFCURVE",
"341 277 OFFCURVE",
"341 277 CURVE",
"341 277 OFFCURVE",
"332 206 OFFCURVE",
"277 207 CURVE SMOOTH",
"225 208 OFFCURVE",
"199 240 OFFCURVE",
"180 269 CURVE SMOOTH",
"156 305 OFFCURVE",
"160 348 OFFCURVE",
"182 370 CURVE SMOOTH",
"195 383 OFFCURVE",
"231 382 OFFCURVE",
"231 382 CURVE",
"231 382 OFFCURVE",
"188 427 OFFCURVE",
"163 443 CURVE SMOOTH",
"138 459 OFFCURVE",
"98 476 OFFCURVE",
"79 479 CURVE SMOOTH",
"68 481 OFFCURVE",
"59 467 OFFCURVE",
"48 466 CURVE SMOOTH",
"36 465 OFFCURVE",
"12 459 OFFCURVE",
"10 469 CURVE SMOOTH",
"8 481 OFFCURVE",
"27 522 OFFCURVE",
"40 541 CURVE SMOOTH",
"52 559 OFFCURVE",
"70 581 OFFCURVE",
"85 581 CURVE SMOOTH",
"120 581 OFFCURVE",
"109 533 OFFCURVE",
"126 515 CURVE SMOOTH",
"152 487 OFFCURVE",
"210 445 OFFCURVE",
"248 407 CURVE SMOOTH",
"300 355 OFFCURVE",
"375 304 OFFCURVE",
"375 304 CURVE",
"375 304 OFFCURVE",
"366 446 OFFCURVE",
"412 508 CURVE SMOOTH",
"432 535 OFFCURVE",
"461 562 OFFCURVE",
"490 561 CURVE SMOOTH",
"562 559 OFFCURVE",
"585 478 OFFCURVE",
"611 433 CURVE SMOOTH",
"634 394 OFFCURVE",
"668 334 OFFCURVE",
"705 334 CURVE SMOOTH",
"772 334 OFFCURVE",
"832 435 OFFCURVE",
"832 435 CURVE",
"832 435 OFFCURVE",
"793 300 OFFCURVE",
"698 298 CURVE SMOOTH",
"643 297 OFFCURVE",
"596 360 OFFCURVE",
"575 395 CURVE SMOOTH",
"553 432 OFFCURVE",
"513 489 OFFCURVE",
"486 487 CURVE SMOOTH",
"458 485 OFFCURVE",
"403 440 OFFCURVE",
"403 369 CURVE SMOOTH",
"403 289 OFFCURVE",
"446 246 OFFCURVE",
"471 219 CURVE SMOOTH",
"487 202 OFFCURVE",
"508 185 OFFCURVE",
"525 183 CURVE SMOOTH",
"533 182 OFFCURVE",
"551 176 OFFCURVE",
"561 171 CURVE SMOOTH",
"573 165 OFFCURVE",
"594 146 OFFCURVE",
"594 132 CURVE SMOOTH",
"594 115 OFFCURVE",
"543 80 OFFCURVE",
"524 80 CURVE SMOOTH"
);
},
{
closed = 1;
nodes = (
"274 240 OFFCURVE",
"291 259 OFFCURVE",
"293 271 CURVE SMOOTH",
"295 283 OFFCURVE",
"286 304 OFFCURVE",
"276 314 CURVE SMOOTH",
"266 324 OFFCURVE",
"248 327 OFFCURVE",
"232 329 CURVE SMOOTH",
"219 331 OFFCURVE",
"196 332 OFFCURVE",
"198 302 CURVE SMOOTH",
"199 287 OFFCURVE",
"221 244 OFFCURVE",
"259 241 CURVE SMOOTH"
);
},
{
closed = 1;
nodes = (
"298 450 LINE",
"246 448 OFFCURVE",
"217 506 OFFCURVE",
"219 542 CURVE SMOOTH",
"221 571 OFFCURVE",
"229 619 OFFCURVE",
"290 621 CURVE SMOOTH",
"325 622 OFFCURVE",
"365 585 OFFCURVE",
"368 554 CURVE SMOOTH",
"369 543 OFFCURVE",
"366 518 OFFCURVE",
"360 517 CURVE SMOOTH",
"354 516 OFFCURVE",
"338 533 OFFCURVE",
"335 544 CURVE SMOOTH",
"331 560 OFFCURVE",
"300 582 OFFCURVE",
"287 582 CURVE SMOOTH",
"260 582 OFFCURVE",
"249 563 OFFCURVE",
"249 536 CURVE SMOOTH",
"249 520 OFFCURVE",
"261 486 OFFCURVE",
"277 486 CURVE SMOOTH",
"295 486 OFFCURVE",
"300 507 OFFCURVE",
"313 512 CURVE SMOOTH",
"325 517 OFFCURVE",
"343 524 OFFCURVE",
"353 511 CURVE SMOOTH",
"360 502 OFFCURVE",
"318 451 OFFCURVE",
"298 450 CURVE"
);
}
);
width = 842;
}
);
unicode = 307A;
},
{
glyphname = "ho-hira";
lastChange = "2020-04-30 23:06:53 +0000";
layers = (
{
layerId = "1305C52C-0BD1-483E-A343-C05F3AFF2931";
paths = (
{
closed = 1;
nodes = (
"716 -8 OFFCURVE",
"667 57 OFFCURVE",
"631 93 CURVE SMOOTH",
"592 132 OFFCURVE",
"521 172 OFFCURVE",
"521 172 CURVE SMOOTH",
"521 172 OFFCURVE",
"526 137 OFFCURVE",
"516 113 CURVE SMOOTH",
"505 87 OFFCURVE",
"460 95 OFFCURVE",
"438 103 CURVE SMOOTH",
"397 118 OFFCURVE",
"336 196 OFFCURVE",
"336 223 CURVE SMOOTH",
"336 245 OFFCURVE",
"365 258 OFFCURVE",
"381 259 CURVE SMOOTH",
"403 260 OFFCURVE",
"456 249 OFFCURVE",
"456 249 CURVE SMOOTH",
"456 249 OFFCURVE",
"442 283 OFFCURVE",
"433 297 CURVE SMOOTH",
"424 311 OFFCURVE",
"402 339 OFFCURVE",
"402 339 CURVE SMOOTH",
"402 339 OFFCURVE",
"360 341 OFFCURVE",
"340 340 CURVE SMOOTH",
"314 339 OFFCURVE",
"265 314 OFFCURVE",
"266 259 CURVE SMOOTH",
"267 210 OFFCURVE",
"331 192 OFFCURVE",
"337 155 CURVE SMOOTH",
"340 136 OFFCURVE",
"296 142 OFFCURVE",
"280 148 CURVE SMOOTH",
"257 157 OFFCURVE",
"248 189 OFFCURVE",
"229 207 CURVE SMOOTH",
"199 236 OFFCURVE",
"128 300 OFFCURVE",
"101 319 CURVE SMOOTH",
"91 326 OFFCURVE",
"74 323 OFFCURVE",
"66 320 CURVE SMOOTH",
"58 317 OFFCURVE",
"60 306 OFFCURVE",
"53 304 CURVE SMOOTH",
"44 301 OFFCURVE",
"20 292 OFFCURVE",
"13 303 CURVE SMOOTH",
"2 321 OFFCURVE",
"25 382 OFFCURVE",
"38 400 CURVE SMOOTH",
"46 411 OFFCURVE",
"74 410 OFFCURVE",
"84 401 CURVE SMOOTH",
"99 388 OFFCURVE",
"130 348 OFFCURVE",
"161 313 CURVE SMOOTH",
"191 280 OFFCURVE",
"222 251 OFFCURVE",
"222 251 CURVE SMOOTH",
"222 251 OFFCURVE",
"222 309 OFFCURVE",
"263 350 CURVE SMOOTH",
"287 374 OFFCURVE",
"368 384 OFFCURVE",
"368 384 CURVE SMOOTH",
"368 384 OFFCURVE",
"343 428 OFFCURVE",
"327 426 CURVE SMOOTH",
"314 424 OFFCURVE",
"293 400 OFFCURVE",
"287 407 CURVE SMOOTH",
"279 417 OFFCURVE",
"290 460 OFFCURVE",
"302 476 CURVE SMOOTH",
"314 492 OFFCURVE",
"347 508 OFFCURVE",
"365 495 CURVE SMOOTH",
"372 490 OFFCURVE",
"373 473 OFFCURVE",
"382 459 CURVE SMOOTH",
"401 429 OFFCURVE",
"428 387 OFFCURVE",
"428 387 CURVE SMOOTH",
"428 387 OFFCURVE",
"526 376 OFFCURVE",
"589 379 CURVE SMOOTH",
"629 381 OFFCURVE",
"733 432 OFFCURVE",
"750 539 CURVE SMOOTH",
"762 613 OFFCURVE",
"685 701 OFFCURVE",
"695 709 CURVE SMOOTH",
"706 718 OFFCURVE",
"820 602 OFFCURVE",
"807 479 CURVE SMOOTH",
"800 411 OFFCURVE",
"701 311 OFFCURVE",
"603 311 CURVE SMOOTH",
"553 311 OFFCURVE",
"453 330 OFFCURVE",
"453 330 CURVE SMOOTH",
"453 330 OFFCURVE",
"470 301 OFFCURVE",
"477 286 CURVE SMOOTH",
"484 271 OFFCURVE",
"498 239 OFFCURVE",
"498 239 CURVE SMOOTH",
"498 239 OFFCURVE",
"580 192 OFFCURVE",
"626 146 CURVE SMOOTH",
"701 71 OFFCURVE",
"716 -8 OFFCURVE",
"716 -8 CURVE SMOOTH"
);
},
{
closed = 1;
nodes = (
"497 163 OFFCURVE",
"484 188 OFFCURVE",
"456 198 CURVE SMOOTH",
"432 207 OFFCURVE",
"382 212 OFFCURVE",
"382 195 CURVE SMOOTH",
"382 185 OFFCURVE",
"401 159 OFFCURVE",
"424 143 CURVE SMOOTH",
"455 122 OFFCURVE",
"492 113 OFFCURVE",
"495 141 CURVE SMOOTH"
);
}
);
width = 818;
}
);
unicode = 307B;
},
{
glyphname = "bo-hira";
lastChange = "2020-04-30 23:08:18 +0000";
layers = (
{
layerId = "1305C52C-0BD1-483E-A343-C05F3AFF2931";
paths = (
{
closed = 1;
nodes = (
"742 -9 OFFCURVE",
"689 65 OFFCURVE",
"656 96 CURVE SMOOTH",
"617 132 OFFCURVE",
"537 177 OFFCURVE",
"537 177 CURVE",
"537 177 OFFCURVE",
"551 123 OFFCURVE",
"535 110 CURVE SMOOTH",
"517 95 OFFCURVE",
"479 99 OFFCURVE",
"455 109 CURVE SMOOTH",
"419 123 OFFCURVE",
"352 187 OFFCURVE",
"350 218 CURVE SMOOTH",
"349 238 OFFCURVE",
"375 255 OFFCURVE",
"394 259 CURVE SMOOTH",
"415 263 OFFCURVE",
"478 250 OFFCURVE",
"478 250 CURVE",
"478 250 OFFCURVE",
"436 326 OFFCURVE",
"414 356 CURVE SMOOTH",
"393 384 OFFCURVE",
"360 418 OFFCURVE",
"341 427 CURVE SMOOTH",
"328 434 OFFCURVE",
"309 405 OFFCURVE",
"300 411 CURVE",
"300 411 LINE",
"289 418 OFFCURVE",
"303 467 OFFCURVE",
"317 484 CURVE SMOOTH",
"329 499 OFFCURVE",
"353 506 OFFCURVE",
"365 503 CURVE SMOOTH",
"382 498 OFFCURVE",
"382 477 OFFCURVE",
"391 467 CURVE SMOOTH",
"413 438 OFFCURVE",
"440 393 OFFCURVE",
"461 355 CURVE SMOOTH",
"481 320 OFFCURVE",
"515 243 OFFCURVE",
"515 243 CURVE",
"515 243 OFFCURVE",
"623 182 OFFCURVE",
"664 142 CURVE SMOOTH",
"745 62 OFFCURVE",
"742 -9 OFFCURVE",
"742 -9 CURVE"
);
},
{
closed = 1;
nodes = (
"506 121 OFFCURVE",
"517 133 OFFCURVE",
"518 143 CURVE SMOOTH",
"518 161 OFFCURVE",
"500 193 OFFCURVE",
"500 193 CURVE",
"500 193 OFFCURVE",
"386 232 OFFCURVE",
"391 194 CURVE SMOOTH",
"393 178 OFFCURVE",
"441 124 OFFCURVE",
"495 121 CURVE SMOOTH"
);
},
{
closed = 1;
nodes = (
"310 142 OFFCURVE",
"287 152 OFFCURVE",
"276 161 CURVE SMOOTH",
"264 170 OFFCURVE",
"257 190 OFFCURVE",
"247 200 CURVE SMOOTH",
"229 218 OFFCURVE",
"197 247 OFFCURVE",
"169 267 CURVE SMOOTH",
"141 288 OFFCURVE",
"98 325 OFFCURVE",
"78 327 CURVE SMOOTH",
"63 328 OFFCURVE",
"50 309 OFFCURVE",
"39 306 CURVE SMOOTH",
"30 303 OFFCURVE",
"13 298 OFFCURVE",
"11 307 CURVE",
"11 307 LINE",
"6 328 OFFCURVE",
"15 360 OFFCURVE",
"23 379 CURVE SMOOTH",
"30 394 OFFCURVE",
"46 414 OFFCURVE",
"63 414 CURVE SMOOTH",
"84 414 OFFCURVE",
"124 347 OFFCURVE",
"150 322 CURVE SMOOTH",
"177 295 OFFCURVE",
"231 251 OFFCURVE",
"231 251 CURVE",
"231 251 OFFCURVE",
"225 340 OFFCURVE",
"300 373 CURVE SMOOTH",
"357 398 OFFCURVE",
"466 385 OFFCURVE",
"520 383 CURVE SMOOTH",
"678 376 OFFCURVE",
"784 464 OFFCURVE",
"782 541 CURVE SMOOTH",
"778 660 OFFCURVE",
"725 710 OFFCURVE",
"725 710 CURVE",
"725 710 OFFCURVE",
"849 623 OFFCURVE",
"853 528 CURVE SMOOTH",
"856 432 OFFCURVE",
"765 308 OFFCURVE",
"612 313 CURVE SMOOTH",
"540 315 OFFCURVE",
"452 341 OFFCURVE",
"398 342 CURVE SMOOTH",
"292 344 OFFCURVE",
"273 289 OFFCURVE",
"272 262 CURVE SMOOTH",
"270 229 OFFCURVE",
"297 205 OFFCURVE",
"311 199 CURVE SMOOTH",
"324 195 OFFCURVE",
"348 174 OFFCURVE",
"349 164 CURVE SMOOTH",
"349 153 OFFCURVE",
"334 145 OFFCURVE",
"322 143 CURVE SMOOTH"
);
},
{
closed = 1;
nodes = (
"169 373 LINE",
"159 374 OFFCURVE",
"196 407 OFFCURVE",
"196 421 CURVE SMOOTH",
"196 442 OFFCURVE",
"163 475 OFFCURVE",
"164 500 CURVE SMOOTH",
"166 523 OFFCURVE",
"186 560 OFFCURVE",
"229 558 CURVE SMOOTH",
"254 557 OFFCURVE",
"277 536 OFFCURVE",
"278 517 CURVE SMOOTH",
"278 501 OFFCURVE",
"270 469 OFFCURVE",
"260 469 CURVE SMOOTH",
"250 468 OFFCURVE",
"229 515 OFFCURVE",
"219 515 CURVE SMOOTH",
"208 515 OFFCURVE",
"196 500 OFFCURVE",
"197 489 CURVE SMOOTH",
"198 456 OFFCURVE",
"254 434 OFFCURVE",
"253 415 CURVE SMOOTH",
"252 383 OFFCURVE",
"178 372 OFFCURVE",
"169 373 CURVE"
);
}
);
width = 863;
}
);
unicode = 307C;
},
{
glyphname = "po-hira";
lastChange = "2020-04-30 23:09:42 +0000";
layers = (
{
layerId = "1305C52C-0BD1-483E-A343-C05F3AFF2931";
paths = (
{
closed = 1;
nodes = (
"722 -5 OFFCURVE",
"680 62 OFFCURVE",
"647 93 CURVE SMOOTH",
"608 129 OFFCURVE",
"537 181 OFFCURVE",
"537 181 CURVE",
"537 181 OFFCURVE",
"551 127 OFFCURVE",
"535 114 CURVE SMOOTH",
"517 100 OFFCURVE",
"480 103 OFFCURVE",
"455 113 CURVE SMOOTH",
"420 127 OFFCURVE",
"352 191 OFFCURVE",
"350 222 CURVE SMOOTH",
"349 242 OFFCURVE",
"375 259 OFFCURVE",
"395 263 CURVE SMOOTH",
"415 267 OFFCURVE",
"478 254 OFFCURVE",
"478 254 CURVE",
"478 254 OFFCURVE",
"437 330 OFFCURVE",
"414 360 CURVE SMOOTH",
"393 388 OFFCURVE",
"361 422 OFFCURVE",
"342 432 CURVE SMOOTH",
"329 439 OFFCURVE",
"309 409 OFFCURVE",
"301 415 CURVE",
"301 415 LINE",
"289 422 OFFCURVE",
"303 471 OFFCURVE",
"317 488 CURVE SMOOTH",
"329 503 OFFCURVE",
"354 510 OFFCURVE",
"365 507 CURVE SMOOTH",
"382 502 OFFCURVE",
"383 482 OFFCURVE",
"391 471 CURVE SMOOTH",
"413 441 OFFCURVE",
"440 397 OFFCURVE",
"461 359 CURVE SMOOTH",
"480 324 OFFCURVE",
"515 248 OFFCURVE",
"515 248 CURVE",
"515 248 OFFCURVE",
"613 182 OFFCURVE",
"654 142 CURVE SMOOTH",
"735 62 OFFCURVE",
"722 -5 OFFCURVE",
"722 -5 CURVE"
);
},
{
closed = 1;
nodes = (
"506 124 OFFCURVE",
"518 137 OFFCURVE",
"518 147 CURVE SMOOTH",
"518 165 OFFCURVE",
"500 197 OFFCURVE",
"500 197 CURVE",
"500 197 OFFCURVE",
"386 236 OFFCURVE",
"391 198 CURVE SMOOTH",
"393 182 OFFCURVE",
"441 130 OFFCURVE",
"495 125 CURVE SMOOTH"
);
},
{
closed = 1;
nodes = (
"310 145 OFFCURVE",
"287 156 OFFCURVE",
"276 165 CURVE SMOOTH",
"264 174 OFFCURVE",
"257 194 OFFCURVE",
"247 204 CURVE SMOOTH",
"229 222 OFFCURVE",
"197 251 OFFCURVE",
"170 271 CURVE SMOOTH",
"142 292 OFFCURVE",
"98 330 OFFCURVE",
"78 331 CURVE SMOOTH",
"63 332 OFFCURVE",
"50 312 OFFCURVE",
"39 310 CURVE SMOOTH",
"30 308 OFFCURVE",
"13 302 OFFCURVE",
"11 311 CURVE",
"11 311 LINE",
"6 333 OFFCURVE",
"15 364 OFFCURVE",
"23 383 CURVE SMOOTH",
"29 398 OFFCURVE",
"46 418 OFFCURVE",
"63 418 CURVE SMOOTH",
"84 418 OFFCURVE",
"125 351 OFFCURVE",
"150 326 CURVE SMOOTH",
"178 298 OFFCURVE",
"231 255 OFFCURVE",
"231 255 CURVE",
"231 255 OFFCURVE",
"225 345 OFFCURVE",
"300 377 CURVE SMOOTH",
"358 402 OFFCURVE",
"466 389 OFFCURVE",
"521 387 CURVE SMOOTH",
"679 381 OFFCURVE",
"757 476 OFFCURVE",
"755 553 CURVE SMOOTH",
"752 672 OFFCURVE",
"707 706 OFFCURVE",
"707 706 CURVE",
"707 706 OFFCURVE",
"819 627 OFFCURVE",
"822 532 CURVE SMOOTH",
"825 436 OFFCURVE",
"766 313 OFFCURVE",
"612 317 CURVE SMOOTH",
"540 319 OFFCURVE",
"452 345 OFFCURVE",
"398 346 CURVE SMOOTH",
"293 348 OFFCURVE",
"273 293 OFFCURVE",
"272 266 CURVE SMOOTH",
"271 233 OFFCURVE",
"297 209 OFFCURVE",
"311 204 CURVE SMOOTH",
"324 199 OFFCURVE",
"348 178 OFFCURVE",
"349 168 CURVE SMOOTH",
"350 157 OFFCURVE",
"334 149 OFFCURVE",
"322 147 CURVE SMOOTH"
);
},
{
closed = 1;
nodes = (
"190 441 LINE",
"138 439 OFFCURVE",
"108 497 OFFCURVE",
"111 534 CURVE SMOOTH",
"113 563 OFFCURVE",
"121 610 OFFCURVE",
"181 612 CURVE SMOOTH",
"217 613 OFFCURVE",
"257 576 OFFCURVE",
"260 546 CURVE SMOOTH",
"261 535 OFFCURVE",
"258 510 OFFCURVE",
"252 509 CURVE SMOOTH",
"246 508 OFFCURVE",
"230 524 OFFCURVE",
"227 536 CURVE SMOOTH",
"223 552 OFFCURVE",
"192 573 OFFCURVE",
"178 573 CURVE SMOOTH",
"152 573 OFFCURVE",
"141 555 OFFCURVE",
"141 528 CURVE SMOOTH",
"141 512 OFFCURVE",
"153 478 OFFCURVE",
"169 477 CURVE SMOOTH",
"187 476 OFFCURVE",
"192 499 OFFCURVE",
"205 503 CURVE SMOOTH",
"217 507 OFFCURVE",
"235 516 OFFCURVE",
"245 503 CURVE SMOOTH",
"252 494 OFFCURVE",
"210 442 OFFCURVE",
"190 441 CURVE"
);
}
);
width = 832;
}
);
unicode = 307D;
},
{
glyphname = "ma-hira";
lastChange = "2020-04-30 23:09:53 +0000";
layers = (
{
layerId = "1305C52C-0BD1-483E-A343-C05F3AFF2931";
paths = (
{
closed = 1;
nodes = (
"530 52 OFFCURVE",
"503 45 OFFCURVE",
"499 57 CURVE",
"494 75 OFFCURVE",
"498 102 OFFCURVE",
"490 118 CURVE SMOOTH",
"475 147 OFFCURVE",
"444 199 OFFCURVE",
"412 230 CURVE SMOOTH",
"349 293 OFFCURVE",
"301 311 OFFCURVE",
"292 302 CURVE",
"286 295 OFFCURVE",
"305 266 OFFCURVE",
"316 257 CURVE",
"323 252 OFFCURVE",
"346 256 OFFCURVE",
"353 246 CURVE",
"361 237 OFFCURVE",
"351 186 OFFCURVE",
"328 154 CURVE",
"318 139 OFFCURVE",
"291 118 OFFCURVE",
"283 122 CURVE",
"274 125 OFFCURVE",
"273 164 OFFCURVE",
"277 175 CURVE",
"280 181 OFFCURVE",
"284 187 OFFCURVE",
"286 193 CURVE",
"290 216 OFFCURVE",
"271 280 OFFCURVE",
"262 293 CURVE SMOOTH",
"244 318 OFFCURVE",
"230 318 OFFCURVE",
"226 356 CURVE",
"225 375 OFFCURVE",
"231 399 OFFCURVE",
"231 399 CURVE SMOOTH",
"231 399 OFFCURVE",
"170 399 OFFCURVE",
"141 399 CURVE",
"116 398 OFFCURVE",
"93 373 OFFCURVE",
"74 365 CURVE SMOOTH",
"55 357 OFFCURVE",
"17 353 OFFCURVE",
"12 361 CURVE SMOOTH",
"5 372 OFFCURVE",
"21 386 OFFCURVE",
"23 396 CURVE SMOOTH",
"25 405 OFFCURVE",
"23 415 OFFCURVE",
"29 422 CURVE",
"41 438 OFFCURVE",
"82 482 OFFCURVE",
"100 494 CURVE",
"110 500 OFFCURVE",
"130 505 OFFCURVE",
"136 494 CURVE SMOOTH",
"143 482 OFFCURVE",
"150 454 OFFCURVE",
"165 453 CURVE SMOOTH",
"195 452 OFFCURVE",
"259 450 OFFCURVE",
"298 449 CURVE SMOOTH",
"334 448 OFFCURVE",
"407 445 OFFCURVE",
"407 445 CURVE SMOOTH",
"407 445 OFFCURVE",
"390 509 OFFCURVE",
"381 539 CURVE SMOOTH",
"373 566 OFFCURVE",
"340 649 OFFCURVE",
"344 651 CURVE",
"351 654 OFFCURVE",
"388 600 OFFCURVE",
"407 543 CURVE SMOOTH",
"417 511 OFFCURVE",
"440 443 OFFCURVE",
"440 443 CURVE SMOOTH",
"440 443 OFFCURVE",
"597 419 OFFCURVE",
"681 383 CURVE SMOOTH",
"838 317 OFFCURVE",
"853 196 OFFCURVE",
"843 195 CURVE SMOOTH",
"818 192 OFFCURVE",
"823 273 OFFCURVE",
"669 344 CURVE SMOOTH",
"625 365 OFFCURVE",
"452 390 OFFCURVE",
"452 390 CURVE SMOOTH",
"452 390 OFFCURVE",
"477 314 OFFCURVE",
"492 278 CURVE SMOOTH",
"507 240 OFFCURVE",
"527 185 OFFCURVE",
"546 168 CURVE",
"555 159 OFFCURVE",
"582 159 OFFCURVE",
"585 146 CURVE SMOOTH",
"589 127 OFFCURVE",
"588 115 OFFCURVE",
"586 95 CURVE SMOOTH",
"584 77 OFFCURVE",
"564 55 OFFCURVE",
"548 53 CURVE"
);
},
{
closed = 1;
nodes = (
"467 215 OFFCURVE",
"453 282 OFFCURVE",
"445 311 CURVE SMOOTH",
"438 338 OFFCURVE",
"417 394 OFFCURVE",
"417 394 CURVE SMOOTH",
"417 394 OFFCURVE",
"380 396 OFFCURVE",
"360 397 CURVE SMOOTH",
"337 398 OFFCURVE",
"283 399 OFFCURVE",
"283 399 CURVE SMOOTH",
"283 399 OFFCURVE",
"284 392 OFFCURVE",
"294 378 CURVE",
"307 362 OFFCURVE",
"345 334 OFFCURVE",
"378 305 CURVE SMOOTH",
"399 286 OFFCURVE",
"467 215 OFFCURVE",
"467 215 CURVE SMOOTH"
);
}
);
width = 855;
}
);
unicode = 307E;
},
{
glyphname = "mi-hira";
lastChange = "2020-04-30 23:10:11 +0000";
layers = (
{
layerId = "1305C52C-0BD1-483E-A343-C05F3AFF2931";
paths = (
{
closed = 1;
nodes = (
"6 350 OFFCURVE",
"8 389 OFFCURVE",
"16 405 CURVE",
"27 429 OFFCURVE",
"67 476 OFFCURVE",
"89 482 CURVE",
"104 486 OFFCURVE",
"120 477 OFFCURVE",
"128 468 CURVE",
"136 459 OFFCURVE",
"134 437 OFFCURVE",
"142 429 CURVE",
"149 420 OFFCURVE",
"161 418 OFFCURVE",
"171 417 CURVE",
"198 416 OFFCURVE",
"297 416 OFFCURVE",
"297 416 CURVE",
"297 416 OFFCURVE",
"274 471 OFFCURVE",
"279 474 CURVE",
"289 479 OFFCURVE",
"321 424 OFFCURVE",
"321 424 CURVE",
"321 424 OFFCURVE",
"334 429 OFFCURVE",
"347 437 CURVE",
"355 441 OFFCURVE",
"360 451 OFFCURVE",
"362 458 CURVE",
"364 466 OFFCURVE",
"367 476 OFFCURVE",
"371 482 CURVE",
"377 494 OFFCURVE",
"391 522 OFFCURVE",
"417 522 CURVE",
"442 521 OFFCURVE",
"461 503 OFFCURVE",
"462 487 CURVE",
"463 471 OFFCURVE",
"469 465 OFFCURVE",
"469 446 CURVE",
"470 423 OFFCURVE",
"508 389 OFFCURVE",
"571 384 CURVE",
"655 377 OFFCURVE",
"733 467 OFFCURVE",
"753 526 CURVE",
"768 573 OFFCURVE",
"777 657 OFFCURVE",
"785 655 CURVE",
"794 654 OFFCURVE",
"792 525 OFFCURVE",
"769 473 CURVE",
"732 392 OFFCURVE",
"635 322 OFFCURVE",
"561 324 CURVE",
"434 326 OFFCURVE",
"406 412 OFFCURVE",
"374 410 CURVE",
"367 410 OFFCURVE",
"360 405 OFFCURVE",
"353 402 CURVE",
"347 399 OFFCURVE",
"334 393 OFFCURVE",
"334 393 CURVE",
"334 393 OFFCURVE",
"370 314 OFFCURVE",
"389 277 CURVE",
"429 200 OFFCURVE",
"464 162 OFFCURVE",
"496 139 CURVE",
"528 117 OFFCURVE",
"473 62 OFFCURVE",
"453 53 CURVE",
"445 49 OFFCURVE",
"426 41 OFFCURVE",
"421 51 CURVE",
"415 64 OFFCURVE",
"423 106 OFFCURVE",
"416 131 CURVE",
"405 165 OFFCURVE",
"381 216 OFFCURVE",
"363 258 CURVE",
"344 301 OFFCURVE",
"309 386 OFFCURVE",
"309 386 CURVE",
"309 386 OFFCURVE",
"227 384 OFFCURVE",
"189 384 CURVE",
"155 383 OFFCURVE",
"116 384 OFFCURVE",
"88 384 CURVE",
"62 384 OFFCURVE",
"30 337 OFFCURVE",
"18 343 CURVE"
);
},
{
closed = 1;
nodes = (
"228 118 OFFCURVE",
"229 140 OFFCURVE",
"229 153 CURVE",
"230 165 OFFCURVE",
"236 186 OFFCURVE",
"234 199 CURVE",
"232 223 OFFCURVE",
"216 261 OFFCURVE",
"202 280 CURVE",
"191 294 OFFCURVE",
"162 292 OFFCURVE",
"161 322 CURVE",
"161 345 OFFCURVE",
"191 375 OFFCURVE",
"206 375 CURVE",
"231 375 OFFCURVE",
"236 343 OFFCURVE",
"249 332 CURVE",
"267 315 OFFCURVE",
"286 306 OFFCURVE",
"319 269 CURVE",
"353 231 OFFCURVE",
"378 180 OFFCURVE",
"374 176 CURVE",
"369 172 OFFCURVE",
"343 209 OFFCURVE",
"313 238 CURVE",
"273 278 OFFCURVE",
"250 280 OFFCURVE",
"245 278 CURVE",
"241 275 OFFCURVE",
"257 253 OFFCURVE",
"278 232 CURVE",
"296 215 OFFCURVE",
"316 211 OFFCURVE",
"319 197 CURVE",
"322 183 OFFCURVE",
"247 106 OFFCURVE",
"237 113 CURVE"
);
}
);
width = 800;
}
);
unicode = 307F;
},
{
glyphname = "mu-hira";
lastChange = "2020-04-30 23:10:39 +0000";
layers = (
{
layerId = "1305C52C-0BD1-483E-A343-C05F3AFF2931";
paths = (
{
closed = 1;
nodes = (
"273 94 OFFCURVE",
"306 121 OFFCURVE",
"306 142 CURVE",
"306 176 OFFCURVE",
"267 216 OFFCURVE",
"266 238 CURVE",
"266 258 OFFCURVE",
"287 277 OFFCURVE",
"304 277 CURVE",
"329 277 OFFCURVE",
"330 252 OFFCURVE",
"341 243 CURVE",
"355 230 OFFCURVE",
"375 214 OFFCURVE",
"388 197 CURVE",
"402 179 OFFCURVE",
"426 142 OFFCURVE",
"426 142 CURVE",
"426 142 OFFCURVE",
"392 165 OFFCURVE",
"377 177 CURVE",
"359 193 OFFCURVE",
"325 219 OFFCURVE",
"316 210 CURVE",
"311 205 OFFCURVE",
"331 176 OFFCURVE",
"342 165 CURVE",
"353 154 OFFCURVE",
"380 150 OFFCURVE",
"381 140 CURVE",
"382 131 OFFCURVE",
"340 97 OFFCURVE",
"323 88 CURVE",
"312 81 OFFCURVE",
"284 75 OFFCURVE",
"279 83 CURVE"
);
},
{
closed = 1;
nodes = (
"6 353 OFFCURVE",
"29 378 OFFCURVE",
"34 391 CURVE",
"37 399 OFFCURVE",
"36 416 OFFCURVE",
"42 424 CURVE",
"51 437 OFFCURVE",
"82 471 OFFCURVE",
"113 471 CURVE",
"132 472 OFFCURVE",
"133 432 OFFCURVE",
"153 433 CURVE",
"195 433 OFFCURVE",
"361 428 OFFCURVE",
"361 428 CURVE",
"361 428 OFFCURVE",
"344 482 OFFCURVE",
"337 513 CURVE",
"330 546 OFFCURVE",
"311 628 OFFCURVE",
"311 628 CURVE",
"311 628 OFFCURVE",
"344 555 OFFCURVE",
"356 519 CURVE",
"368 486 OFFCURVE",
"393 427 OFFCURVE",
"393 427 CURVE",
"393 427 OFFCURVE",
"535 426 OFFCURVE",
"605 425 CURVE",
"684 423 OFFCURVE",
"866 425 OFFCURVE",
"867 411 CURVE",
"868 399 OFFCURVE",
"683 388 OFFCURVE",
"607 384 CURVE",
"543 381 OFFCURVE",
"411 377 OFFCURVE",
"411 377 CURVE",
"411 377 OFFCURVE",
"442 294 OFFCURVE",
"455 262 CURVE",
"466 236 OFFCURVE",
"481 199 OFFCURVE",
"496 180 CURVE",
"509 163 OFFCURVE",
"545 154 OFFCURVE",
"547 140 CURVE",
"551 116 OFFCURVE",
"503 74 OFFCURVE",
"485 73 CURVE",
"467 72 OFFCURVE",
"443 87 OFFCURVE",
"441 96 CURVE",
"439 107 OFFCURVE",
"462 115 OFFCURVE",
"459 124 CURVE",
"453 153 OFFCURVE",
"435 202 OFFCURVE",
"421 243 CURVE",
"406 285 OFFCURVE",
"374 377 OFFCURVE",
"374 377 CURVE",
"374 377 OFFCURVE",
"190 372 OFFCURVE",
"142 372 CURVE",
"127 372 OFFCURVE",
"101 364 OFFCURVE",
"87 358 CURVE",
"76 354 OFFCURVE",
"67 345 OFFCURVE",
"56 343 CURVE",
"43 340 OFFCURVE",
"13 335 OFFCURVE",
"10 344 CURVE"
);
},
{
closed = 1;
nodes = (
"78 183 OFFCURVE",
"95 199 OFFCURVE",
"98 208 CURVE",
"101 215 OFFCURVE",
"103 227 OFFCURVE",
"107 232 CURVE",
"118 246 OFFCURVE",
"149 279 OFFCURVE",
"163 287 CURVE",
"174 294 OFFCURVE",
"203 294 OFFCURVE",
"205 268 CURVE",
"205 261 OFFCURVE",
"197 252 OFFCURVE",
"198 245 CURVE",
"203 229 OFFCURVE",
"240 179 OFFCURVE",
"233 170 CURVE",
"227 163 OFFCURVE",
"180 213 OFFCURVE",
"158 206 CURVE",
"138 199 OFFCURVE",
"120 185 OFFCURVE",
"107 180 CURVE",
"100 177 OFFCURVE",
"85 172 OFFCURVE",
"82 176 CURVE"
);
}
);
width = 877;
}
);
unicode = 3080;
},
{
glyphname = "me-hira";
lastChange = "2020-04-30 23:10:53 +0000";
layers = (
{
layerId = "1305C52C-0BD1-483E-A343-C05F3AFF2931";
paths = (
{
closed = 1;
nodes = (
"391 92 OFFCURVE",
"400 139 OFFCURVE",
"393 161 CURVE",
"367 242 OFFCURVE",
"231 568 OFFCURVE",
"243 574 CURVE",
"254 579 OFFCURVE",
"377 267 OFFCURVE",
"412 190 CURVE",
"425 162 OFFCURVE",
"452 162 OFFCURVE",
"458 147 CURVE",
"463 134 OFFCURVE",
"452 117 OFFCURVE",
"441 107 CURVE",
"431 96 OFFCURVE",
"406 75 OFFCURVE",
"398 83 CURVE"
);
},
{
closed = 1;
nodes = (
"5 389 OFFCURVE",
"39 400 OFFCURVE",
"51 400 CURVE",
"134 401 OFFCURVE",
"158 388 OFFCURVE",
"224 380 CURVE",
"286 373 OFFCURVE",
"315 373 OFFCURVE",
"356 378 CURVE",
"430 387 OFFCURVE",
"447 461 OFFCURVE",
"471 558 CURVE",
"478 588 OFFCURVE",
"519 622 OFFCURVE",
"550 619 CURVE",
"585 617 OFFCURVE",
"620 572 OFFCURVE",
"628 518 CURVE",
"638 451 OFFCURVE",
"712 330 OFFCURVE",
"777 313 CURVE",
"800 307 OFFCURVE",
"883 321 OFFCURVE",
"885 315 CURVE",
"890 305 OFFCURVE",
"793 280 OFFCURVE",
"743 294 CURVE",
"700 306 OFFCURVE",
"652 351 OFFCURVE",
"626 389 CURVE",
"597 431 OFFCURVE",
"558 521 OFFCURVE",
"537 522 CURVE",
"502 525 OFFCURVE",
"484 422 OFFCURVE",
"455 385 CURVE",
"430 352 OFFCURVE",
"390 338 OFFCURVE",
"341 337 CURVE",
"285 336 OFFCURVE",
"174 363 OFFCURVE",
"119 370 CURVE",
"82 374 OFFCURVE",
"18 365 OFFCURVE",
"11 378 CURVE"
);
},
{
closed = 1;
nodes = (
"243 143 OFFCURVE",
"265 174 OFFCURVE",
"262 193 CURVE",
"258 216 OFFCURVE",
"235 263 OFFCURVE",
"223 278 CURVE",
"215 289 OFFCURVE",
"195 282 OFFCURVE",
"187 288 CURVE",
"180 295 OFFCURVE",
"178 312 OFFCURVE",
"179 322 CURVE",
"180 334 OFFCURVE",
"194 359 OFFCURVE",
"194 359 CURVE",
"251 350 LINE",
"251 350 OFFCURVE",
"247 337 OFFCURVE",
"251 331 CURVE",
"262 318 OFFCURVE",
"291 291 OFFCURVE",
"315 270 CURVE",
"338 250 OFFCURVE",
"377 188 OFFCURVE",
"376 187 CURVE",
"373 184 OFFCURVE",
"325 232 OFFCURVE",
"307 246 CURVE",
"291 257 OFFCURVE",
"263 278 OFFCURVE",
"256 272 CURVE",
"248 266 OFFCURVE",
"267 243 OFFCURVE",
"277 231 CURVE",
"287 218 OFFCURVE",
"315 210 OFFCURVE",
"321 195 CURVE",
"330 169 OFFCURVE",
"254 131 OFFCURVE",
"249 137 CURVE"
);
}
);
width = 895;
}
);
unicode = 3081;
},
{
glyphname = "mo-hira";
lastChange = "2020-04-30 23:12:11 +0000";
layers = (
{
layerId = "1305C52C-0BD1-483E-A343-C05F3AFF2931";
paths = (
{
closed = 1;
nodes = (
"517 11 OFFCURVE",
"528 63 OFFCURVE",
"519 79 CURVE SMOOTH",
"514 88 OFFCURVE",
"501 102 OFFCURVE",
"501 107 CURVE SMOOTH",
"501 112 OFFCURVE",
"516 110 OFFCURVE",
"515 116 CURVE SMOOTH",
"511 138 OFFCURVE",
"505 193 OFFCURVE",
"496 230 CURVE SMOOTH",
"484 278 OFFCURVE",
"447 401 OFFCURVE",
"447 401 CURVE SMOOTH",
"447 401 OFFCURVE",
"504 272 OFFCURVE",
"524 224 CURVE SMOOTH",
"538 190 OFFCURVE",
"557 141 OFFCURVE",
"570 114 CURVE SMOOTH",
"578 97 OFFCURVE",
"600 85 OFFCURVE",
"603 67 CURVE SMOOTH",
"606 49 OFFCURVE",
"568 7 OFFCURVE",
"555 8 CURVE SMOOTH"
);
},
{
closed = 1;
nodes = (
"350 67 OFFCURVE",
"328 80 OFFCURVE",
"327 87 CURVE SMOOTH",
"326 94 OFFCURVE",
"356 96 OFFCURVE",
"357 107 CURVE SMOOTH",
"358 122 OFFCURVE",
"347 163 OFFCURVE",
"338 185 CURVE SMOOTH",
"322 225 OFFCURVE",
"299 240 OFFCURVE",
"299 260 CURVE SMOOTH",
"299 281 OFFCURVE",
"336 299 OFFCURVE",
"345 298 CURVE SMOOTH",
"357 297 OFFCURVE",
"356 276 OFFCURVE",
"366 265 CURVE SMOOTH",
"380 250 OFFCURVE",
"402 227 OFFCURVE",
"420 207 CURVE SMOOTH",
"439 186 OFFCURVE",
"480 144 OFFCURVE",
"480 144 CURVE SMOOTH",
"480 144 OFFCURVE",
"438 168 OFFCURVE",
"419 179 CURVE SMOOTH",
"398 191 OFFCURVE",
"373 212 OFFCURVE",
"360 203 CURVE SMOOTH",
"351 197 OFFCURVE",
"378 170 OFFCURVE",
"391 158 CURVE SMOOTH",
"404 146 OFFCURVE",
"421 139 OFFCURVE",
"423 126 CURVE SMOOTH",
"425 114 OFFCURVE",
"408 95 OFFCURVE",
"398 84 CURVE SMOOTH",
"389 74 OFFCURVE",
"373 65 OFFCURVE",
"361 66 CURVE SMOOTH"
);
},
{
closed = 1;
nodes = (
"183 144 OFFCURVE",
"141 218 OFFCURVE",
"141 266 CURVE SMOOTH",
"141 303 OFFCURVE",
"177 337 OFFCURVE",
"177 337 CURVE SMOOTH",
"177 337 OFFCURVE",
"157 357 OFFCURVE",
"145 368 CURVE SMOOTH",
"129 383 OFFCURVE",
"98 399 OFFCURVE",
"82 400 CURVE SMOOTH",
"66 401 OFFCURVE",
"55 391 OFFCURVE",
"43 391 CURVE SMOOTH",
"31 391 OFFCURVE",
"13 389 OFFCURVE",
"10 398 CURVE SMOOTH",
"8 404 OFFCURVE",
"31 436 OFFCURVE",
"45 450 CURVE SMOOTH",
"57 462 OFFCURVE",
"75 474 OFFCURVE",
"92 471 CURVE SMOOTH",
"114 467 OFFCURVE",
"108 443 OFFCURVE",
"150 409 CURVE SMOOTH",
"167 395 OFFCURVE",
"200 358 OFFCURVE",
"200 358 CURVE SMOOTH",
"200 358 OFFCURVE",
"237 387 OFFCURVE",
"327 378 CURVE SMOOTH",
"389 372 OFFCURVE",
"493 348 OFFCURVE",
"574 349 CURVE SMOOTH",
"688 350 OFFCURVE",
"755 416 OFFCURVE",
"762 490 CURVE SMOOTH",
"768 550 OFFCURVE",
"689 683 OFFCURVE",
"697 692 CURVE SMOOTH",
"705 701 OFFCURVE",
"812 594 OFFCURVE",
"828 473 CURVE SMOOTH",
"840 380 OFFCURVE",
"737 287 OFFCURVE",
"658 278 CURVE SMOOTH",
"578 269 OFFCURVE",
"445 296 OFFCURVE",
"374 311 CURVE SMOOTH",
"252 337 OFFCURVE",
"225 328 OFFCURVE",
"225 328 CURVE SMOOTH",
"225 328 OFFCURVE",
"252 280 OFFCURVE",
"260 249 CURVE SMOOTH",
"270 211 OFFCURVE",
"278 134 OFFCURVE",
"240 138 CURVE SMOOTH"
);
},
{
closed = 1;
nodes = (
"244 177 OFFCURVE",
"240 218 OFFCURVE",
"233 245 CURVE SMOOTH",
"223 282 OFFCURVE",
"198 317 OFFCURVE",
"198 317 CURVE SMOOTH",
"198 317 OFFCURVE",
"166 304 OFFCURVE",
"174 239 CURVE SMOOTH",
"179 197 OFFCURVE",
"221 172 OFFCURVE",
"230 174 CURVE SMOOTH"
);
}
);
width = 839;
}
);
unicode = 3082;
},
{
glyphname = "ya-hira";
lastChange = "2020-04-30 23:12:22 +0000";
layers = (
{
layerId = "1305C52C-0BD1-483E-A343-C05F3AFF2931";
paths = (
{
closed = 1;
nodes = (
"274 81 OFFCURVE",
"301 123 OFFCURVE",
"299 146 CURVE",
"295 187 OFFCURVE",
"260 230 OFFCURVE",
"259 256 CURVE",
"258 276 OFFCURVE",
"284 302 OFFCURVE",
"295 302 CURVE",
"315 301 OFFCURVE",
"314 264 OFFCURVE",
"326 252 CURVE",
"348 230 OFFCURVE",
"398 172 OFFCURVE",
"429 172 CURVE",
"459 173 OFFCURVE",
"449 203 OFFCURVE",
"440 213 CURVE",
"426 230 OFFCURVE",
"405 242 OFFCURVE",
"406 264 CURVE",
"407 285 OFFCURVE",
"434 303 OFFCURVE",
"447 302 CURVE",
"464 301 OFFCURVE",
"468 278 OFFCURVE",
"479 271 CURVE",
"501 258 OFFCURVE",
"565 229 OFFCURVE",
"601 199 CURVE",
"669 140 OFFCURVE",
"682 47 OFFCURVE",
"682 47 CURVE",
"682 47 OFFCURVE",
"626 149 OFFCURVE",
"589 177 CURVE",
"526 224 OFFCURVE",
"466 222 OFFCURVE",
"466 222 CURVE",
"466 222 OFFCURVE",
"476 187 OFFCURVE",
"475 170 CURVE",
"475 154 OFFCURVE",
"462 128 OFFCURVE",
"442 128 CURVE",
"396 129 OFFCURVE",
"334 183 OFFCURVE",
"334 183 CURVE",
"334 183 OFFCURVE",
"330 172 OFFCURVE",
"337 162 CURVE",
"345 150 OFFCURVE",
"365 139 OFFCURVE",
"365 129 CURVE",
"368 92 OFFCURVE",
"299 59 OFFCURVE",
"285 71 CURVE"
);
},
{
closed = 1;
nodes = (
"284 551 OFFCURVE",
"312 602 OFFCURVE",
"329 621 CURVE",
"343 638 OFFCURVE",
"370 654 OFFCURVE",
"387 653 CURVE",
"421 651 OFFCURVE",
"411 607 OFFCURVE",
"424 588 CURVE",
"446 557 OFFCURVE",
"478 518 OFFCURVE",
"514 465 CURVE",
"558 399 OFFCURVE",
"601 284 OFFCURVE",
"601 284 CURVE",
"601 284 OFFCURVE",
"527 394 OFFCURVE",
"488 441 CURVE",
"450 485 OFFCURVE",
"369 548 OFFCURVE",
"351 546 CURVE",
"333 543 OFFCURVE",
"303 520 OFFCURVE",
"292 537 CURVE"
);
},
{
closed = 1;
nodes = (
"4 281 OFFCURVE",
"29 328 OFFCURVE",
"45 356 CURVE",
"62 387 OFFCURVE",
"85 437 OFFCURVE",
"120 435 CURVE",
"137 434 OFFCURVE",
"143 405 OFFCURVE",
"155 391 CURVE",
"176 368 OFFCURVE",
"362 362 OFFCURVE",
"465 361 CURVE",
"571 361 OFFCURVE",
"724 365 OFFCURVE",
"784 368 CURVE",
"798 368 OFFCURVE",
"813 374 OFFCURVE",
"827 374 CURVE",
"842 374 OFFCURVE",
"872 374 OFFCURVE",
"874 366 CURVE",
"876 355 OFFCURVE",
"826 314 OFFCURVE",
"808 312 CURVE",
"798 311 OFFCURVE",
"784 321 OFFCURVE",
"773 322 CURVE",
"718 325 OFFCURVE",
"572 333 OFFCURVE",
"471 334 CURVE",
"361 335 OFFCURVE",
"218 336 OFFCURVE",
"148 334 CURVE",
"118 333 OFFCURVE",
"59 280 OFFCURVE",
"38 270 CURVE",
"30 266 OFFCURVE",
"18 262 OFFCURVE",
"12 270 CURVE"
);
}
);
width = 884;
}
);
unicode = 3084;
},
{
glyphname = "yasmall-hira";
lastChange = "2020-04-30 23:12:40 +0000";
layers = (
{
layerId = "1305C52C-0BD1-483E-A343-C05F3AFF2931";
paths = (
{
closed = 1;
nodes = (
"210 465 LINE",
"205 473 OFFCURVE",
"221 500 OFFCURVE",
"231 514 CURVE",
"240 529 OFFCURVE",
"254 551 OFFCURVE",
"264 550 CURVE",
"281 548 OFFCURVE",
"279 512 OFFCURVE",
"288 500 CURVE",
"304 479 OFFCURVE",
"332 448 OFFCURVE",
"353 421 CURVE",
"376 391 OFFCURVE",
"419 318 OFFCURVE",
"419 318 CURVE",
"419 318 OFFCURVE",
"364 383 OFFCURVE",
"338 411 CURVE",
"312 437 OFFCURVE",
"279 466 OFFCURVE",
"258 475 CURVE",
"244 481 OFFCURVE",
"216 457 OFFCURVE",
"210 465 CURVE"
);
},
{
closed = 1;
nodes = (
"122 473 LINE",
"121 484 OFFCURVE",
"132 520 OFFCURVE",
"155 519 CURVE",
"176 518 OFFCURVE",
"168 486 OFFCURVE",
"177 477 CURVE",
"198 454 OFFCURVE",
"246 423 OFFCURVE",
"278 386 CURVE",
"330 328 OFFCURVE",
"351 256 OFFCURVE",
"351 256 CURVE",
"351 256 OFFCURVE",
"304 333 OFFCURVE",
"273 365 CURVE",
"240 397 OFFCURVE",
"193 431 OFFCURVE",
"164 446 CURVE",
"153 453 OFFCURVE",
"125 452 OFFCURVE",
"122 473 CURVE"
);
},
{
closed = 1;
nodes = (
"53 473 LINE",
"53 473 OFFCURVE",
"93 424 OFFCURVE",
"121 423 CURVE",
"179 421 OFFCURVE",
"149 458 OFFCURVE",
"149 458 CURVE",
"190 446 LINE",
"190 446 OFFCURVE",
"168 403 OFFCURVE",
"149 402 CURVE",
"130 400 OFFCURVE",
"77 416 OFFCURVE",
"77 416 CURVE",
"53 473 LINE"
);
},
{
closed = 1;
nodes = (
"72 338 LINE",
"66 344 OFFCURVE",
"78 377 OFFCURVE",
"73 394 CURVE",
"67 414 OFFCURVE",
"47 441 OFFCURVE",
"37 454 CURVE",
"30 463 OFFCURVE",
"11 470 OFFCURVE",
"10 480 CURVE",
"10 490 OFFCURVE",
"24 516 OFFCURVE",
"34 516 CURVE",
"44 515 OFFCURVE",
"49 497 OFFCURVE",
"50 486 CURVE",
"51 470 OFFCURVE",
"72 435 OFFCURVE",
"84 418 CURVE",
"97 402 OFFCURVE",
"119 396 OFFCURVE",
"123 385 CURVE",
"127 374 OFFCURVE",
"77 331 OFFCURVE",
"72 338 CURVE"
);
}
);
width = 429;
}
);
unicode = 3083;
},
{
glyphname = "yu-hira";
lastChange = "2020-04-30 23:12:50 +0000";
layers = (
{
layerId = "1305C52C-0BD1-483E-A343-C05F3AFF2931";
paths = (
{
closed = 1;
nodes = (
"196 363 OFFCURVE",
"270 295 OFFCURVE",
"318 294 CURVE",
"347 293 OFFCURVE",
"375 306 OFFCURVE",
"373 332 CURVE",
"372 355 OFFCURVE",
"338 415 OFFCURVE",
"324 415 CURVE",
"314 415 OFFCURVE",
"307 405 OFFCURVE",
"299 406 CURVE",
"286 406 OFFCURVE",
"276 428 OFFCURVE",
"276 443 CURVE",
"277 464 OFFCURVE",
"305 534 OFFCURVE",
"328 534 CURVE",
"343 534 OFFCURVE",
"361 502 OFFCURVE",
"384 501 CURVE",
"438 499 OFFCURVE",
"570 438 OFFCURVE",
"651 358 CURVE",
"758 253 OFFCURVE",
"745 111 OFFCURVE",
"737 111 CURVE",
"724 111 OFFCURVE",
"737 211 OFFCURVE",
"655 302 CURVE",
"564 401 OFFCURVE",
"372 429 OFFCURVE",
"372 429 CURVE",
"372 429 OFFCURVE",
"414 356 OFFCURVE",
"413 327 CURVE",
"412 298 OFFCURVE",
"384 261 OFFCURVE",
"354 261 CURVE",
"298 261 OFFCURVE",
"209 318 OFFCURVE",
"209 318 CURVE",
"196 363 LINE"
);
},
{
closed = 1;
nodes = (
"5 278 OFFCURVE",
"19 340 OFFCURVE",
"33 365 CURVE",
"45 388 OFFCURVE",
"73 411 OFFCURVE",
"109 410 CURVE",
"123 410 OFFCURVE",
"137 395 OFFCURVE",
"136 374 CURVE",
"136 359 OFFCURVE",
"108 341 OFFCURVE",
"101 324 CURVE",
"95 310 OFFCURVE",
"97 281 OFFCURVE",
"91 280 CURVE",
"85 278 OFFCURVE",
"76 318 OFFCURVE",
"62 318 CURVE",
"47 317 OFFCURVE",
"19 265 OFFCURVE",
"12 272 CURVE"
);
},
{
closed = 1;
nodes = (
"165 87 OFFCURVE",
"200 128 OFFCURVE",
"203 151 CURVE",
"210 195 OFFCURVE",
"192 267 OFFCURVE",
"161 377 CURVE",
"139 454 OFFCURVE",
"95 620 OFFCURVE",
"110 625 CURVE",
"127 630 OFFCURVE",
"161 491 OFFCURVE",
"179 433 CURVE",
"199 368 OFFCURVE",
"221 285 OFFCURVE",
"239 243 CURVE",
"248 221 OFFCURVE",
"277 202 OFFCURVE",
"280 180 CURVE",
"284 158 OFFCURVE",
"268 130 OFFCURVE",
"253 111 CURVE",
"238 91 OFFCURVE",
"180 68 OFFCURVE",
"173 77 CURVE"
);
}
);
width = 752;
}
);
unicode = 3086;
},
{
glyphname = "yusmall-hira";
lastChange = "2020-04-30 23:13:12 +0000";
layers = (
{
layerId = "1305C52C-0BD1-483E-A343-C05F3AFF2931";
paths = (
{
closed = 1;
nodes = (
"179 490 LINE",
"162 500 OFFCURVE",
"180 559 OFFCURVE",
"189 559 CURVE",
"196 559 OFFCURVE",
"197 537 OFFCURVE",
"205 530 CURVE",
"230 511 OFFCURVE",
"271 504 OFFCURVE",
"337 445 CURVE",
"399 391 OFFCURVE",
"421 303 OFFCURVE",
"421 303 CURVE",
"421 303 OFFCURVE",
"371 383 OFFCURVE",
"330 418 CURVE",
"231 504 OFFCURVE",
"205 474 OFFCURVE",
"179 490 CURVE"
);
},
{
closed = 1;
nodes = (
"100 514 LINE",
"100 514 OFFCURVE",
"147 472 OFFCURVE",
"165 467 CURVE",
"177 465 OFFCURVE",
"199 466 OFFCURVE",
"200 474 CURVE",
"201 482 OFFCURVE",
"200 502 OFFCURVE",
"200 502 CURVE",
"220 502 LINE",
"220 502 OFFCURVE",
"226 466 OFFCURVE",
"223 455 CURVE",
"221 444 OFFCURVE",
"208 433 OFFCURVE",
"197 433 CURVE",
"153 433 OFFCURVE",
"115 465 OFFCURVE",
"115 465 CURVE",
"100 514 LINE"
);
},
{
closed = 1;
nodes = (
"112 342 LINE",
"107 352 OFFCURVE",
"132 369 OFFCURVE",
"130 384 CURVE",
"128 406 OFFCURVE",
"114 440 OFFCURVE",
"104 461 CURVE",
"95 480 OFFCURVE",
"70 495 OFFCURVE",
"67 518 CURVE",
"66 534 OFFCURVE",
"78 555 OFFCURVE",
"89 556 CURVE",
"102 556 OFFCURVE",
"109 501 OFFCURVE",
"117 474 CURVE",
"140 406 OFFCURVE",
"173 408 OFFCURVE",
"174 390 CURVE",
"176 360 OFFCURVE",
"115 336 OFFCURVE",
"112 342 CURVE"
);
},
{
closed = 1;
nodes = (
"29 360 LINE",
"26 368 OFFCURVE",
"57 390 OFFCURVE",
"53 407 CURVE",
"46 440 OFFCURVE",
"10 545 OFFCURVE",
"10 545 CURVE",
"10 545 OFFCURVE",
"58 453 OFFCURVE",
"74 429 CURVE",
"83 415 OFFCURVE",
"111 406 OFFCURVE",
"111 395 CURVE",
"111 374 OFFCURVE",
"36 340 OFFCURVE",
"29 360 CURVE"
);
}
);
width = 431;
}
);
unicode = 3085;
},
{
glyphname = "yo-hira";
lastChange = "2020-04-30 23:13:28 +0000";
layers = (
{
layerId = "1305C52C-0BD1-483E-A343-C05F3AFF2931";
paths = (
{
closed = 1;
nodes = (
"83 90 OFFCURVE",
"109 129 OFFCURVE",
"106 152 CURVE",
"103 174 OFFCURVE",
"81 218 OFFCURVE",
"58 257 CURVE",
"33 300 OFFCURVE",
"9 313 OFFCURVE",
"10 348 CURVE",
"11 368 OFFCURVE",
"26 384 OFFCURVE",
"40 383 CURVE",
"64 381 OFFCURVE",
"64 330 OFFCURVE",
"137 274 CURVE",
"178 244 OFFCURVE",
"227 224 OFFCURVE",
"238 231 CURVE",
"248 237 OFFCURVE",
"235 273 OFFCURVE",
"211 282 CURVE",
"181 292 OFFCURVE",
"156 307 OFFCURVE",
"158 341 CURVE",
"159 363 OFFCURVE",
"179 391 OFFCURVE",
"203 391 CURVE",
"221 390 OFFCURVE",
"230 374 OFFCURVE",
"243 366 CURVE",
"271 349 OFFCURVE",
"335 309 OFFCURVE",
"373 280 CURVE",
"409 253 OFFCURVE",
"467 190 OFFCURVE",
"467 190 CURVE",
"467 190 OFFCURVE",
"499 252 OFFCURVE",
"517 283 CURVE",
"552 343 OFFCURVE",
"646 438 OFFCURVE",
"643 545 CURVE",
"641 609 OFFCURVE",
"596 734 OFFCURVE",
"608 740 CURVE",
"621 747 OFFCURVE",
"707 593 OFFCURVE",
"710 509 CURVE",
"710 407 OFFCURVE",
"650 350 OFFCURVE",
"609 296 CURVE",
"571 245 OFFCURVE",
"507 211 OFFCURVE",
"508 136 CURVE",
"509 60 OFFCURVE",
"585 50 OFFCURVE",
"588 1 CURVE",
"590 -25 OFFCURVE",
"537 -40 OFFCURVE",
"520 -40 CURVE",
"509 -41 OFFCURVE",
"501 -35 OFFCURVE",
"500 -28 CURVE",
"499 -15 OFFCURVE",
"513 -2 OFFCURVE",
"510 9 CURVE",
"508 20 OFFCURVE",
"477 71 OFFCURVE",
"470 105 CURVE",
"463 143 OFFCURVE",
"431 190 OFFCURVE",
"395 219 CURVE",
"294 296 OFFCURVE",
"250 291 OFFCURVE",
"250 291 CURVE",
"250 291 OFFCURVE",
"277 249 OFFCURVE",
"276 232 CURVE",
"276 212 OFFCURVE",
"254 192 OFFCURVE",
"234 190 CURVE",
"207 188 OFFCURVE",
"106 256 OFFCURVE",
"106 256 CURVE",
"106 256 OFFCURVE",
"137 217 OFFCURVE",
"153 202 CURVE",
"169 187 OFFCURVE",
"203 183 OFFCURVE",
"205 167 CURVE",
"206 150 OFFCURVE",
"181 120 OFFCURVE",
"163 105 CURVE",
"144 91 OFFCURVE",
"103 71 OFFCURVE",
"94 79 CURVE"
);
}
);
width = 720;
}
);
unicode = 3088;
},
{
glyphname = "yosmall-hira";
lastChange = "2020-04-30 23:13:50 +0000";
layers = (
{
layerId = "1305C52C-0BD1-483E-A343-C05F3AFF2931";
paths = (
{
closed = 1;
nodes = (
"243 389 LINE",
"243 389 OFFCURVE",
"234 418 OFFCURVE",
"235 434 CURVE",
"238 482 OFFCURVE",
"287 484 OFFCURVE",
"299 483 CURVE",
"318 481 OFFCURVE",
"335 478 OFFCURVE",
"351 479 CURVE",
"369 480 OFFCURVE",
"388 499 OFFCURVE",
"385 526 CURVE",
"380 567 OFFCURVE",
"341 618 OFFCURVE",
"341 618 CURVE",
"341 618 OFFCURVE",
"422 573 OFFCURVE",
"422 496 CURVE",
"422 467 OFFCURVE",
"389 433 OFFCURVE",
"366 432 CURVE",
"339 432 OFFCURVE",
"307 447 OFFCURVE",
"289 447 CURVE",
"229 449 OFFCURVE",
"256 387 OFFCURVE",
"256 387 CURVE",
"243 389 LINE"
);
},
{
closed = 1;
nodes = (
"120 447 LINE",
"117 458 OFFCURVE",
"132 499 OFFCURVE",
"156 497 CURVE",
"176 496 OFFCURVE",
"172 467 OFFCURVE",
"182 458 CURVE",
"202 435 OFFCURVE",
"249 405 OFFCURVE",
"281 369 CURVE",
"333 309 OFFCURVE",
"352 234 OFFCURVE",
"352 234 CURVE",
"352 234 OFFCURVE",
"304 312 OFFCURVE",
"273 343 CURVE",
"241 375 OFFCURVE",
"199 409 OFFCURVE",
"169 422 CURVE",
"157 428 OFFCURVE",
"125 417 OFFCURVE",
"120 447 CURVE"
);
},
{
closed = 1;
nodes = (
"53 452 LINE",
"53 452 OFFCURVE",
"93 403 OFFCURVE",
"121 402 CURVE",
"152 400 OFFCURVE",
"150 437 OFFCURVE",
"150 437 CURVE",
"190 424 LINE",
"190 424 OFFCURVE",
"169 375 OFFCURVE",
"150 373 CURVE",
"130 372 OFFCURVE",
"77 394 OFFCURVE",
"77 394 CURVE",
"53 452 LINE"
);
},
{
closed = 1;
nodes = (
"51 314 LINE",
"45 320 OFFCURVE",
"66 348 OFFCURVE",
"61 366 CURVE",
"55 385 OFFCURVE",
"40 407 OFFCURVE",
"30 421 CURVE",
"23 430 OFFCURVE",
"10 446 OFFCURVE",
"10 459 CURVE",
"11 471 OFFCURVE",
"24 495 OFFCURVE",
"34 494 CURVE",
"44 494 OFFCURVE",
"49 475 OFFCURVE",
"50 464 CURVE",
"51 448 OFFCURVE",
"72 414 OFFCURVE",
"84 397 CURVE",
"97 380 OFFCURVE",
"109 369 OFFCURVE",
"114 358 CURVE",
"125 329 OFFCURVE",
"56 307 OFFCURVE",
"51 314 CURVE"
);
}
);
width = 432;
}
);
unicode = 3087;
},
{
glyphname = "ra-hira";
lastChange = "2020-04-30 23:13:59 +0000";
layers = (
{
layerId = "1305C52C-0BD1-483E-A343-C05F3AFF2931";
paths = (
{
closed = 1;
nodes = (
"328 201 OFFCURVE",
"261 367 OFFCURVE",
"261 367 CURVE SMOOTH",
"261 367 OFFCURVE",
"154 426 OFFCURVE",
"130 444 CURVE",
"119 453 OFFCURVE",
"95 446 OFFCURVE",
"95 446 CURVE SMOOTH",
"95 446 OFFCURVE",
"154 327 OFFCURVE",
"183 298 CURVE",
"198 281 OFFCURVE",
"208 254 OFFCURVE",
"196 231 CURVE",
"186 208 OFFCURVE",
"135 168 OFFCURVE",
"112 163 CURVE",
"94 156 OFFCURVE",
"75 152 OFFCURVE",
"71 166 CURVE",
"66 176 OFFCURVE",
"115 231 OFFCURVE",
"112 268 CURVE SMOOTH",
"109 307 OFFCURVE",
"70 412 OFFCURVE",
"53 443 CURVE SMOOTH",
"47 454 OFFCURVE",
"27 454 OFFCURVE",
"19 464 CURVE",
"12 475 OFFCURVE",
"8 501 OFFCURVE",
"12 513 CURVE",
"16 529 OFFCURVE",
"42 564 OFFCURVE",
"56 571 CURVE",
"66 575 OFFCURVE",
"89 563 OFFCURVE",
"100 555 CURVE",
"115 542 OFFCURVE",
"118 510 OFFCURVE",
"139 491 CURVE SMOOTH",
"164 467 OFFCURVE",
"255 412 OFFCURVE",
"255 412 CURVE SMOOTH",
"255 412 OFFCURVE",
"253 476 OFFCURVE",
"309 523 CURVE SMOOTH",
"384 585 OFFCURVE",
"429 569 OFFCURVE",
"486 565 CURVE SMOOTH",
"551 561 OFFCURVE",
"648 477 OFFCURVE",
"698 430 CURVE SMOOTH",
"742 389 OFFCURVE",
"790 308 OFFCURVE",
"795 283 CURVE",
"800 265 OFFCURVE",
"798 183 OFFCURVE",
"787 182 CURVE SMOOTH",
"779 181 OFFCURVE",
"777 230 OFFCURVE",
"767 251 CURVE SMOOTH",
"710 369 OFFCURVE",
"669 393 OFFCURVE",
"567 446 CURVE SMOOTH",
"510 476 OFFCURVE",
"464 490 OFFCURVE",
"377 478 CURVE SMOOTH",
"296 467 OFFCURVE",
"297 388 OFFCURVE",
"297 388 CURVE SMOOTH",
"297 388 OFFCURVE",
"392 312 OFFCURVE",
"434 273 CURVE SMOOTH",
"473 236 OFFCURVE",
"533 184 OFFCURVE",
"517 141 CURVE",
"507 119 OFFCURVE",
"454 130 OFFCURVE",
"432 140 CURVE"
);
},
{
closed = 1;
nodes = (
"475 173 OFFCURVE",
"438 216 OFFCURVE",
"402 255 CURVE SMOOTH",
"372 289 OFFCURVE",
"305 340 OFFCURVE",
"305 340 CURVE SMOOTH",
"305 340 OFFCURVE",
"339 272 OFFCURVE",
"376 230 CURVE SMOOTH",
"406 195 OFFCURVE",
"445 148 OFFCURVE",
"461 163 CURVE"
);
}
);
width = 808;
}
);
unicode = 3089;
},
{
glyphname = "ri-hira";
lastChange = "2020-04-30 23:14:44 +0000";
layers = (
{
layerId = "1305C52C-0BD1-483E-A343-C05F3AFF2931";
paths = (
{
closed = 1;
nodes = (
"414 105 OFFCURVE",
"422 174 OFFCURVE",
"431 203 CURVE",
"440 231 OFFCURVE",
"446 275 OFFCURVE",
"481 276 CURVE",
"504 276 OFFCURVE",
"527 236 OFFCURVE",
"525 224 CURVE",
"524 215 OFFCURVE",
"508 214 OFFCURVE",
"501 208 CURVE",
"492 200 OFFCURVE",
"478 186 OFFCURVE",
"469 173 CURVE",
"456 155 OFFCURVE",
"435 100 OFFCURVE",
"427 102 CURVE"
);
},
{
closed = 1;
nodes = (
"303 75 OFFCURVE",
"338 97 OFFCURVE",
"334 116 CURVE",
"317 192 OFFCURVE",
"273 204 OFFCURVE",
"268 233 CURVE",
"263 255 OFFCURVE",
"277 284 OFFCURVE",
"285 282 CURVE",
"298 279 OFFCURVE",
"307 261 OFFCURVE",
"317 256 CURVE",
"352 238 OFFCURVE",
"447 210 OFFCURVE",
"501 175 CURVE",
"554 140 OFFCURVE",
"610 80 OFFCURVE",
"631 49 CURVE",
"642 34 OFFCURVE",
"627 -7 OFFCURVE",
"627 -7 CURVE",
"627 -7 OFFCURVE",
"620 33 OFFCURVE",
"607 47 CURVE",
"581 76 OFFCURVE",
"537 131 OFFCURVE",
"472 165 CURVE",
"394 206 OFFCURVE",
"319 210 OFFCURVE",
"319 210 CURVE",
"319 210 OFFCURVE",
"342 176 OFFCURVE",
"355 161 CURVE",
"369 145 OFFCURVE",
"401 132 OFFCURVE",
"402 116 CURVE",
"403 100 OFFCURVE",
"380 77 OFFCURVE",
"364 69 CURVE",
"348 61 OFFCURVE",
"311 57 OFFCURVE",
"307 66 CURVE"
);
},
{
closed = 1;
nodes = (
"222 531 OFFCURVE",
"257 565 OFFCURVE",
"280 576 CURVE",
"303 588 OFFCURVE",
"347 601 OFFCURVE",
"360 591 CURVE",
"385 572 OFFCURVE",
"346 531 OFFCURVE",
"352 510 CURVE",
"359 485 OFFCURVE",
"394 454 OFFCURVE",
"447 455 CURVE",
"647 461 OFFCURVE",
"648 708 OFFCURVE",
"648 708 CURVE",
"648 708 OFFCURVE",
"706 450 OFFCURVE",
"470 405 CURVE",
"337 380 OFFCURVE",
"295 485 OFFCURVE",
"255 501 CURVE",
"245 505 OFFCURVE",
"228 510 OFFCURVE",
"226 517 CURVE"
);
},
{
closed = 1;
nodes = (
"2 258 OFFCURVE",
"14 316 OFFCURVE",
"27 344 CURVE",
"39 372 OFFCURVE",
"76 414 OFFCURVE",
"95 415 CURVE",
"123 416 OFFCURVE",
"118 368 OFFCURVE",
"135 365 CURVE",
"178 357 OFFCURVE",
"279 352 OFFCURVE",
"350 350 CURVE",
"451 348 OFFCURVE",
"653 348 OFFCURVE",
"729 349 CURVE",
"755 350 OFFCURVE",
"797 378 OFFCURVE",
"817 379 CURVE",
"844 379 OFFCURVE",
"851 370 OFFCURVE",
"850 355 CURVE",
"850 340 OFFCURVE",
"809 294 OFFCURVE",
"789 294 CURVE",
"773 294 OFFCURVE",
"733 313 OFFCURVE",
"716 313 CURVE",
"649 315 OFFCURVE",
"473 321 OFFCURVE",
"375 321 CURVE",
"295 320 OFFCURVE",
"180 312 OFFCURVE",
"130 311 CURVE",
"72 310 OFFCURVE",
"25 237 OFFCURVE",
"16 245 CURVE"
);
}
);
width = 860;
}
);
unicode = 308A;
},
{
glyphname = "ru-hira";
lastChange = "2020-04-30 23:14:54 +0000";
layers = (
{
layerId = "1305C52C-0BD1-483E-A343-C05F3AFF2931";
paths = (
{
closed = 1;
nodes = (
"425 106 OFFCURVE",
"424 175 OFFCURVE",
"432 204 CURVE",
"442 241 OFFCURVE",
"453 276 OFFCURVE",
"483 277 CURVE",
"500 278 OFFCURVE",
"526 244 OFFCURVE",
"525 226 CURVE",
"524 218 OFFCURVE",
"509 216 OFFCURVE",
"502 211 CURVE",
"493 204 OFFCURVE",
"480 192 OFFCURVE",
"471 180 CURVE",
"458 162 OFFCURVE",
"425 106 OFFCURVE",
"425 106 CURVE"
);
},
{
closed = 1;
nodes = (
"306 84 OFFCURVE",
"335 103 OFFCURVE",
"333 122 CURVE",
"332 141 OFFCURVE",
"317 169 OFFCURVE",
"306 189 CURVE",
"296 208 OFFCURVE",
"267 215 OFFCURVE",
"265 246 CURVE",
"263 262 OFFCURVE",
"273 288 OFFCURVE",
"287 288 CURVE",
"298 288 OFFCURVE",
"300 269 OFFCURVE",
"314 264 CURVE",
"350 250 OFFCURVE",
"439 216 OFFCURVE",
"493 180 CURVE",
"548 144 OFFCURVE",
"618 92 OFFCURVE",
"628 48 CURVE",
"632 32 OFFCURVE",
"626 0 OFFCURVE",
"626 0 CURVE",
"626 0 OFFCURVE",
"618 32 OFFCURVE",
"610 46 CURVE",
"588 87 OFFCURVE",
"548 123 OFFCURVE",
"477 163 CURVE",
"390 212 OFFCURVE",
"327 212 OFFCURVE",
"327 212 CURVE",
"327 212 OFFCURVE",
"332 185 OFFCURVE",
"353 164 CURVE",
"367 150 OFFCURVE",
"397 139 OFFCURVE",
"399 124 CURVE",
"401 109 OFFCURVE",
"386 89 OFFCURVE",
"372 80 CURVE",
"358 72 OFFCURVE",
"322 64 OFFCURVE",
"316 72 CURVE"
);
},
{
closed = 1;
nodes = (
"537 268 OFFCURVE",
"587 268 OFFCURVE",
"584 284 CURVE",
"578 324 OFFCURVE",
"553 406 OFFCURVE",
"534 468 CURVE",
"513 539 OFFCURVE",
"459 700 OFFCURVE",
"459 700 CURVE",
"459 700 OFFCURVE",
"529 535 OFFCURVE",
"558 469 CURVE",
"581 415 OFFCURVE",
"611 343 OFFCURVE",
"627 314 CURVE",
"634 300 OFFCURVE",
"664 296 OFFCURVE",
"669 281 CURVE",
"673 266 OFFCURVE",
"648 228 OFFCURVE",
"627 222 CURVE",
"594 212 OFFCURVE",
"553 227 OFFCURVE",
"549 237 CURVE"
);
},
{
closed = 1;
nodes = (
"7 293 OFFCURVE",
"21 315 OFFCURVE",
"24 326 CURVE",
"28 335 OFFCURVE",
"29 344 OFFCURVE",
"34 352 CURVE",
"46 374 OFFCURVE",
"94 432 OFFCURVE",
"118 432 CURVE",
"136 431 OFFCURVE",
"147 411 OFFCURVE",
"149 398 CURVE",
"151 388 OFFCURVE",
"148 364 OFFCURVE",
"160 362 CURVE",
"195 354 OFFCURVE",
"290 355 OFFCURVE",
"356 354 CURVE",
"446 352 OFFCURVE",
"624 354 OFFCURVE",
"701 354 CURVE",
"736 354 OFFCURVE",
"779 380 OFFCURVE",
"803 380 CURVE",
"821 379 OFFCURVE",
"849 364 OFFCURVE",
"849 351 CURVE",
"848 338 OFFCURVE",
"798 312 OFFCURVE",
"781 306 CURVE",
"769 302 OFFCURVE",
"758 314 OFFCURVE",
"745 314 CURVE",
"683 316 OFFCURVE",
"498 319 OFFCURVE",
"406 319 CURVE",
"334 320 OFFCURVE",
"245 319 OFFCURVE",
"191 317 CURVE",
"156 317 OFFCURVE",
"113 312 OFFCURVE",
"88 307 CURVE",
"71 303 OFFCURVE",
"55 289 OFFCURVE",
"42 285 CURVE",
"31 283 OFFCURVE",
"13 280 OFFCURVE",
"10 286 CURVE"
);
}
);
width = 859;
}
);
unicode = 308B;
},
{
glyphname = "re-hira";
lastChange = "2020-04-30 23:15:07 +0000";
layers = (
{
layerId = "1305C52C-0BD1-483E-A343-C05F3AFF2931";
paths = (
{
closed = 1;
nodes = (
"426 263 OFFCURVE",
"478 343 OFFCURVE",
"512 374 CURVE",
"548 406 OFFCURVE",
"618 468 OFFCURVE",
"648 429 CURVE",
"665 407 OFFCURVE",
"644 383 OFFCURVE",
"644 363 CURVE",
"643 341 OFFCURVE",
"640 295 OFFCURVE",
"640 295 CURVE",
"640 295 OFFCURVE",
"614 351 OFFCURVE",
"588 353 CURVE",
"541 357 OFFCURVE",
"426 263 OFFCURVE",
"426 263 CURVE"
);
},
{
closed = 1;
nodes = (
"59 238 OFFCURVE",
"104 266 OFFCURVE",
"100 292 CURVE",
"95 329 OFFCURVE",
"61 394 OFFCURVE",
"45 423 CURVE",
"34 444 OFFCURVE",
"12 451 OFFCURVE",
"10 487 CURVE",
"9 507 OFFCURVE",
"24 549 OFFCURVE",
"48 547 CURVE",
"66 546 OFFCURVE",
"145 415 OFFCURVE",
"205 414 CURVE",
"258 413 OFFCURVE",
"268 563 OFFCURVE",
"368 564 CURVE",
"447 564 OFFCURVE",
"497 402 OFFCURVE",
"568 313 CURVE",
"624 243 OFFCURVE",
"726 161 OFFCURVE",
"791 160 CURVE",
"835 159 OFFCURVE",
"919 190 OFFCURVE",
"919 190 CURVE",
"919 190 OFFCURVE",
"858 136 OFFCURVE",
"782 136 CURVE",
"719 135 OFFCURVE",
"602 216 OFFCURVE",
"553 277 CURVE",
"481 365 OFFCURVE",
"423 475 OFFCURVE",
"362 473 CURVE",
"298 471 OFFCURVE",
"261 383 OFFCURVE",
"214 379 CURVE",
"181 376 OFFCURVE",
"72 450 OFFCURVE",
"72 450 CURVE",
"72 450 OFFCURVE",
"82 411 OFFCURVE",
"119 367 CURVE",
"139 343 OFFCURVE",
"189 332 OFFCURVE",
"192 298 CURVE",
"193 271 OFFCURVE",
"161 237 OFFCURVE",
"140 225 CURVE",
"119 214 OFFCURVE",
"70 212 OFFCURVE",
"65 225 CURVE"
);
}
);
width = 929;
}
);
unicode = 308C;
},
{
glyphname = "ro-hira";
lastChange = "2020-04-30 23:15:17 +0000";
layers = (
{
layerId = "1305C52C-0BD1-483E-A343-C05F3AFF2931";
paths = (
{
closed = 1;
nodes = (
"59 206 OFFCURVE",
"98 232 OFFCURVE",
"95 255 CURVE",
"90 289 OFFCURVE",
"70 330 OFFCURVE",
"51 355 CURVE",
"32 380 OFFCURVE",
"12 382 OFFCURVE",
"10 423 CURVE",
"9 443 OFFCURVE",
"22 470 OFFCURVE",
"34 469 CURVE",
"45 469 OFFCURVE",
"54 447 OFFCURVE",
"66 441 CURVE",
"107 420 OFFCURVE",
"186 397 OFFCURVE",
"284 341 CURVE",
"420 264 OFFCURVE",
"461 200 OFFCURVE",
"461 200 CURVE",
"461 200 OFFCURVE",
"485 248 OFFCURVE",
"496 272 CURVE",
"524 329 OFFCURVE",
"626 436 OFFCURVE",
"625 544 CURVE",
"624 610 OFFCURVE",
"589 737 OFFCURVE",
"589 737 CURVE",
"589 737 OFFCURVE",
"693 585 OFFCURVE",
"696 502 CURVE",
"704 329 OFFCURVE",
"490 258 OFFCURVE",
"495 138 CURVE",
"498 71 OFFCURVE",
"579 42 OFFCURVE",
"580 18 CURVE",
"580 3 OFFCURVE",
"562 -10 OFFCURVE",
"549 -13 CURVE",
"537 -15 OFFCURVE",
"528 -37 OFFCURVE",
"516 -36 CURVE",
"485 -34 OFFCURVE",
"499 9 OFFCURVE",
"492 32 CURVE",
"481 63 OFFCURVE",
"468 106 OFFCURVE",
"452 148 CURVE",
"433 197 OFFCURVE",
"396 243 OFFCURVE",
"272 316 CURVE",
"179 370 OFFCURVE",
"90 371 OFFCURVE",
"90 371 CURVE",
"90 371 OFFCURVE",
"109 326 OFFCURVE",
"124 308 CURVE",
"141 288 OFFCURVE",
"185 285 OFFCURVE",
"184 253 CURVE",
"183 235 OFFCURVE",
"140 189 OFFCURVE",
"118 186 CURVE",
"95 184 OFFCURVE",
"69 183 OFFCURVE",
"64 195 CURVE"
);
},
{
closed = 1;
nodes = (
"207 237 OFFCURVE",
"205 330 OFFCURVE",
"212 369 CURVE",
"223 432 OFFCURVE",
"264 463 OFFCURVE",
"287 461 CURVE",
"320 457 OFFCURVE",
"344 402 OFFCURVE",
"340 386 CURVE",
"337 375 OFFCURVE",
"318 377 OFFCURVE",
"306 371 CURVE",
"294 364 OFFCURVE",
"281 346 OFFCURVE",
"271 332 CURVE",
"255 310 OFFCURVE",
"207 237 OFFCURVE",
"207 237 CURVE"
);
}
);
width = 706;
}
);
unicode = 308D;
},
{
glyphname = "wa-hira";
lastChange = "2020-04-30 23:15:27 +0000";
layers = (
{
layerId = "1305C52C-0BD1-483E-A343-C05F3AFF2931";
paths = (
{
closed = 1;
nodes = (
"390 182 OFFCURVE",
"404 193 OFFCURVE",
"415 196 CURVE",
"427 199 OFFCURVE",
"447 198 OFFCURVE",
"459 184 CURVE",
"470 174 OFFCURVE",
"480 119 OFFCURVE",
"463 104 CURVE",
"447 88 OFFCURVE",
"394 81 OFFCURVE",
"368 99 CURVE",
"339 120 OFFCURVE",
"284 174 OFFCURVE",
"285 228 CURVE",
"285 254 OFFCURVE",
"315 279 OFFCURVE",
"340 281 CURVE",
"371 282 OFFCURVE",
"434 234 OFFCURVE",
"465 209 CURVE",
"490 188 OFFCURVE",
"541 134 OFFCURVE",
"541 134 CURVE",
"541 134 OFFCURVE",
"523 200 OFFCURVE",
"514 224 CURVE",
"506 243 OFFCURVE",
"488 255 OFFCURVE",
"489 279 CURVE",
"490 307 OFFCURVE",
"501 323 OFFCURVE",
"509 324 CURVE",
"525 324 OFFCURVE",
"531 296 OFFCURVE",
"532 280 CURVE",
"533 264 OFFCURVE",
"530 245 OFFCURVE",
"534 228 CURVE",
"539 206 OFFCURVE",
"551 168 OFFCURVE",
"564 145 CURVE",
"577 124 OFFCURVE",
"613 105 OFFCURVE",
"614 89 CURVE",
"615 72 OFFCURVE",
"585 42 OFFCURVE",
"569 45 CURVE",
"552 47 OFFCURVE",
"543 97 OFFCURVE",
"517 126 CURVE",
"501 144 OFFCURVE",
"469 178 OFFCURVE",
"437 204 CURVE",
"411 225 OFFCURVE",
"365 254 OFFCURVE",
"346 254 CURVE",
"324 254 OFFCURVE",
"315 238 OFFCURVE",
"315 219 CURVE",
"315 205 OFFCURVE",
"329 180 OFFCURVE",
"340 166 CURVE",
"350 155 OFFCURVE",
"368 139 OFFCURVE",
"379 138 CURVE",
"392 137 OFFCURVE",
"407 141 OFFCURVE",
"407 149 CURVE",
"408 158 OFFCURVE",
"390 166 OFFCURVE",
"390 174 CURVE"
);
},
{
closed = 1;
nodes = (
"282 546 OFFCURVE",
"301 593 OFFCURVE",
"325 617 CURVE",
"340 632 OFFCURVE",
"362 654 OFFCURVE",
"379 655 CURVE",
"420 656 OFFCURVE",
"412 597 OFFCURVE",
"423 576 CURVE",
"440 545 OFFCURVE",
"487 500 OFFCURVE",
"510 466 CURVE",
"542 418 OFFCURVE",
"600 290 OFFCURVE",
"600 290 CURVE",
"600 290 OFFCURVE",
"525 386 OFFCURVE",
"484 434 CURVE",
"444 480 OFFCURVE",
"399 526 OFFCURVE",
"348 546 CURVE",
"333 552 OFFCURVE",
"301 525 OFFCURVE",
"293 534 CURVE"
);
},
{
closed = 1;
nodes = (
"3 283 OFFCURVE",
"30 336 OFFCURVE",
"53 373 CURVE",
"72 402 OFFCURVE",
"89 434 OFFCURVE",
"117 432 CURVE",
"149 430 OFFCURVE",
"138 398 OFFCURVE",
"153 390 CURVE",
"174 380 OFFCURVE",
"216 365 OFFCURVE",
"262 364 CURVE",
"360 362 OFFCURVE",
"686 362 OFFCURVE",
"778 363 CURVE",
"792 364 OFFCURVE",
"809 378 OFFCURVE",
"832 377 CURVE",
"845 377 OFFCURVE",
"868 380 OFFCURVE",
"870 369 CURVE",
"871 359 OFFCURVE",
"845 321 OFFCURVE",
"828 319 CURVE",
"815 317 OFFCURVE",
"793 316 OFFCURVE",
"781 317 CURVE",
"772 318 OFFCURVE",
"757 329 OFFCURVE",
"748 329 CURVE",
"642 332 OFFCURVE",
"256 338 OFFCURVE",
"146 334 CURVE",
"126 333 OFFCURVE",
"108 315 OFFCURVE",
"90 305 CURVE",
"68 294 OFFCURVE",
"20 260 OFFCURVE",
"12 271 CURVE"
);
}
);
width = 880;
}
);
unicode = 308F;
},
{
glyphname = "wo-hira";
lastChange = "2020-04-30 23:15:40 +0000";
layers = (
{
layerId = "1305C52C-0BD1-483E-A343-C05F3AFF2931";
paths = (
{
closed = 1;
nodes = (
"5 332 OFFCURVE",
"15 362 OFFCURVE",
"23 381 CURVE",
"31 399 OFFCURVE",
"48 424 OFFCURVE",
"66 422 CURVE",
"82 420 OFFCURVE",
"92 398 OFFCURVE",
"108 378 CURVE",
"125 357 OFFCURVE",
"141 339 OFFCURVE",
"156 324 CURVE",
"185 296 OFFCURVE",
"235 253 OFFCURVE",
"235 253 CURVE",
"235 253 OFFCURVE",
"233 310 OFFCURVE",
"254 336 CURVE",
"317 410 OFFCURVE",
"405 408 OFFCURVE",
"460 397 CURVE",
"599 368 OFFCURVE",
"783 407 OFFCURVE",
"781 555 CURVE",
"780 658 OFFCURVE",
"726 714 OFFCURVE",
"726 714 CURVE",
"726 714 OFFCURVE",
"853 623 OFFCURVE",
"852 527 CURVE",
"850 415 OFFCURVE",
"735 326 OFFCURVE",
"604 323 CURVE",
"537 321 OFFCURVE",
"452 355 OFFCURVE",
"396 352 CURVE",
"318 349 OFFCURVE",
"268 313 OFFCURVE",
"270 270 CURVE",
"272 211 OFFCURVE",
"333 205 OFFCURVE",
"345 184 CURVE",
"352 173 OFFCURVE",
"336 152 OFFCURVE",
"323 153 CURVE",
"262 156 OFFCURVE",
"263 196 OFFCURVE",
"238 218 CURVE",
"200 250 OFFCURVE",
"109 335 OFFCURVE",
"74 337 CURVE",
"59 337 OFFCURVE",
"59 317 OFFCURVE",
"52 313 CURVE",
"44 307 OFFCURVE",
"20 306 OFFCURVE",
"14 317 CURVE"
);
},
{
closed = 1;
nodes = (
"69 165 OFFCURVE",
"116 165 OFFCURVE",
"114 193 CURVE",
"113 214 OFFCURVE",
"62 278 OFFCURVE",
"62 278 CURVE",
"62 278 OFFCURVE",
"98 257 OFFCURVE",
"115 247 CURVE",
"137 233 OFFCURVE",
"180 232 OFFCURVE",
"188 193 CURVE",
"193 173 OFFCURVE",
"162 130 OFFCURVE",
"140 127 CURVE",
"116 125 OFFCURVE",
"67 144 OFFCURVE",
"68 155 CURVE"
);
},
{
closed = 1;
nodes = (
"484 133 OFFCURVE",
"505 150 OFFCURVE",
"517 153 CURVE",
"529 156 OFFCURVE",
"549 152 OFFCURVE",
"557 143 CURVE",
"567 132 OFFCURVE",
"572 110 OFFCURVE",
"572 85 CURVE",
"572 65 OFFCURVE",
"557 31 OFFCURVE",
"513 31 CURVE",
"462 32 OFFCURVE",
"414 73 OFFCURVE",
"393 106 CURVE",
"372 138 OFFCURVE",
"369 212 OFFCURVE",
"384 232 CURVE",
"398 251 OFFCURVE",
"448 246 OFFCURVE",
"476 233 CURVE",
"505 220 OFFCURVE",
"536 191 OFFCURVE",
"562 168 CURVE",
"590 143 OFFCURVE",
"651 83 OFFCURVE",
"651 83 CURVE",
"651 83 OFFCURVE",
"636 129 OFFCURVE",
"627 152 CURVE",
"613 185 OFFCURVE",
"591 213 OFFCURVE",
"590 236 CURVE",
"588 260 OFFCURVE",
"602 296 OFFCURVE",
"618 296 CURVE",
"640 296 OFFCURVE",
"642 260 OFFCURVE",
"643 239 CURVE",
"644 172 OFFCURVE",
"660 122 OFFCURVE",
"672 100 CURVE",
"700 48 OFFCURVE",
"728 58 OFFCURVE",
"729 37 CURVE",
"730 19 OFFCURVE",
"701 -14 OFFCURVE",
"687 -14 CURVE",
"656 -16 OFFCURVE",
"660 29 OFFCURVE",
"644 48 CURVE",
"620 76 OFFCURVE",
"576 128 OFFCURVE",
"542 156 CURVE",
"513 180 OFFCURVE",
"462 211 OFFCURVE",
"433 214 CURVE",
"417 215 OFFCURVE",
"399 202 OFFCURVE",
"399 177 CURVE",
"401 137 OFFCURVE",
"452 86 OFFCURVE",
"481 83 CURVE",
"492 82 OFFCURVE",
"505 85 OFFCURVE",
"505 99 CURVE",
"505 106 OFFCURVE",
"485 115 OFFCURVE",
"485 124 CURVE"
);
}
);
width = 862;
}
);
unicode = 3092;
},
{
glyphname = "n-hira";
lastChange = "2020-04-30 23:15:49 +0000";
layers = (
{
layerId = "1305C52C-0BD1-483E-A343-C05F3AFF2931";
paths = (
{
closed = 1;
nodes = (
"28 176 OFFCURVE",
"102 169 OFFCURVE",
"100 200 CURVE",
"97 245 OFFCURVE",
"10 358 OFFCURVE",
"10 445 CURVE",
"10 501 OFFCURVE",
"32 583 OFFCURVE",
"78 582 CURVE",
"171 580 OFFCURVE",
"230 409 OFFCURVE",
"338 408 CURVE",
"457 407 OFFCURVE",
"505 510 OFFCURVE",
"505 510 CURVE",
"505 510 OFFCURVE",
"469 361 OFFCURVE",
"335 368 CURVE",
"218 374 OFFCURVE",
"151 505 OFFCURVE",
"96 505 CURVE",
"69 504 OFFCURVE",
"49 482 OFFCURVE",
"51 444 CURVE",
"56 316 OFFCURVE",
"174 237 OFFCURVE",
"175 190 CURVE",
"176 157 OFFCURVE",
"134 121 OFFCURVE",
"109 119 CURVE",
"84 117 OFFCURVE",
"31 149 OFFCURVE",
"30 163 CURVE"
);
}
);
width = 515;
}
);
unicode = 3093;
},
{
glyphname = zero;
lastChange = "2019-12-15 13:44:06 +0000";
layers = (
{
layerId = "1305C52C-0BD1-483E-A343-C05F3AFF2931";
paths = (
{
closed = 1;
nodes = (
"172 281 LINE",
"183 280 OFFCURVE",
"213 260 OFFCURVE",
"229 240 CURVE",
"246 221 OFFCURVE",
"272 204 OFFCURVE",
"254 167 CURVE",
"249 155 OFFCURVE",
"217 166 OFFCURVE",
"205 159 CURVE",
"187 148 OFFCURVE",
"123 73 OFFCURVE",
"79 73 CURVE",
"49 73 OFFCURVE",
"27 133 OFFCURVE",
"30 167 CURVE",
"37 268 OFFCURVE",
"127 332 OFFCURVE",
"189 360 CURVE",
"251 386 OFFCURVE",
"360 390 OFFCURVE",
"398 324 CURVE",
"469 203 OFFCURVE",
"393 109 OFFCURVE",
"342 63 CURVE",
"249 -25 OFFCURVE",
"141 21 OFFCURVE",
"141 21 CURVE",
"141 21 OFFCURVE",
"193 26 OFFCURVE",
"217 33 CURVE",
"272 49 OFFCURVE",
"357 119 OFFCURVE",
"373 207 CURVE",
"383 262 OFFCURVE",
"362 335 OFFCURVE",
"290 341 CURVE",
"244 347 OFFCURVE",
"164 335 OFFCURVE",
"127 308 CURVE",
"87 281 OFFCURVE",
"59 215 OFFCURVE",
"59 181 CURVE",
"59 158 OFFCURVE",
"74 121 OFFCURVE",
"95 122 CURVE",
"128 125 OFFCURVE",
"176 185 OFFCURVE",
"177 208 CURVE",
"178 228 OFFCURVE",
"166 236 OFFCURVE",
"165 246 CURVE",
"164 257 OFFCURVE",
"162 282 OFFCURVE",
"172 281 CURVE"
);
}
);
width = 457;
}
);
unicode = 0030;
},
{
glyphname = one;
lastChange = "2019-12-15 13:45:54 +0000";
layers = (
{
layerId = "1305C52C-0BD1-483E-A343-C05F3AFF2931";
paths = (
{
closed = 1;
nodes = (
"194 732 LINE",
"196 737 OFFCURVE",
"213 728 OFFCURVE",
"223 726 CURVE",
"235 723 OFFCURVE",
"259 721 OFFCURVE",
"272 712 CURVE",
"289 701 OFFCURVE",
"314 672 OFFCURVE",
"314 658 CURVE",
"314 645 OFFCURVE",
"295 627 OFFCURVE",
"283 627 CURVE",
"271 624 OFFCURVE",
"260 634 OFFCURVE",
"248 634 CURVE",
"186 633 OFFCURVE",
"170 568 OFFCURVE",
"170 548 CURVE",
"170 495 OFFCURVE",
"169 389 OFFCURVE",
"170 306 CURVE",
"174 82 OFFCURVE",
"30 1 OFFCURVE",
"30 1 CURVE",
"30 1 OFFCURVE",
"95 80 OFFCURVE",
"110 121 CURVE",
"130 171 OFFCURVE",
"145 240 OFFCURVE",
"146 298 CURVE",
"146 359 OFFCURVE",
"148 433 OFFCURVE",
"147 474 CURVE",
"146 497 OFFCURVE",
"140 521 OFFCURVE",
"140 545 CURVE",
"142 660 OFFCURVE",
"199 689 OFFCURVE",
"206 700 CURVE",
"210 712 OFFCURVE",
"192 727 OFFCURVE",
"194 732 CURVE"
);
}
);
width = 344;
}
);
unicode = 0031;
},
